<svg xmlns="http://www.w3.org/2000/svg" xmlns:xlink="http://www.w3.org/1999/xlink" viewBox="0 0 247.59 237.31"><defs><style>.cls-1{fill:#d5e2f5;}.cls-1,.cls-10,.cls-14,.cls-15,.cls-16,.cls-17,.cls-22,.cls-26,.cls-5,.cls-6,.cls-7{fill-rule:evenodd;}.cls-2,.cls-23{fill:none;}.cls-2{stroke:#ffabc7;stroke-miterlimit:10;stroke-width:1.92px;stroke-dasharray:9.6 5.76;}.cls-3{fill:url(#linear-gradient);}.cls-4{fill:url(#linear-gradient-2);}.cls-12,.cls-5{fill:#f3f0ff;}.cls-6{fill:url(#linear-gradient-3);}.cls-7{fill:#60fcfc;}.cls-8{fill:#749fdb;}.cls-9{fill:url(#linear-gradient-4);}.cls-10{fill:url(#linear-gradient-5);}.cls-11{fill:#882fa3;}.cls-13,.cls-26{fill:#ff8d29;}.cls-14{fill:url(#linear-gradient-6);}.cls-15{fill:url(#linear-gradient-7);}.cls-16{fill:#b9afe0;}.cls-17,.cls-18{fill:#ffe4cc;}.cls-19{fill:url(#linear-gradient-8);}.cls-20,.cls-22{fill:#fff;}.cls-21{fill:url(#linear-gradient-9);}.cls-23{stroke:#d1415b;stroke-linecap:round;stroke-linejoin:round;stroke-width:2.4px;}.cls-24{fill:url(#linear-gradient-10);}.cls-25{fill:url(#linear-gradient-11);}</style><linearGradient id="linear-gradient" x1="11568.09" y1="-8218.84" x2="11568.09" y2="-8466.96" gradientTransform="matrix(0.07, 0, 0, -0.07, -707.03, -412.98)" gradientUnits="userSpaceOnUse"><stop offset="0" stop-color="#634ec9"/><stop offset="1" stop-color="#749fdb"/></linearGradient><linearGradient id="linear-gradient-2" x1="11171" y1="-8072.87" x2="11965.8" y2="-6747.56" gradientTransform="matrix(0.07, 0, 0, -0.07, -707.03, -412.98)" gradientUnits="userSpaceOnUse"><stop offset="0" stop-color="#7e67f0"/><stop offset="1" stop-color="#634ec9"/></linearGradient><linearGradient id="linear-gradient-3" x1="11491.14" y1="-8364.69" x2="11628.54" y2="-7723.71" gradientTransform="matrix(0.07, 0, 0, -0.07, -707.03, -412.98)" gradientUnits="userSpaceOnUse"><stop offset="0" stop-color="#60fcfc"/><stop offset="1" stop-color="#749fdb"/></linearGradient><linearGradient id="linear-gradient-4" x1="11683.52" y1="-8558.71" x2="11453.42" y2="-8641.17" xlink:href="#linear-gradient-3"/><linearGradient id="linear-gradient-5" x1="11569.59" y1="-6541.1" x2="11569.59" y2="-6758.91" gradientTransform="matrix(0.07, 0, 0, -0.07, -707.03, -412.98)" gradientUnits="userSpaceOnUse"><stop offset="0" stop-color="#882fa3"/><stop offset="1" stop-color="#d1415b"/></linearGradient><linearGradient id="linear-gradient-6" x1="12370.87" y1="-6952.65" x2="12058.87" y2="-7043.28" gradientTransform="matrix(0.07, 0, 0, -0.07, -707.03, -412.98)" gradientUnits="userSpaceOnUse"><stop offset="0" stop-color="#d1415b"/><stop offset="1" stop-color="#fc6094"/></linearGradient><linearGradient id="linear-gradient-7" x1="12214.24" y1="-7085.76" x2="12011.14" y2="-7173.94" xlink:href="#linear-gradient-6"/><linearGradient id="linear-gradient-8" x1="10975.96" y1="-5922.1" x2="10561.86" y2="-6368.07" gradientTransform="matrix(0.07, 0, 0, -0.07, -707.03, -412.98)" gradientUnits="userSpaceOnUse"><stop offset="0" stop-color="#634ec9"/><stop offset="1" stop-color="#df75ff"/></linearGradient><linearGradient id="linear-gradient-9" x1="10578.33" y1="-8618.19" x2="10119.63" y2="-8967.77" gradientTransform="matrix(0.07, 0, 0, -0.07, -707.03, -412.98)" gradientUnits="userSpaceOnUse"><stop offset="0" stop-color="#ff8d29"/><stop offset="1" stop-color="#d1415b"/></linearGradient><linearGradient id="linear-gradient-10" x1="12929.86" y1="-8571.51" x2="12580.06" y2="-9014.61" xlink:href="#linear-gradient-6"/><linearGradient id="linear-gradient-11" x1="12688.67" y1="-5733.07" x2="12234.37" y2="-6215.82" xlink:href="#linear-gradient-3"/></defs><g id="Layer_2" data-name="Layer 2"><g id="Layer_1-2" data-name="Layer 1"><g id="Layer_1-3" data-name="Layer_1"><path class="cls-1" d="M111.68,205.27c-54.22,44.42-161.35-77.9-75.53-135,55.51-36.93,60.91,11,124.42-26.35,44-25.78,120.52,74.59,70.84,123.91C187.57,211.39,169.06,158.25,111.68,205.27Z"/><path class="cls-2" d="M31.25,152C-16.55,127.73-2.94,65.3,38.53,41.18"/><rect class="cls-3" x="107.21" y="170.49" width="37.3" height="34.34" rx="1.87"/><rect class="cls-4" x="43.35" y="57.96" width="165.09" height="125.13" rx="6.84"/><path class="cls-5" d="M208.45,73.66V176.25a6.88,6.88,0,0,1-6.84,6.84H50.19a6.88,6.88,0,0,1-6.84-6.84V73.66Z"/><path class="cls-6" d="M201.61,156.38H50.19a6.88,6.88,0,0,1-6.84-6.84v26.71a6.88,6.88,0,0,0,6.84,6.84H201.61a6.88,6.88,0,0,0,6.84-6.84V149.54A6.88,6.88,0,0,1,201.61,156.38Z"/><path class="cls-7" d="M125.86,161.85a7.92,7.92,0,1,1-7.92,7.92A7.9,7.9,0,0,1,125.86,161.85Z"/><path class="cls-8" d="M125.86,161.21a8.4,8.4,0,0,1,6,2.52,8.6,8.6,0,0,1,2.52,6,8.44,8.44,0,0,1-2.52,6,8.6,8.6,0,0,1-6,2.52,8.43,8.43,0,0,1-6-2.52,8.6,8.6,0,0,1-2.52-6,8.43,8.43,0,0,1,2.52-6A8.6,8.6,0,0,1,125.86,161.21Zm5.19,3.31a7.41,7.41,0,0,0-5.19-2.16,7.1,7.1,0,0,0-5.18,2.16,7.38,7.38,0,0,0-2.16,5.18,7.12,7.12,0,0,0,2.16,5.19,7.43,7.43,0,0,0,5.18,2.16,7.16,7.16,0,0,0,5.19-2.16,7.45,7.45,0,0,0,2.16-5.19A7.14,7.14,0,0,0,131.05,164.52Z"/><rect class="cls-9" x="77.62" y="202.25" width="96.55" height="7.92" rx="3.1"/><path class="cls-10" d="M106.06,64.66V61.34A3.3,3.3,0,0,0,102.75,58H78.34A3.3,3.3,0,0,0,75,61.34v3.32H43.42v9h165.1v-9H106.06Z"/><g id="_673738352" data-name=" 673738352"><circle class="cls-11" cx="55.37" cy="61.7" r="1.37"/><circle class="cls-11" cx="59.48" cy="61.7" r="1.37"/><circle class="cls-11" cx="63.58" cy="61.7" r="1.37"/></g><rect class="cls-12" x="74.38" y="66.96" width="121.46" height="4.39" rx="1.3"/><g id="_673736672" data-name=" 673736672"><rect class="cls-13" x="57.1" y="77.9" width="80.42" height="70.13" rx="3.82"/><path class="cls-14" d="M153.37,87.7h38.16a3.15,3.15,0,0,1,3.16,3.16h0A3.16,3.16,0,0,1,191.53,94H153.37a3.17,3.17,0,0,1-3.17-3.17h0A3.16,3.16,0,0,1,153.37,87.7Z"/><path class="cls-15" d="M153.37,97.2h23.4a3.16,3.16,0,0,1,3.16,3.17h0a3.16,3.16,0,0,1-3.16,3.17h-23.4a3.17,3.17,0,0,1-3.17-3.17h0A3.17,3.17,0,0,1,153.37,97.2Z"/><path class="cls-16" d="M153.37,113h38.16a3.16,3.16,0,0,1,3.16,3.17h0a3.16,3.16,0,0,1-3.16,3.16H153.37a3.17,3.17,0,0,1-3.17-3.16h0A3.17,3.17,0,0,1,153.37,113Z"/><path class="cls-16" d="M153.37,122.47h38.16a3.16,3.16,0,0,1,3.16,3.17h0a3.16,3.16,0,0,1-3.16,3.17H153.37a3.17,3.17,0,0,1-3.17-3.17h0A3.17,3.17,0,0,1,153.37,122.47Z"/><path class="cls-16" d="M153.37,132h38.16a3.16,3.16,0,0,1,3.16,3.17h0a3.16,3.16,0,0,1-3.16,3.17H153.37a3.17,3.17,0,0,1-3.17-3.17h0A3.17,3.17,0,0,1,153.37,132Z"/></g><path class="cls-17" d="M79.21,120.66l-19.88,12.1V143c0,1.51,1.8,2.74,4,2.74h67.9c2.16,0,4-1.23,4-2.74V129.45l-14.69-15.7L96.77,133.62l-17.71-13Z"/><circle class="cls-18" cx="97.49" cy="117.06" r="4.46"/><g id="_673726616" data-name=" 673726616"><circle class="cls-19" cx="68.33" cy="29.45" r="17.21"/><path class="cls-20" d="M82.73,29.88a17.47,17.47,0,0,1-6.33,5.33,17.73,17.73,0,0,1-16.13,0,18.31,18.31,0,0,1-6.34-5.33.66.66,0,0,1,0-.79,17.49,17.49,0,0,1,6.34-5.33,17.92,17.92,0,0,1,22.46,5.33A.63.63,0,0,1,82.73,29.88Zm-6.91,4.18a15.68,15.68,0,0,0,5.55-4.61,18.2,18.2,0,0,0-5.55-4.61A16.21,16.21,0,0,0,68.33,23a16.63,16.63,0,0,0-7.48,1.8,15.58,15.58,0,0,0-5.55,4.61,18.23,18.23,0,0,0,5.55,4.61,16.2,16.2,0,0,0,7.48,1.8A16.64,16.64,0,0,0,75.82,34.06Z"/><circle class="cls-20" cx="68.33" cy="29.45" r="4.75"/></g><g id="_675386200" data-name=" 675386200"><circle class="cls-21" cx="38.09" cy="220.1" r="17.21"/><path class="cls-22" d="M44.57,226.44v1.44h-10v-1.8a2.07,2.07,0,0,1-1.44-1.44l-2.88-8.35c-.94-2.67,2.52-2.38,3.52.43l.36,1c.65,2.16.94,0,.94-1V209.3a1.36,1.36,0,0,1,1.44-1.22h0A1.36,1.36,0,0,1,38,209.3v5c0-.5.07-1.22,1.37-1.22a1.09,1.09,0,0,1,1.15,1.15v1.08c0-.65.36-1.22,1.37-1.22,1.87,0,1.29,2.08,1.37,2.37,0-.57.57-.93,1.29-.93s1.59.57,1.59,1.22v4.1c0,1.66.28,4.76-1.44,5.55Z"/><rect class="cls-20" x="33.63" y="228.67" width="11.81" height="3.38" rx="0.36"/></g><line class="cls-23" x1="52.78" y1="205.63" x2="77.05" y2="188.57"/><line class="cls-23" x1="80.86" y1="46.73" x2="87.13" y2="54.07"/><path class="cls-2" d="M219.17,185c9.65.43,26.21-10.37,18.44-27.51-5.69-12.52-22.47,4.54-4.83,3.46,16.85-1.08,14.33-41.9-16.13-52.49"/><g id="_675383776" data-name=" 675383776"><circle class="cls-24" cx="211.33" cy="220.1" r="17.21"/><path class="cls-22" d="M205.85,218a12.94,12.94,0,0,1,.22-3.74,7.14,7.14,0,0,1,1.3-2.59,6.77,6.77,0,0,1,1-1,4.38,4.38,0,0,1,1.16-.79,6.76,6.76,0,0,1,7.41.86,4.35,4.35,0,0,1,.94,1,6.65,6.65,0,0,1,1.08,6.12c-.29.86-2,4.39-2.45,5.4-.86,1.8-1.58,3.6-2.45,5.4a5.32,5.32,0,0,1-1.58,2.38,4.21,4.21,0,0,1-5.11.07,3.5,3.5,0,0,1-.51-.51,4.57,4.57,0,0,1-.79-1.15,6,6,0,0,1-.36-1.58v-.07a.51.51,0,1,0-1,0v.07a6,6,0,0,0,.58,2.37,5.18,5.18,0,0,0,9.36-.43c.93-2.09,1.94-4.25,2.88-6.33.07-.22.07-.36.29-.44,1.51-.43,1.72-1.58,2.37-3a8.88,8.88,0,0,0-.72-9.5A7.85,7.85,0,0,0,218,209a8.87,8.87,0,0,0-9.36-1.08,9,9,0,0,0-5,7.35c-.07.93,0,2,0,3a6.85,6.85,0,0,0,.29,2.74,3.11,3.11,0,0,0,1.44,1.58,4.34,4.34,0,0,0,2.59.51,2.56,2.56,0,0,0,2.23-3.53,2.76,2.76,0,0,0-1.51-1.51,12.85,12.85,0,0,0-2.95-.15Z"/><path class="cls-22" d="M210.61,217.51a4.13,4.13,0,0,1-2.67,7.27h-.07a.51.51,0,0,0,0,1h.07a5.13,5.13,0,0,0,5.11-4.9,4.32,4.32,0,0,0-.36-2.16,5,5,0,0,0-4.82-3.31.51.51,0,0,0,0,1,4.29,4.29,0,0,1,2.74,1Zm1.36-6.7a5.26,5.26,0,0,1,5.55,6.63,10.66,10.66,0,0,1-.65,1.58c-1.08,2.38-2.16,4.75-3.24,7.06-.07.21-.22.43-.29.65a.63.63,0,0,1-.5.43.5.5,0,0,1-.51-.51.38.38,0,0,1,.08-.28l3.6-7.92a5.41,5.41,0,0,0,.72-3.1,4.15,4.15,0,0,0-4.18-3.53c-.79,0-1-.21-1-.5s.07-.51.58-.51Z"/></g><g id="_675382192" data-name=" 675382192"><circle class="cls-25" cx="190.16" cy="17.21" r="17.21"/><path class="cls-20" d="M194.19,22.82a1.21,1.21,0,0,1,2.09,1.23A9.13,9.13,0,0,1,193,27.36h0a8.88,8.88,0,0,1-4.47,1.22A9,9,0,0,1,182.17,26a8.85,8.85,0,0,1-2.6-6.33,8.7,8.7,0,0,1,1.23-4.47h0a9.06,9.06,0,0,1,3.31-3.31A1.21,1.21,0,1,1,185.33,14,6.81,6.81,0,0,0,183,16.34h0a6.22,6.22,0,0,0-.87,3.24A6.28,6.28,0,0,0,184,24.19a6.61,6.61,0,0,0,4.61,1.95,6.22,6.22,0,0,0,3.24-.87h0a6.27,6.27,0,0,0,2.37-2.37Z"/><path class="cls-20" d="M187.28,10.44a1.23,1.23,0,0,1,2.45,0v7.92h6.55a1.12,1.12,0,0,1,1.08.72L200,23.62l1.51-.87a1.21,1.21,0,0,1,1.23,2.09l-2.6,1.51h0a1.19,1.19,0,0,1-1.65-.43l-2.88-5H188.5a1.26,1.26,0,0,1-1.22-1.22V10.44Z"/><path class="cls-20" d="M188.5,14.54a1.22,1.22,0,1,1,0-2.44h5.91a1.22,1.22,0,0,1,0,2.44Z"/><circle class="cls-20" cx="188.5" cy="6.05" r="2.3"/></g><line class="cls-23" x1="182.89" y1="190.22" x2="195.85" y2="203.18"/><line class="cls-23" x1="183.53" y1="36.79" x2="177.85" y2="54.72"/><g id="_675379624" data-name=" 675379624"><path class="cls-26" d="M47.67,69.19l1-.65,1-.64a.44.44,0,0,1,.64.07c.08.07.15.14.15.21h0v2.74c0,.22-.22.36-.51.36s-.28-.07-.36-.07l-1-.65-1-.65a.3.3,0,0,1-.07-.5l.07-.07Z"/><rect class="cls-13" x="49.83" y="68.62" width="1.73" height="1.66" rx="0.43"/><path class="cls-26" d="M58.54,69.19l-1-.65-1-.64a.45.45,0,0,0-.65.07c-.07.07-.15.14-.15.21h0v2.74c0,.22.22.36.51.36a3.29,3.29,0,0,0,.36-.07l1-.65,1-.65a.31.31,0,0,0,.08-.5l-.08-.07Z"/><rect class="cls-13" x="54.65" y="68.62" width="1.73" height="1.66" rx="0.43"/></g><g id="_675378712" data-name=" 675378712"><path class="cls-13" d="M62.72,70.27a.32.32,0,0,1,.36.07.32.32,0,0,1-.07.36,1.43,1.43,0,0,1-1.08.15,1.56,1.56,0,0,1-.87-.65,1.47,1.47,0,0,1-.14-1.08,1.51,1.51,0,0,1,.65-.86,1.43,1.43,0,0,1,1.08-.15,1.54,1.54,0,0,1,.86.65.32.32,0,0,1-.07.36.32.32,0,0,1-.36-.07,1.1,1.1,0,0,0-.58-.43,1.2,1.2,0,0,0-.72.07,1.13,1.13,0,0,0-.43.57,1.27,1.27,0,0,0,.07.72,1.18,1.18,0,0,0,.58.44,1.21,1.21,0,0,0,.72-.08Z"/><path class="cls-26" d="M63.8,69.62v-.86c0-.07-.07-.14-.15-.22h-.07l-.36.22-.36.22c-.07,0-.07.14,0,.21a.07.07,0,0,0,.07.07l.36.22.36.22c.08.07.15,0,.15-.08Z"/></g><g id="_675378328" data-name=" 675378328"><path class="cls-26" d="M68,67.9l.65.64.65.65c.14.15.14.36-.07.43a.26.26,0,0,1-.22.08H66.25a.33.33,0,0,1-.36-.29c0-.07.07-.15.07-.22l.65-.65.64-.64a.35.35,0,0,1,.51,0H68Z"/><path class="cls-26" d="M67.11,68.9h1.15a.57.57,0,0,1,.58.58v1.15a.57.57,0,0,1-.58.58h-.14v-.72a.19.19,0,0,0-.22-.22h-.43a.2.2,0,0,0-.22.22v.72h-.14a.57.57,0,0,1-.58-.58V69.48A.57.57,0,0,1,67.11,68.9Z"/></g></g></g></g></svg>