<svg xmlns="http://www.w3.org/2000/svg" xmlns:xlink="http://www.w3.org/1999/xlink" viewBox="0 0 276.95 229.94"><defs><style>.cls-1,.cls-18{fill:#d5e2f5;}.cls-1,.cls-11,.cls-12,.cls-20,.cls-22,.cls-23,.cls-27,.cls-28,.cls-29,.cls-30,.cls-5,.cls-6,.cls-7{fill-rule:evenodd;}.cls-13,.cls-14,.cls-15,.cls-16,.cls-17,.cls-2{fill:none;}.cls-2{stroke:#ffabc7;stroke-dasharray:9.6 5.76;}.cls-13,.cls-2{stroke-miterlimit:10;}.cls-14,.cls-2{stroke-width:1.92px;}.cls-3{fill:url(#linear-gradient);}.cls-4{fill:url(#linear-gradient-2);}.cls-19,.cls-5{fill:#f3f0ff;}.cls-6{fill:url(#linear-gradient-3);}.cls-21,.cls-7{fill:#60fcfc;}.cls-8{fill:#749fdb;}.cls-9{fill:url(#linear-gradient-4);}.cls-10,.cls-30{fill:#ff8d29;}.cls-11{fill:url(#linear-gradient-5);}.cls-12{fill:url(#linear-gradient-6);}.cls-13{stroke:#f3f0ff;stroke-width:1.2px;}.cls-14{stroke:#1f1f1f;}.cls-14,.cls-15,.cls-16,.cls-17{stroke-linecap:round;stroke-linejoin:round;}.cls-15{stroke:#d1415b;}.cls-15,.cls-16,.cls-17{stroke-width:2.4px;}.cls-16{stroke:#634ec9;}.cls-17{stroke:#ff8d29;}.cls-20{fill:url(#linear-gradient-7);}.cls-22{fill:url(#linear-gradient-8);}.cls-23{fill:#b9afe0;}.cls-24{fill:#df75ff;}.cls-25{fill:#634ec9;}.cls-26,.cls-28{fill:#d1415b;}.cls-27{fill:url(#linear-gradient-9);}.cls-29{fill:url(#linear-gradient-10);}.cls-31{fill:#882fa3;}</style><linearGradient id="linear-gradient" x1="7887.66" y1="-8262.64" x2="7887.66" y2="-8564.84" gradientTransform="matrix(0.07, 0, 0, -0.07, -420.22, -418.18)" gradientUnits="userSpaceOnUse"><stop offset="0" stop-color="#634ec9"/><stop offset="1" stop-color="#749fdb"/></linearGradient><linearGradient id="linear-gradient-2" x1="7403.93" y1="-8084.87" x2="8371.9" y2="-6470.75" gradientTransform="matrix(0.07, 0, 0, -0.07, -420.22, -418.18)" gradientUnits="userSpaceOnUse"><stop offset="0" stop-color="#7e67f0"/><stop offset="1" stop-color="#634ec9"/></linearGradient><linearGradient id="linear-gradient-3" x1="7793.32" y1="-8440.17" x2="7960.61" y2="-7659.5" gradientTransform="matrix(0.07, 0, 0, -0.07, -420.22, -418.18)" gradientUnits="userSpaceOnUse"><stop offset="0" stop-color="#60fcfc"/><stop offset="1" stop-color="#749fdb"/></linearGradient><linearGradient id="linear-gradient-4" x1="8027.83" y1="-8676.02" x2="7747.58" y2="-8776.45" xlink:href="#linear-gradient-3"/><linearGradient id="linear-gradient-5" x1="7238.29" y1="-7587.77" x2="6864.05" y2="-7160.87" xlink:href="#linear-gradient-2"/><linearGradient id="linear-gradient-6" x1="7567.79" y1="-6787.86" x2="7103.86" y2="-7210.54" gradientTransform="matrix(0.07, 0, 0, -0.07, -420.22, -418.18)" gradientUnits="userSpaceOnUse"><stop offset="0" stop-color="#fc6094"/><stop offset="1" stop-color="#d1415b"/></linearGradient><linearGradient id="linear-gradient-7" x1="6826.99" y1="-8667.15" x2="6598.36" y2="-9098.6" gradientTransform="matrix(0.07, 0, 0, -0.07, -420.22, -418.18)" gradientUnits="userSpaceOnUse"><stop offset="0" stop-color="#749fdb"/><stop offset="1" stop-color="#60fcfc"/></linearGradient><linearGradient id="linear-gradient-8" x1="6928.14" y1="-8271.51" x2="6512.83" y2="-8322.04" gradientTransform="matrix(0.07, 0, 0, -0.07, -420.22, -418.18)" gradientUnits="userSpaceOnUse"><stop offset="0" stop-color="#d1415b"/><stop offset="1" stop-color="#fc6094"/></linearGradient><linearGradient id="linear-gradient-9" x1="6719.66" y1="-7462.93" x2="6719.66" y2="-7552.93" gradientTransform="matrix(0.07, 0, 0, -0.07, -420.22, -418.18)" gradientUnits="userSpaceOnUse"><stop offset="0" stop-color="#634ec9"/><stop offset="1" stop-color="#7e67f0"/></linearGradient><linearGradient id="linear-gradient-10" x1="7888.16" y1="-6219.28" x2="7888.16" y2="-6484.55" gradientTransform="matrix(0.07, 0, 0, -0.07, -420.22, -418.18)" gradientUnits="userSpaceOnUse"><stop offset="0" stop-color="#882fa3"/><stop offset="1" stop-color="#d1415b"/></linearGradient></defs><g id="Layer_2" data-name="Layer 2"><g id="Layer_1-2" data-name="Layer 1"><g id="Layer_1-3" data-name="Layer_1"><path class="cls-1" d="M130.3,25.82C179.69-71.67,364,134.68,219.36,185.73c-27.36,9.65-53.21-6-96.05,33C80.19,257.94-31.85,171.4,8.69,102.28c35.78-61,83.23-.65,121.54-76.46Z"/><path class="cls-2" d="M29.5,106.1C-16,60.81,46.71-17.6,108.77,20.71"/><path class="cls-2" d="M204.31,225.18c18.29,8.79,60.55.58,59-27.28-1.08-20.31-33.48-5.76-8.49,2.16,23.83,7.56,31.1-60.05,2.8-82"/><rect class="cls-3" x="124.97" y="166.65" width="45.43" height="41.83" rx="2.3"/><rect class="cls-4" x="47.14" y="29.63" width="201.09" height="152.42" rx="8.35"/><path class="cls-5" d="M248.23,37.91V173.63a8.35,8.35,0,0,1-8.35,8.35H55.49a8.35,8.35,0,0,1-8.35-8.35V37.91Z"/><path class="cls-6" d="M239.88,149.44H55.49a8.35,8.35,0,0,1-8.35-8.35v32.54A8.35,8.35,0,0,0,55.49,182H239.88a8.35,8.35,0,0,0,8.35-8.35V141.09A8.35,8.35,0,0,1,239.88,149.44Z"/><path class="cls-7" d="M147.72,156.06a9.65,9.65,0,1,1-9.65,9.65A9.65,9.65,0,0,1,147.72,156.06Z"/><path class="cls-8" d="M147.72,155.34a10.35,10.35,0,1,1-7.34,3A10.38,10.38,0,0,1,147.72,155.34Zm6.34,4.11a8.91,8.91,0,0,0-6.34-2.59,9.12,9.12,0,0,0-6.33,2.59,8.88,8.88,0,0,0-2.6,6.33,9.17,9.17,0,0,0,2.6,6.34,8.91,8.91,0,0,0,6.33,2.59,9.2,9.2,0,0,0,6.34-2.59,8.93,8.93,0,0,0,2.59-6.34A9.18,9.18,0,0,0,154.06,159.45Z"/><rect class="cls-9" x="88.9" y="205.31" width="117.57" height="9.58" rx="3.82"/><circle class="cls-10" cx="92.21" cy="93.71" r="34.63"/><path class="cls-11" d="M92.21,93.71,62.26,111a34.6,34.6,0,0,0,54.43,7.13L92.21,93.64Z"/><path class="cls-12" d="M92.21,93.71l25.63,25.64A36.25,36.25,0,0,0,92.21,57.5Z"/><polyline class="cls-13" points="92.21 57.43 92.21 93.71 118.06 119.13"/><g id="_670725760" data-name=" 670725760"><polyline class="cls-14" points="137.93 55.41 137.93 131.94 238.59 131.94"/><path class="cls-15" d="M142.47,114.16c25.2-17.85,23.47-7.27,44.35,1.8,5,2.16,13.39-1.58,16.2-9.65,10.51-30.6,32.9-19.94,34.77-35.56"/><path class="cls-16" d="M142.47,119.06c23.47-11.38,29.66,17.85,44.13-4.18,12.46-19,28.44-4,37-4,7.2,0,13.25-7.77,14-15.33"/><path class="cls-17" d="M142.47,106.39c11.16-10.23,23.83-17.07,37.58-15.34,18.22,2.3,26.93,21,38.66,26.35,6.91,3.17,16.71.72,19.3-7.85"/></g><g id="_671117720" data-name=" 671117720"><path class="cls-18" d="M93.72,116.83H33.6a6.07,6.07,0,0,0-2,.36,14,14,0,0,1,1.29,3.52,5.41,5.41,0,0,1,.29,1.08.93.93,0,0,1,.43-.07H93.72a1.24,1.24,0,0,1,.87.36h0A1.38,1.38,0,0,1,95,123v61.91a12.05,12.05,0,0,1,4.82-.14V123a6.11,6.11,0,0,0-6.12-6.12Z"/><rect class="cls-19" x="29.86" y="119.13" width="67.54" height="110.74" rx="3.67"/><path class="cls-20" d="M33.6,217.41H93.72a3.83,3.83,0,0,0,3.67-3.89v12.53a3.78,3.78,0,0,1-3.67,3.89H33.6a3.83,3.83,0,0,1-3.67-3.89V213.52A3.79,3.79,0,0,0,33.6,217.41Z"/><circle class="cls-21" cx="63.63" cy="223.67" r="3.82"/><path class="cls-8" d="M63.63,219.35a4.57,4.57,0,0,0-3,1.23,4.12,4.12,0,0,0-1.22,3,4.56,4.56,0,0,0,1.22,3h0a4.1,4.1,0,0,0,3,1.23,4.57,4.57,0,0,0,3-1.23h0a4.12,4.12,0,0,0,1.22-3,4.56,4.56,0,0,0-1.22-3A4.09,4.09,0,0,0,63.63,219.35Zm-2.38,1.87a3.46,3.46,0,0,1,2.38-1,3.16,3.16,0,0,1,2.37,1,3.43,3.43,0,0,1,1,2.38A3.15,3.15,0,0,1,66,226h0a3.44,3.44,0,0,1-2.37,1,3.18,3.18,0,0,1-2.38-1,3.43,3.43,0,0,1-1-2.38A3.15,3.15,0,0,1,61.25,221.22Z"/><path class="cls-22" d="M43.18,176.73h41a2.44,2.44,0,0,1,2.44,2.45h0a2.44,2.44,0,0,1-2.44,2.44h-41a2.45,2.45,0,0,1-2.45-2.44h0A2.45,2.45,0,0,1,43.18,176.73Z"/><path class="cls-23" d="M52.11,184.79H85a1.57,1.57,0,0,1,1.58,1.55h0A1.56,1.56,0,0,1,85,187.89H52.11a1.57,1.57,0,0,1-1.59-1.55h0A1.57,1.57,0,0,1,52.11,184.79Z"/><rect class="cls-24" x="76.08" y="155.85" width="7.13" height="12.89" rx="0.36"/><rect class="cls-10" x="65.43" y="148.94" width="7.13" height="19.8" rx="0.36"/><rect class="cls-25" x="54.77" y="153.76" width="7.13" height="14.98" rx="0.36"/><rect class="cls-26" x="44.11" y="141.52" width="7.13" height="27.22" rx="0.36"/><polyline class="cls-14" points="39.51 133.31 39.51 171.54 89.76 171.54"/><path class="cls-23" d="M42.31,191H85a1.57,1.57,0,0,1,1.58,1.55h0A1.56,1.56,0,0,1,85,194.08H42.31a1.56,1.56,0,0,1-1.58-1.55h0A1.57,1.57,0,0,1,42.31,191Z"/><path class="cls-23" d="M42.31,197.25H85a1.56,1.56,0,0,1,1.58,1.55h0A1.56,1.56,0,0,1,85,200.34H42.31a1.56,1.56,0,0,1-1.58-1.54h0A1.56,1.56,0,0,1,42.31,197.25Z"/><path class="cls-23" d="M42.31,203.51H85a1.57,1.57,0,0,1,1.58,1.55h0A1.56,1.56,0,0,1,85,206.61H42.31a1.56,1.56,0,0,1-1.58-1.55h0A1.57,1.57,0,0,1,42.31,203.51Z"/><path class="cls-23" d="M42.31,209.7H77.09a1.57,1.57,0,0,1,1.58,1.55h0a1.56,1.56,0,0,1-1.58,1.55H42.31a1.56,1.56,0,0,1-1.58-1.55h0A1.57,1.57,0,0,1,42.31,209.7Z"/><path class="cls-27" d="M47.14,125.61H97.39V122.8a3.69,3.69,0,0,0-3.67-3.67H33.53a5.71,5.71,0,0,0-1.08.14,3.73,3.73,0,0,0-2.66,3.53v2.81H47.14Z"/><path class="cls-28" d="M91.27,120.79H94.8a.41.41,0,0,1,.43.39h0a.41.41,0,0,1-.43.4H91.27a.42.42,0,0,1-.43-.4h0A.41.41,0,0,1,91.27,120.79Z"/><path class="cls-28" d="M91.27,122H94.8a.41.41,0,0,1,.43.4h0a.41.41,0,0,1-.43.39H91.27a.42.42,0,0,1-.43-.39h0A.42.42,0,0,1,91.27,122Z"/><path class="cls-28" d="M91.27,123.16H94.8a.41.41,0,0,1,.43.4h0a.41.41,0,0,1-.43.39H91.27a.41.41,0,0,1-.43-.39h0A.42.42,0,0,1,91.27,123.16Z"/></g><g id="_671127968" data-name=" 671127968"><path class="cls-29" d="M123.53,37.7v-4a4,4,0,0,0-4-4H89.76a4,4,0,0,0-4,4v4H47.21v11h201v-11H123.53Z"/><rect class="cls-19" x="82.2" y="40.58" width="150.77" height="5.33" rx="1.58"/><path class="cls-30" d="M50.67,42.88l1.22-.79,1.22-.79a.65.65,0,0,1,.8.07.56.56,0,0,1,.14.29h0v3.17c0,.21-.29.43-.58.43a1,1,0,0,1-.43-.15l-1.22-.79-1.23-.79a.35.35,0,0,1-.07-.58.07.07,0,0,0,.07-.07Z"/><rect class="cls-10" x="53.26" y="42.23" width="2.02" height="2.02" rx="0.5"/><path class="cls-30" d="M63.63,42.88l-1.23-.79-1.22-.79a.64.64,0,0,0-.79.07.51.51,0,0,0-.15.29h0v3.17c0,.21.29.43.58.43a.93.93,0,0,0,.43-.15l1.22-.79,1.23-.79c.21-.14.29-.43.07-.58a.07.07,0,0,1-.07-.07Z"/><rect class="cls-10" x="59.02" y="42.23" width="2.02" height="2.02" rx="0.5"/><path class="cls-10" d="M68.59,44.18a.36.36,0,0,1,.44.14.34.34,0,0,1-.15.43,1.64,1.64,0,0,1-1.29.15,1.58,1.58,0,0,1-1-.79,1.67,1.67,0,0,1-.15-1.3,1.61,1.61,0,0,1,.8-1,1.63,1.63,0,0,1,1.29-.14,1.6,1.6,0,0,1,1,.79.35.35,0,0,1-.14.43.36.36,0,0,1-.44-.14.93.93,0,0,0-.64-.51,1,1,0,0,0-.8.08A.92.92,0,0,0,67,43a1,1,0,0,0,.07.8.94.94,0,0,0,.65.5,1,1,0,0,0,.79-.07Z"/><path class="cls-30" d="M69.89,43.39v-1c0-.07-.07-.22-.14-.22h-.08l-.43.29-.43.29a.13.13,0,0,0,0,.21.07.07,0,0,0,.07.08l.43.21.44.22c.07.07.14,0,.21-.07h-.07Z"/><path class="cls-30" d="M74.86,41.3l.79.79.79.79a.31.31,0,0,1-.07.51.45.45,0,0,1-.29.07H72.91a.41.41,0,0,1-.43-.36.51.51,0,0,1,.15-.29l.79-.79.79-.79a.56.56,0,0,1,.58-.08l.07.08Z"/><path class="cls-30" d="M73.85,42.52h1.37a.72.72,0,0,1,.72.72v1.37a.72.72,0,0,1-.72.72H75v-.94a.3.3,0,0,0-.29-.28h-.5a.31.31,0,0,0-.29.28v.94h-.21a.72.72,0,0,1-.72-.72V43.24a.72.72,0,0,1,.72-.72Z"/><circle class="cls-31" cx="59.09" cy="33.81" r="1.66"/><circle class="cls-31" cx="64.06" cy="33.81" r="1.66"/><circle class="cls-31" cx="69.1" cy="33.81" r="1.66"/></g></g></g></g></svg>