<svg xmlns="http://www.w3.org/2000/svg" xmlns:xlink="http://www.w3.org/1999/xlink" viewBox="0 0 703.76 545.22"><defs><style>.cls-1{fill:url(#linear-gradient);}.cls-2{fill:#fbe1e1;}.cls-10,.cls-102,.cls-104,.cls-108,.cls-11,.cls-110,.cls-111,.cls-112,.cls-114,.cls-115,.cls-116,.cls-117,.cls-118,.cls-119,.cls-12,.cls-120,.cls-121,.cls-122,.cls-123,.cls-124,.cls-125,.cls-126,.cls-127,.cls-128,.cls-129,.cls-13,.cls-130,.cls-131,.cls-132,.cls-133,.cls-134,.cls-135,.cls-136,.cls-137,.cls-138,.cls-139,.cls-14,.cls-140,.cls-141,.cls-142,.cls-143,.cls-144,.cls-145,.cls-146,.cls-147,.cls-148,.cls-149,.cls-15,.cls-150,.cls-151,.cls-152,.cls-153,.cls-154,.cls-155,.cls-156,.cls-157,.cls-158,.cls-159,.cls-16,.cls-160,.cls-161,.cls-162,.cls-163,.cls-164,.cls-17,.cls-18,.cls-19,.cls-2,.cls-20,.cls-21,.cls-22,.cls-23,.cls-24,.cls-25,.cls-26,.cls-27,.cls-3,.cls-31,.cls-32,.cls-33,.cls-37,.cls-39,.cls-4,.cls-40,.cls-46,.cls-49,.cls-5,.cls-50,.cls-51,.cls-52,.cls-53,.cls-54,.cls-55,.cls-57,.cls-58,.cls-6,.cls-61,.cls-62,.cls-63,.cls-64,.cls-65,.cls-7,.cls-70,.cls-73,.cls-74,.cls-76,.cls-79,.cls-8,.cls-80,.cls-81,.cls-82,.cls-83,.cls-84,.cls-85,.cls-86,.cls-87,.cls-88,.cls-9,.cls-91,.cls-94,.cls-95,.cls-96,.cls-97,.cls-98,.cls-99{fill-rule:evenodd;}.cls-3{fill:gray;}.cls-4{fill:url(#linear-gradient-2);}.cls-5{fill:url(#linear-gradient-3);}.cls-6{fill:url(#linear-gradient-4);}.cls-7{fill:url(#linear-gradient-5);}.cls-8{fill:url(#linear-gradient-6);}.cls-9{fill:url(#linear-gradient-7);}.cls-10{fill:url(#linear-gradient-8);}.cls-11{fill:url(#linear-gradient-9);}.cls-12{fill:url(#linear-gradient-10);}.cls-13{fill:url(#linear-gradient-11);}.cls-14{fill:url(#linear-gradient-12);}.cls-15{fill:url(#linear-gradient-13);}.cls-16{fill:url(#linear-gradient-14);}.cls-17{fill:url(#linear-gradient-15);}.cls-18{fill:url(#linear-gradient-16);}.cls-19{fill:url(#linear-gradient-17);}.cls-20{fill:url(#linear-gradient-18);}.cls-21{fill:url(#linear-gradient-19);}.cls-22{fill:url(#linear-gradient-20);}.cls-23{fill:url(#linear-gradient-21);}.cls-24{fill:url(#linear-gradient-22);}.cls-25{fill:url(#linear-gradient-23);}.cls-26{fill:url(#linear-gradient-24);}.cls-27{fill-opacity:0.3;}.cls-28,.cls-69,.cls-71,.cls-72{fill:none;}.cls-28{stroke:#7e67f0;stroke-width:1.92px;stroke-dasharray:9.6 5.76;}.cls-28,.cls-69,.cls-71{stroke-miterlimit:10;}.cls-29{fill:url(#linear-gradient-25);}.cls-30,.cls-40{fill:#f3f0ff;}.cls-31{fill:#7861e6;}.cls-32{fill:url(#linear-gradient-26);}.cls-33{fill:#60fcfc;}.cls-34{fill:#749fdb;}.cls-35{fill:url(#linear-gradient-27);}.cls-36{fill:url(#linear-gradient-28);}.cls-37{fill:#fed3a6;}.cls-38,.cls-80{fill:#dedaed;}.cls-39{fill:url(#linear-gradient-29);}.cls-41{fill:url(#linear-gradient-30);}.cls-42{fill:url(#linear-gradient-31);}.cls-43{fill:url(#linear-gradient-32);}.cls-44{fill:url(#linear-gradient-33);}.cls-45{fill:url(#linear-gradient-34);}.cls-46{fill:#ffbdb0;}.cls-47{fill:url(#linear-gradient-35);}.cls-48{fill:url(#linear-gradient-36);}.cls-49{fill:#7e67f0;}.cls-50{fill:#514491;}.cls-51{fill:url(#linear-gradient-37);}.cls-52{fill:url(#linear-gradient-38);}.cls-53{fill:url(#linear-gradient-39);}.cls-54{fill:url(#linear-gradient-40);}.cls-55,.cls-56{fill:#dda8fa;}.cls-57{fill:url(#linear-gradient-41);}.cls-58{fill:url(#linear-gradient-42);}.cls-59{fill:url(#linear-gradient-43);}.cls-60{fill:url(#linear-gradient-44);}.cls-61{fill:url(#linear-gradient-45);}.cls-62{fill:url(#linear-gradient-46);}.cls-63{fill:url(#linear-gradient-47);}.cls-64{fill:url(#linear-gradient-48);}.cls-65{fill:url(#linear-gradient-49);}.cls-66{fill:url(#linear-gradient-50);}.cls-67{fill:url(#linear-gradient-51);}.cls-68{fill:url(#linear-gradient-52);}.cls-69{stroke:#9681a6;stroke-width:2.4px;}.cls-70{fill:url(#linear-gradient-53);}.cls-71,.cls-72{stroke:#6a68a3;stroke-width:4.8px;}.cls-72{stroke-linecap:round;stroke-linejoin:round;}.cls-73{fill:url(#linear-gradient-54);}.cls-74{fill:url(#linear-gradient-55);}.cls-75{fill:#6a68a3;}.cls-76{fill:#fff;}.cls-77{fill:url(#linear-gradient-56);}.cls-78{fill:url(#linear-gradient-57);}.cls-79{fill:url(#linear-gradient-58);}.cls-81{fill:#e03a3a;}.cls-82{fill:#fcd361;}.cls-83{fill:#4d4d4d;}.cls-84{fill:#333;}.cls-85{fill:url(#linear-gradient-59);}.cls-86{fill:url(#linear-gradient-60);}.cls-87{fill:url(#linear-gradient-61);}.cls-88{fill:url(#linear-gradient-62);}.cls-89{fill:url(#linear-gradient-63);}.cls-90{fill:url(#linear-gradient-64);}.cls-91{fill:#633e2f;}.cls-92{fill:url(#linear-gradient-65);}.cls-93{fill:url(#linear-gradient-66);}.cls-94{fill:url(#linear-gradient-67);}.cls-95{fill:url(#linear-gradient-68);}.cls-96{fill:url(#linear-gradient-69);}.cls-97{fill:url(#linear-gradient-70);}.cls-98{fill:#333163;}.cls-99{fill:url(#linear-gradient-71);}.cls-100{fill:url(#linear-gradient-72);}.cls-101{fill:url(#linear-gradient-73);}.cls-102{fill:#a68ef5;}.cls-103{mask:url(#mask);}.cls-104{fill:url(#linear-gradient-74);}.cls-105{fill:url(#linear-gradient-75);}.cls-106{fill:url(#linear-gradient-76);}.cls-107{fill:#acd4f1;}.cls-108{fill:url(#linear-gradient-77);}.cls-109{fill:#f9cad1;}.cls-110{fill:#b3b3b3;}.cls-111{fill:url(#linear-gradient-78);}.cls-112{fill:url(#linear-gradient-79);}.cls-113{fill:#e6e6e6;}.cls-114{fill:url(#linear-gradient-80);}.cls-115{fill:url(#linear-gradient-81);}.cls-116{fill:url(#linear-gradient-82);}.cls-117{fill:url(#linear-gradient-83);}.cls-118{fill:url(#linear-gradient-84);}.cls-119{fill:url(#linear-gradient-85);}.cls-120{fill:url(#linear-gradient-86);}.cls-121{fill:url(#linear-gradient-87);}.cls-122{fill:url(#linear-gradient-88);}.cls-123{fill:url(#linear-gradient-89);}.cls-124{fill:url(#linear-gradient-90);}.cls-125{fill:url(#linear-gradient-91);}.cls-126{fill:url(#linear-gradient-92);}.cls-127{fill:url(#linear-gradient-93);}.cls-128{fill:url(#linear-gradient-94);}.cls-129{fill:url(#linear-gradient-95);}.cls-130{fill:url(#linear-gradient-96);}.cls-131{fill:url(#linear-gradient-97);}.cls-132{fill:url(#linear-gradient-98);}.cls-133{fill:url(#linear-gradient-99);}.cls-134{fill:url(#linear-gradient-100);}.cls-135{fill:url(#linear-gradient-101);}.cls-136{fill:url(#linear-gradient-102);}.cls-137{fill:url(#linear-gradient-103);}.cls-138{fill:url(#linear-gradient-104);}.cls-139{fill:url(#linear-gradient-105);}.cls-140{fill:url(#linear-gradient-106);}.cls-141{fill:url(#linear-gradient-107);}.cls-142{fill:url(#linear-gradient-108);}.cls-143{fill:url(#linear-gradient-109);}.cls-144{fill:url(#linear-gradient-110);}.cls-145{fill:url(#linear-gradient-111);}.cls-146{fill:url(#linear-gradient-112);}.cls-147{fill:url(#linear-gradient-113);}.cls-148{fill:url(#linear-gradient-114);}.cls-149{fill:url(#linear-gradient-115);}.cls-150{fill:url(#linear-gradient-116);}.cls-151{fill:url(#linear-gradient-117);}.cls-152{fill:url(#linear-gradient-118);}.cls-153{fill:url(#linear-gradient-119);}.cls-154{fill:url(#linear-gradient-120);}.cls-155{fill:url(#linear-gradient-121);}.cls-156{fill:url(#linear-gradient-122);}.cls-157{fill:url(#linear-gradient-123);}.cls-158{fill:url(#linear-gradient-124);}.cls-159{fill:url(#linear-gradient-125);}.cls-160{fill:url(#linear-gradient-126);}.cls-161{fill:url(#linear-gradient-127);}.cls-162{fill:url(#linear-gradient-128);}.cls-163{fill:url(#linear-gradient-129);}.cls-164{fill:url(#linear-gradient-130);}</style><linearGradient id="linear-gradient" x1="2509.39" y1="-700.3" x2="2737.83" y2="-461.27" gradientTransform="matrix(0.07, 0, 0, -0.07, -89.51, 20.38)" gradientUnits="userSpaceOnUse"><stop offset="0" stop-color="#fff"/><stop offset="0.12" stop-color="#fff" stop-opacity="0.5"/><stop offset="1" stop-color="#fff" stop-opacity="0"/></linearGradient><linearGradient id="linear-gradient-2" x1="8167.39" y1="-5531.39" x2="8595.1" y2="-6144.86" gradientTransform="matrix(0.07, 0, 0, -0.07, -89.51, 20.38)" gradientUnits="userSpaceOnUse"><stop offset="0" stop-color="#6a68a3"/><stop offset="1" stop-color="#dda8fa"/></linearGradient><linearGradient id="linear-gradient-3" x1="8454.72" y1="-5438.74" x2="8484.99" y2="-5486.58" xlink:href="#linear-gradient-2"/><linearGradient id="linear-gradient-4" x1="8556.23" y1="-5531.96" x2="8568.37" y2="-5551.18" xlink:href="#linear-gradient-2"/><linearGradient id="linear-gradient-5" x1="8556.55" y1="-5544.47" x2="8567.77" y2="-5562.23" xlink:href="#linear-gradient-2"/><linearGradient id="linear-gradient-6" x1="8500.2" y1="-5544.76" x2="8535.54" y2="-5600.61" xlink:href="#linear-gradient-2"/><linearGradient id="linear-gradient-7" x1="8460.4" y1="-5649.05" x2="8483.12" y2="-5684.97" xlink:href="#linear-gradient-2"/><linearGradient id="linear-gradient-8" x1="8442.41" y1="-5662.73" x2="8461.33" y2="-5692.65" xlink:href="#linear-gradient-2"/><linearGradient id="linear-gradient-9" x1="8445.04" y1="-5582.33" x2="8472.78" y2="-5626.18" xlink:href="#linear-gradient-2"/><linearGradient id="linear-gradient-10" x1="8375.87" y1="-5650.68" x2="8412.55" y2="-5708.65" xlink:href="#linear-gradient-2"/><linearGradient id="linear-gradient-11" x1="8287.78" y1="-5653.62" x2="8316.83" y2="-5699.55" xlink:href="#linear-gradient-2"/><linearGradient id="linear-gradient-12" x1="8215.13" y1="-5676.64" x2="8250.72" y2="-5732.88" xlink:href="#linear-gradient-2"/><linearGradient id="linear-gradient-13" x1="8180.82" y1="-5710.88" x2="8199.21" y2="-5739.94" xlink:href="#linear-gradient-2"/><linearGradient id="linear-gradient-14" x1="8130.22" y1="-5675.83" x2="8165.59" y2="-5731.72" xlink:href="#linear-gradient-2"/><linearGradient id="linear-gradient-15" x1="8069.07" y1="-5648.8" x2="8098.63" y2="-5695.51" xlink:href="#linear-gradient-2"/><linearGradient id="linear-gradient-16" x1="7979.78" y1="-5643.33" x2="8015.92" y2="-5700.46" xlink:href="#linear-gradient-2"/><linearGradient id="linear-gradient-17" x1="7924.85" y1="-5651.64" x2="7943.93" y2="-5681.78" xlink:href="#linear-gradient-2"/><linearGradient id="linear-gradient-18" x1="7905.21" y1="-5638.55" x2="7927.58" y2="-5673.9" xlink:href="#linear-gradient-2"/><linearGradient id="linear-gradient-19" x1="7921.36" y1="-5571.8" x2="7948.92" y2="-5615.36" xlink:href="#linear-gradient-2"/><linearGradient id="linear-gradient-20" x1="7863.32" y1="-5541.03" x2="7895.82" y2="-5592.38" xlink:href="#linear-gradient-2"/><linearGradient id="linear-gradient-21" x1="7925.49" y1="-5429.38" x2="7955.27" y2="-5476.44" xlink:href="#linear-gradient-2"/><linearGradient id="linear-gradient-22" x1="8265.23" y1="-5450.32" x2="8327.61" y2="-5548.92" xlink:href="#linear-gradient-2"/><linearGradient id="linear-gradient-23" x1="8078.57" y1="-5452.35" x2="8143.95" y2="-5555.68" xlink:href="#linear-gradient-2"/><linearGradient id="linear-gradient-24" x1="8102.12" y1="-5366.02" x2="8293.43" y2="-5668.37" xlink:href="#linear-gradient-2"/><linearGradient id="linear-gradient-25" x1="5730.91" y1="-5067.1" x2="5730.91" y2="-5672.63" gradientTransform="matrix(0.07, 0, 0, -0.07, -89.51, 20.38)" gradientUnits="userSpaceOnUse"><stop offset="0" stop-color="#634ec9"/><stop offset="1" stop-color="#749fdb"/></linearGradient><linearGradient id="linear-gradient-26" x1="5541.57" y1="-5422.87" x2="5876.78" y2="-3858.61" gradientTransform="matrix(0.07, 0, 0, -0.07, -89.51, 20.38)" gradientUnits="userSpaceOnUse"><stop offset="0" stop-color="#60fcfc"/><stop offset="1" stop-color="#749fdb"/></linearGradient><linearGradient id="linear-gradient-27" x1="6011.21" y1="-5895.12" x2="5449.67" y2="-6096.35" xlink:href="#linear-gradient-26"/><linearGradient id="linear-gradient-28" x1="6718.68" y1="-1988.48" x2="7864.13" y2="-2449.61" gradientTransform="matrix(0.07, 0, 0, -0.07, -89.51, 20.38)" gradientUnits="userSpaceOnUse"><stop offset="0" stop-color="#f2833f"/><stop offset="1" stop-color="#ffc957"/></linearGradient><linearGradient id="linear-gradient-29" x1="5731.41" y1="-973.25" x2="5731.41" y2="-1505.25" gradientTransform="matrix(0.07, 0, 0, -0.07, -89.51, 20.38)" gradientUnits="userSpaceOnUse"><stop offset="0" stop-color="#882fa3"/><stop offset="1" stop-color="#d1415b"/></linearGradient><linearGradient id="linear-gradient-30" x1="142.15" y1="98.88" x2="148.91" y2="98.88" gradientUnits="userSpaceOnUse"><stop offset="0" stop-color="#f26a57"/><stop offset="1" stop-color="#d23531"/></linearGradient><linearGradient id="linear-gradient-31" x1="152.15" y1="98.88" x2="158.92" y2="98.88" gradientUnits="userSpaceOnUse"><stop offset="0" stop-color="#ffcd32"/><stop offset="1" stop-color="#ee7c22"/></linearGradient><linearGradient id="linear-gradient-32" x1="162.23" y1="98.88" x2="169" y2="98.88" gradientUnits="userSpaceOnUse"><stop offset="0" stop-color="#7dc242"/><stop offset="1" stop-color="#008f4c"/></linearGradient><linearGradient id="linear-gradient-33" x1="4888.3" y1="-4479.75" x2="4610.41" y2="-4332" gradientTransform="matrix(0.07, 0, 0, -0.07, -89.51, 20.38)" gradientUnits="userSpaceOnUse"><stop offset="0" stop-color="#ffe1bd"/><stop offset="1" stop-color="#ffbdb0"/></linearGradient><linearGradient id="linear-gradient-34" x1="5133.2" y1="-4618.74" x2="4792.66" y2="-4301.29" gradientTransform="matrix(0.07, 0, 0, -0.07, -89.51, 20.38)" gradientUnits="userSpaceOnUse"><stop offset="0" stop-color="#333163"/><stop offset="1" stop-color="#6a68a3"/></linearGradient><linearGradient id="linear-gradient-35" x1="3052.07" y1="-4294.12" x2="3259.5" y2="-4009.17" xlink:href="#linear-gradient-33"/><linearGradient id="linear-gradient-36" x1="2891.6" y1="-4523.97" x2="3107.64" y2="-3942.72" gradientTransform="matrix(0.07, 0, 0, -0.07, -89.51, 20.38)" gradientUnits="userSpaceOnUse"><stop offset="0" stop-color="#b84ed9"/><stop offset="1" stop-color="#fc6094"/></linearGradient><linearGradient id="linear-gradient-37" x1="2439.02" y1="-5204.37" x2="1524.55" y2="-5659.82" gradientTransform="matrix(0.07, 0, 0, -0.07, -89.51, 20.38)" gradientUnits="userSpaceOnUse"><stop offset="0" stop-color="#0081d1"/><stop offset="1" stop-color="#c4b5ff"/></linearGradient><linearGradient id="linear-gradient-38" x1="2540" y1="-5331.96" x2="1584.47" y2="-6136.01" gradientTransform="matrix(0.07, 0, 0, -0.07, -89.51, 20.38)" gradientUnits="userSpaceOnUse"><stop offset="0" stop-color="#0081d1"/><stop offset="1" stop-color="#e6e6e6"/></linearGradient><linearGradient id="linear-gradient-39" x1="3091.01" y1="-4329.38" x2="2835.98" y2="-4640.88" xlink:href="#linear-gradient-33"/><linearGradient id="linear-gradient-40" x1="4876.93" y1="-2926.36" x2="2709.99" y2="-4482.81" gradientTransform="matrix(0.07, 0, 0, -0.07, -89.51, 20.38)" gradientUnits="userSpaceOnUse"><stop offset="0" stop-color="#7e67f0"/><stop offset="1" stop-color="#b84ed9"/></linearGradient><linearGradient id="linear-gradient-41" x1="2290.71" y1="-5295.59" x2="3047.91" y2="-4905.99" gradientTransform="matrix(0.07, 0, 0, -0.07, -89.51, 20.38)" gradientUnits="userSpaceOnUse"><stop offset="0" stop-color="#fc6094"/><stop offset="1" stop-color="#b84ed9"/></linearGradient><linearGradient id="linear-gradient-42" x1="2944.3" y1="-4505.71" x2="2617.73" y2="-4894.63" gradientTransform="matrix(0.07, 0, 0, -0.07, -89.51, 20.38)" gradientUnits="userSpaceOnUse"><stop offset="0" stop-color="#333"/><stop offset="1" stop-color="#1a1a1a"/></linearGradient><linearGradient id="linear-gradient-43" x1="3271.27" y1="-4679.81" x2="3439.06" y2="-4524.04" xlink:href="#linear-gradient-33"/><linearGradient id="linear-gradient-44" x1="3100.39" y1="-4780.48" x2="3444.24" y2="-4603.7" xlink:href="#linear-gradient-36"/><linearGradient id="linear-gradient-45" x1="5609.14" y1="-5141.61" x2="6499.46" y2="-5538.13" gradientTransform="matrix(0.07, 0, 0, -0.07, -89.51, 20.38)" gradientUnits="userSpaceOnUse"><stop offset="0" stop-color="#1a1a1a"/><stop offset="1" stop-color="#666"/></linearGradient><linearGradient id="linear-gradient-46" x1="5785.9" y1="-5400.3" x2="6403.9" y2="-5986.48" gradientTransform="matrix(0.07, 0, 0, -0.07, -89.51, 20.38)" gradientUnits="userSpaceOnUse"><stop offset="0" stop-color="#333"/><stop offset="1" stop-color="#666"/></linearGradient><linearGradient id="linear-gradient-47" x1="5414.82" y1="-4383.26" x2="5174.21" y2="-4677.15" xlink:href="#linear-gradient-33"/><linearGradient id="linear-gradient-48" x1="5271.84" y1="-5203.34" x2="5767.26" y2="-4803.23" gradientTransform="matrix(0.07, 0, 0, -0.07, -89.51, 20.38)" gradientUnits="userSpaceOnUse"><stop offset="0" stop-color="#6a68a3"/><stop offset="1" stop-color="#333163"/></linearGradient><linearGradient id="linear-gradient-49" x1="5326.8" y1="-4409.66" x2="5237.07" y2="-4578.53" gradientTransform="matrix(0.07, 0, 0, -0.07, -89.51, 20.38)" gradientUnits="userSpaceOnUse"><stop offset="0" stop-color="#e03a3a"/><stop offset="1" stop-color="#fc6094"/></linearGradient><linearGradient id="linear-gradient-50" x1="4783.53" y1="-4736.57" x2="4941.84" y2="-4589.61" xlink:href="#linear-gradient-33"/><linearGradient id="linear-gradient-51" x1="4795" y1="-4806.71" x2="5085.75" y2="-4690.42" xlink:href="#linear-gradient-34"/><linearGradient id="linear-gradient-52" x1="7635.66" y1="-4050.11" x2="6947.61" y2="-2995.53" gradientTransform="matrix(0.07, 0, 0, -0.07, -89.51, 20.38)" gradientUnits="userSpaceOnUse"><stop offset="0" stop-color="#fc6094"/><stop offset="1" stop-color="#e03a3a"/></linearGradient><linearGradient id="linear-gradient-53" x1="9620.38" y1="-409.75" x2="9108.76" y2="-206.58" gradientTransform="matrix(0.07, 0, 0, -0.07, -89.51, 20.38)" gradientUnits="userSpaceOnUse"><stop offset="0" stop-color="#6a68a3"/><stop offset="1" stop-color="#9681a6"/></linearGradient><linearGradient id="linear-gradient-54" x1="9573.02" y1="-5301.68" x2="9351.07" y2="-6079.08" xlink:href="#linear-gradient-53"/><linearGradient id="linear-gradient-55" x1="9627.23" y1="-605.02" x2="8536.73" y2="-569.78" xlink:href="#linear-gradient-53"/><linearGradient id="linear-gradient-56" x1="7466.9" y1="-4021.3" x2="7144.1" y2="-4012.13" xlink:href="#linear-gradient-33"/><linearGradient id="linear-gradient-57" x1="7826.55" y1="-4014.45" x2="7163.51" y2="-4347.61" gradientTransform="matrix(0.07, 0, 0, -0.07, -89.51, 20.38)" gradientUnits="userSpaceOnUse"><stop offset="0" stop-color="#f2833f"/><stop offset="1" stop-color="#e6e65f"/></linearGradient><linearGradient id="linear-gradient-58" x1="7201.3" y1="-4210.25" x2="6401.66" y2="-3349.48" gradientTransform="matrix(0.07, 0, 0, -0.07, -89.51, 20.38)" gradientUnits="userSpaceOnUse"><stop offset="0" stop-color="#805441"/><stop offset="1" stop-color="#f2833f"/></linearGradient><linearGradient id="linear-gradient-59" x1="8069.35" y1="-4695.65" x2="8186.9" y2="-5710.11" gradientTransform="matrix(0.07, 0, 0, -0.07, -89.51, 20.38)" gradientUnits="userSpaceOnUse"><stop offset="0" stop-color="#514491"/><stop offset="1" stop-color="#fc6094"/></linearGradient><linearGradient id="linear-gradient-60" x1="7775.71" y1="-4761.92" x2="8022.24" y2="-6013.57" xlink:href="#linear-gradient-59"/><linearGradient id="linear-gradient-61" x1="7648.54" y1="-3545.66" x2="7879.57" y2="-3798.19" xlink:href="#linear-gradient-33"/><linearGradient id="linear-gradient-62" x1="8139" y1="-4953.48" x2="7842.08" y2="-4270.59" gradientTransform="matrix(0.07, 0, 0, -0.07, -89.51, 20.38)" gradientUnits="userSpaceOnUse"><stop offset="0" stop-color="#e6e65f"/><stop offset="1" stop-color="#f2833f"/></linearGradient><linearGradient id="linear-gradient-63" x1="7382.4" y1="-4140.86" x2="7060.83" y2="-4162.35" xlink:href="#linear-gradient-33"/><linearGradient id="linear-gradient-64" x1="7741.17" y1="-4109.56" x2="7119.72" y2="-4499.82" xlink:href="#linear-gradient-57"/><linearGradient id="linear-gradient-65" x1="2785.62" y1="-533.85" x2="2533.38" y2="-699.85" xlink:href="#linear-gradient-33"/><linearGradient id="linear-gradient-66" x1="2991.93" y1="-475.6" x2="2850.88" y2="-845.95" gradientTransform="matrix(0.07, 0, 0, -0.07, -89.51, 20.38)" gradientUnits="userSpaceOnUse"><stop offset="0" stop-color="#e03a3a"/><stop offset="1" stop-color="#f2833f"/></linearGradient><linearGradient id="linear-gradient-67" x1="2907.36" y1="-1048.12" x2="2638.45" y2="-1759.58" gradientTransform="matrix(0.07, 0, 0, -0.07, -89.51, 20.38)" gradientUnits="userSpaceOnUse"><stop offset="0" stop-color="#633e2f"/><stop offset="1" stop-color="#f2833f"/></linearGradient><linearGradient id="linear-gradient-68" x1="3129.5" y1="-871.71" x2="2832.6" y2="-1820.9" xlink:href="#linear-gradient-67"/><linearGradient id="linear-gradient-69" x1="3065.78" y1="-850.22" x2="3286.25" y2="-111.3" gradientTransform="matrix(0.07, 0, 0, -0.07, -89.51, 20.38)" gradientUnits="userSpaceOnUse"><stop offset="0" stop-color="#f2833f"/><stop offset="1" stop-color="#e03a3a"/></linearGradient><linearGradient id="linear-gradient-70" x1="2796.62" y1="154.63" x2="3104.58" y2="20.73" xlink:href="#linear-gradient-33"/><linearGradient id="linear-gradient-71" x1="2608.09" y1="-816.84" x2="2933.2" y2="-838.1" gradientTransform="matrix(0.07, 0, 0, -0.07, -89.51, 20.38)" gradientUnits="userSpaceOnUse"><stop offset="0" stop-color="#a68ef5"/><stop offset="1" stop-color="#dda8fa"/></linearGradient><linearGradient id="linear-gradient-72" x1="2864.8" y1="-614.72" x2="2612.55" y2="-780.72" xlink:href="#linear-gradient-33"/><linearGradient id="linear-gradient-73" x1="3321.79" y1="-103.98" x2="2874.4" y2="-810.5" xlink:href="#linear-gradient-66"/><mask id="mask" x="82.53" y="33.93" width="40.61" height="46.96" maskUnits="userSpaceOnUse"><g id="id0"><rect class="cls-1" x="82.53" y="43.53" width="33.7" height="37.37"/></g></mask><linearGradient id="linear-gradient-74" x1="82.82" y1="57.31" x2="123.14" y2="57.31" gradientUnits="userSpaceOnUse"><stop offset="0" stop-color="#ede685" stop-opacity="0.57"/><stop offset="1" stop-color="#e6e65f"/></linearGradient><linearGradient id="linear-gradient-75" x1="5688.1" y1="-3256.34" x2="5844.76" y2="-1865.79" gradientTransform="matrix(0.07, 0, 0, -0.07, -89.51, 20.38)" gradientUnits="userSpaceOnUse"><stop offset="0" stop-color="#0081d1"/><stop offset="1" stop-color="#68aed9"/></linearGradient><linearGradient id="linear-gradient-76" x1="6012.18" y1="-3625.96" x2="5520.4" y2="-4030.73" gradientTransform="matrix(0.07, 0, 0, -0.07, -89.51, 20.38)" gradientUnits="userSpaceOnUse"><stop offset="0" stop-color="#549fd7"/><stop offset="1" stop-color="#6f59da"/></linearGradient><linearGradient id="linear-gradient-77" x1="3465.71" y1="-2128.51" x2="4907.53" y2="-1853.92" gradientTransform="matrix(0.07, 0, 0, -0.07, -89.51, 20.38)" gradientUnits="userSpaceOnUse"><stop offset="0" stop-color="#fc6094"/><stop offset="1" stop-color="#f6a2aa"/></linearGradient><linearGradient id="linear-gradient-78" x1="4191.69" y1="-323.83" x2="4294.65" y2="-533.77" gradientTransform="matrix(0.07, 0, 0, -0.07, -89.51, 20.38)" gradientUnits="userSpaceOnUse"><stop offset="0" stop-color="#7e67f0"/><stop offset="1" stop-color="#ffbdb0"/></linearGradient><linearGradient id="linear-gradient-79" x1="2657.38" y1="-2184.44" x2="2775.51" y2="-2350.15" xlink:href="#linear-gradient-78"/><linearGradient id="linear-gradient-80" x1="5422.68" y1="-213.14" x2="5540.81" y2="-378.85" xlink:href="#linear-gradient-78"/><linearGradient id="linear-gradient-81" x1="6580.95" y1="847.94" x2="6683.91" y2="638" xlink:href="#linear-gradient-78"/><linearGradient id="linear-gradient-82" x1="830.42" y1="-1972.31" x2="933.38" y2="-2182.25" xlink:href="#linear-gradient-78"/><linearGradient id="linear-gradient-83" x1="1173.29" y1="-3242.4" x2="1291.42" y2="-3408.11" xlink:href="#linear-gradient-78"/><linearGradient id="linear-gradient-84" x1="6271.81" y1="392.18" x2="6389.94" y2="226.47" xlink:href="#linear-gradient-78"/><linearGradient id="linear-gradient-85" x1="8494.96" y1="-6832.73" x2="9020.55" y2="-7586.6" xlink:href="#linear-gradient-2"/><linearGradient id="linear-gradient-86" x1="8845.63" y1="-6720.56" x2="8882.83" y2="-6779.36" xlink:href="#linear-gradient-2"/><linearGradient id="linear-gradient-87" x1="8970.51" y1="-6835.02" x2="8985.42" y2="-6858.65" xlink:href="#linear-gradient-2"/><linearGradient id="linear-gradient-88" x1="8971.01" y1="-6850.33" x2="8984.8" y2="-6872.16" xlink:href="#linear-gradient-2"/><linearGradient id="linear-gradient-89" x1="8901.83" y1="-6850.64" x2="8945.26" y2="-6919.28" xlink:href="#linear-gradient-2"/><linearGradient id="linear-gradient-90" x1="8852.64" y1="-6978.99" x2="8880.57" y2="-7023.13" xlink:href="#linear-gradient-2"/><linearGradient id="linear-gradient-91" x1="8830.67" y1="-6995.69" x2="8853.94" y2="-7032.46" xlink:href="#linear-gradient-2"/><linearGradient id="linear-gradient-92" x1="8833.7" y1="-6897.04" x2="8867.79" y2="-6950.93" xlink:href="#linear-gradient-2"/><linearGradient id="linear-gradient-93" x1="8749.12" y1="-6980.76" x2="8794.19" y2="-7051.99" xlink:href="#linear-gradient-2"/><linearGradient id="linear-gradient-94" x1="8640.22" y1="-6984.78" x2="8675.93" y2="-7041.22" xlink:href="#linear-gradient-2"/><linearGradient id="linear-gradient-95" x1="8551.77" y1="-7012.55" x2="8595.5" y2="-7081.67" xlink:href="#linear-gradient-2"/><linearGradient id="linear-gradient-96" x1="8509.13" y1="-7054.93" x2="8531.73" y2="-7090.63" xlink:href="#linear-gradient-2"/><linearGradient id="linear-gradient-97" x1="8446.71" y1="-7012.02" x2="8490.16" y2="-7080.7" xlink:href="#linear-gradient-2"/><linearGradient id="linear-gradient-98" x1="8371.81" y1="-6978.64" x2="8408.13" y2="-7036.04" xlink:href="#linear-gradient-2"/><linearGradient id="linear-gradient-99" x1="8262.27" y1="-6971.79" x2="8306.68" y2="-7041.98" xlink:href="#linear-gradient-2"/><linearGradient id="linear-gradient-100" x1="8194.62" y1="-6982.12" x2="8218.06" y2="-7019.16" xlink:href="#linear-gradient-2"/><linearGradient id="linear-gradient-101" x1="8170.62" y1="-6965.95" x2="8198.1" y2="-7009.38" xlink:href="#linear-gradient-2"/><linearGradient id="linear-gradient-102" x1="8190.62" y1="-6883.82" x2="8224.49" y2="-6937.34" xlink:href="#linear-gradient-2"/><linearGradient id="linear-gradient-103" x1="8118.86" y1="-6846.27" x2="8158.79" y2="-6909.38" xlink:href="#linear-gradient-2"/><linearGradient id="linear-gradient-104" x1="8195.89" y1="-6708.68" x2="8232.48" y2="-6766.52" xlink:href="#linear-gradient-2"/><linearGradient id="linear-gradient-105" x1="8613.25" y1="-6734.5" x2="8689.9" y2="-6855.65" xlink:href="#linear-gradient-2"/><linearGradient id="linear-gradient-106" x1="8383.66" y1="-6737.13" x2="8464" y2="-6864.11" xlink:href="#linear-gradient-2"/><linearGradient id="linear-gradient-107" x1="8410.9" y1="-6632.1" x2="8645.99" y2="-7003.65" xlink:href="#linear-gradient-2"/><linearGradient id="linear-gradient-108" x1="2500.75" y1="-6558.42" x2="2980.26" y2="-7210.73" xlink:href="#linear-gradient-2"/><linearGradient id="linear-gradient-109" x1="2817.22" y1="-6431.64" x2="2855.58" y2="-6483.82" xlink:href="#linear-gradient-2"/><linearGradient id="linear-gradient-110" x1="2934.01" y1="-6529.19" x2="2948.8" y2="-6549.3" xlink:href="#linear-gradient-2"/><linearGradient id="linear-gradient-111" x1="2934.37" y1="-6543.35" x2="2948.03" y2="-6561.93" xlink:href="#linear-gradient-2"/><linearGradient id="linear-gradient-112" x1="2867.6" y1="-6546.53" x2="2914.31" y2="-6610.08" xlink:href="#linear-gradient-2"/><linearGradient id="linear-gradient-113" x1="2824.16" y1="-6669.87" x2="2852.7" y2="-6708.68" xlink:href="#linear-gradient-2"/><linearGradient id="linear-gradient-114" x1="2804.18" y1="-6686.78" x2="2827.91" y2="-6719.07" xlink:href="#linear-gradient-2"/><linearGradient id="linear-gradient-115" x1="2806.75" y1="-6595.4" x2="2841.49" y2="-6642.67" xlink:href="#linear-gradient-2"/><linearGradient id="linear-gradient-116" x1="2728.41" y1="-6679.9" x2="2773.8" y2="-6741.64" xlink:href="#linear-gradient-2"/><linearGradient id="linear-gradient-117" x1="2627.02" y1="-6688.36" x2="2665.37" y2="-6740.53" xlink:href="#linear-gradient-2"/><linearGradient id="linear-gradient-118" x1="2545.17" y1="-6720.31" x2="2590.96" y2="-6782.6" xlink:href="#linear-gradient-2"/><linearGradient id="linear-gradient-119" x1="2507.52" y1="-6763.75" x2="2530.28" y2="-6794.7" xlink:href="#linear-gradient-2"/><linearGradient id="linear-gradient-120" x1="2449.03" y1="-6730.11" x2="2492.35" y2="-6789.05" xlink:href="#linear-gradient-2"/><linearGradient id="linear-gradient-121" x1="2381.05" y1="-6702.94" x2="2417.03" y2="-6751.9" xlink:href="#linear-gradient-2"/><linearGradient id="linear-gradient-122" x1="2277.26" y1="-6700.48" x2="2325.32" y2="-6765.87" xlink:href="#linear-gradient-2"/><linearGradient id="linear-gradient-123" x1="2217.89" y1="-6718.08" x2="2241.13" y2="-6749.69" xlink:href="#linear-gradient-2"/><linearGradient id="linear-gradient-124" x1="2195.36" y1="-6705.32" x2="2222.37" y2="-6742.06" xlink:href="#linear-gradient-2"/><linearGradient id="linear-gradient-125" x1="2213.38" y1="-6628.6" x2="2246.64" y2="-6673.84" xlink:href="#linear-gradient-2"/><linearGradient id="linear-gradient-126" x1="2147.38" y1="-6598.32" x2="2187.01" y2="-6652.23" xlink:href="#linear-gradient-2"/><linearGradient id="linear-gradient-127" x1="2218.71" y1="-6466.31" x2="2254.7" y2="-6515.28" xlink:href="#linear-gradient-2"/><linearGradient id="linear-gradient-128" x1="2602.52" y1="-6461.27" x2="2678.81" y2="-6565.06" xlink:href="#linear-gradient-2"/><linearGradient id="linear-gradient-129" x1="2386.42" y1="-6474.92" x2="2474.02" y2="-6594.08" xlink:href="#linear-gradient-2"/><linearGradient id="linear-gradient-130" x1="2407.56" y1="-6367.81" x2="2658.61" y2="-6709.33" xlink:href="#linear-gradient-2"/></defs><g id="Layer_2" data-name="Layer 2"><g id="Layer_1-2" data-name="Layer 1"><g id="Layer_1-3" data-name="Layer_1"><path class="cls-2" d="M246.33,400.35c-398.67,37.23-233.86,160.71-58.75,132.77,135.87-21.67,412.5,50.91,479.53-19.37,89.35-93.67-86.83-106.63-94-133.85-6.12-23.54-95.76-43.2-153.65-43.2-112.9,0-47,51.84-173.24,63.65Z"/><path class="cls-3" d="M502.66,407.41l-1.8-2.81-.22-.14-.36-.08h-.36l-2.3.08-1.37.07-2.3.07h-.36l-.36.14L493,405l-1.51,2.88-.36.07-.36.07-.36.08-.36.07-.36.07-.36.07-.36.07-.36.08-.29.07-.29.07-.29.07-.28.07-.29.08-.29.07-.29.07-.29.07-5.54-1.37h-.5l-.44.15-1.58.86-.94.51-1.8.93-.07.29.15.22,3.09,2.52-.14.14-.15.14-.14.15-.14.14-.15.15-.14.14-.15.14-.07.08-.07.07-.14.14-.15.15-.14.14-.15.14-.14.15-.07.14h0l-.07.15-.08.14-5.9,1-.36.14-.22.22-.07.14v3l.07.14.22.14.36.08,3.67.43,2.31.29.07.14.07.14.14.15.15.14.14.15.15.14.14.14.14.15.15.14.14.15.15.14.14.14.14.15.15.14.14.15.22.14-1.51,1.37-.72.72-.87.79v.29l.29.21,1.66.8,1,.5.87.36,1,.5.5.08.43-.08,5.4-1.65.29.07.29.07.29.07.36.08.36.07.36.07.36.07h.07l.21.07.36.08.36.07.36.07.36.07.36.07.36.08.36.07.36.07.36.58,1.44,2.37.22.22.36.14h.36l2.38-.07,1.44-.07,2.37-.07.36-.08.36-.14.22-.22,1.08-2.16.43-.93.36-.07.36-.08.36-.07.36-.07.36-.07.36-.07.36-.08.36-.07.36-.07.36-.07.29-.07.29-.08.28-.07.29-.07.29-.07.29-.07h.14l5.62,1.36h.5l.43-.14,1.59-.86.21-.15.72-.43h.08l1.72-.94.08-.28-.15-.22-.43-.36-2.81-2.23.15-.15.14-.14.14-.14.15-.15.14-.14.15-.15.14-.14.14-.14.15-.15.14-.14.15-.15.07-.14.07-.14.07-.15.07-.14.08-.15,3-.5,3-.5.36-.15.22-.21.07-.15-.07-1.15-.07-.72-.08-1.15-.07-.15-.29-.14-.36-.07-5.32-.58-.72-.07-.15-.14-.14-.15-.15-.14-.14-.15-.14-.14-.15-.14-.14-.15-.15-.14-.14-.15-.14-.14-.15-.14-.14-.15-.15-.14-.14-.15-.22-.14-.21-.14.07-.08,2.88-2.73v-.22l-.29-.21-1.65-.72-1-.44-1.87-.79h-.51l-.36.07L508,408.85l-.29-.07-.29-.08-.29-.07-.29-.07-.28-.07-.36-.07-.36-.08-.36-.07-.36-.07-.36-.07-.36-.07L504,408l-.36-.07-.36-.07-.36-.07-.36-.07Zm-5.33,3.53h2.16l.65.07.65.07.64.07.65.07.65.08.36.07.29.07.57.14.58.15.58.14.57.15.51.21.5.22.5.21.51.22.43.22.43.21.43.29.36.29.36.29.36.28.29.29.29.29.22.29.21.29.15.36.14.36.14.36.08.36.07.36v.72l-.07.36-.08.36-.14.36-.14.28v.08l-.22.36-.22.28-.28.29-.29.29-.29.29-.36.29-.36.28-.43.29-.43.29-.44.29-.5.21-.5.22-.51.22-.5.21-.58.22-.57.21-.58.15-.65.14-.65.15-.64.14-.65.14-.65.08-.72.07-.72.07-.72.07h-2.88l-.72-.07-.65-.07-.65-.07-.64-.08-.65-.07-.65-.14-.58-.15-.57-.14-.58-.14-.57-.15-.51-.21-.5-.22-.51-.22-.5-.21-.43-.22-.43-.21-.44-.29-.36-.29-.36-.29-.28-.29-.08-.07L485,421l-.29-.29-.22-.29-.21-.29-.15-.36-.14-.36-.07-.36-.07-.36V418l.07-.36.07-.36.14-.36.15-.36.14-.36.22-.36.21-.29.29-.28.29-.29.36-.29.36-.29.36-.29.43-.28.29-.15.14-.07.44-.22.5-.21.5-.22.51-.21.5-.22.58-.22.57-.14.58-.14.58-.15.64-.14.51-.07h.14l.65-.15.65-.07.65-.07.72-.07.72-.08h.72Z"/><path class="cls-4" d="M506.83,412.45l.36.07.29.07.29.07.29.08.29.07.28.07.29.07.29.07.29.08.29.07.28.07.29.07.29.07.29.08.29.07.28.07,5.12-1.3h.86l.14.08.15.07,1.51.79.94.43,1.51.79.07.08.07.07.07.07v.22l-.07.07-.07.07-2.95,2.38.14.14.15.14.14.15.14.14.15.15.14.14.15.14.14.15.14.14.15.15.14.14.07.14.08.15.07.14.07.15.07.14,5.62.86h.29l.07.08.07.07.07.07.07.07.08.07v3L527,424l-.07.07-.07.07-.07.07-.15.08h-.28l-5.69.64-.07.15-.08.14-.07.15-.14.14-.15.14-.14.15-.14.14-.15.15-.14.14-.15.14-.14.15-.14.14-.15.15-.14.14-.15.14-.14.15,2.81,2.59.07.07.07.07v.22l-.07.07-.07.07-.15.08-1.58.72-.94.43-1.58.72-.14.07-.15.07H516l-5.11-1.58-.29.07-.29.07L510,431l-.29.08-.28.07-.29.07-.29.07-.29.07-.29.08-.36.07-.36.07-.36.07-.36.07-.36.08-.36.07-.36.07L504,434.77l-.08.07-.07.07-.07.07-.07.08-.15.07h-.43l-2.23-.07h-1.37l-2.23-.08h-.43l-.15-.07-.07-.07-.07-.07-.07-.07-.07-.08L495,431.74l-.36-.07-.36-.07-.36-.07-.36-.07-.29-.08-.29-.07-.29-.07-.29-.07-.28-.07-.29-.08-.29-.07-.29-.07-.29-.07-.28-.07-.29-.08-.29-.07-5.26,1.3H484l-.14-.07-.15-.08-1.51-.79-.94-.5-1.51-.79-.07-.08-.07-.07-.07-.07v-.22l.07-.07.07-.07,3.1-2.45-.15-.14-.14-.15-.15-.14-.14-.14-.14-.15-.15-.14-.14-.15-.15-.14-.14-.14-.14-.15-.08-.14-.07-.15-.07-.14-.07-.14-.07-.15-.08-.14-5.54-.87h-.29l-.07-.07-.07-.07-.07-.07-.08-.07V423l.08-1.08.07-.65.07-1.08v-.07l.07-.07.07-.07.08-.07.07-.08.14-.07h.29l5.69-.65.07-.14.14-.14.15-.15.14-.14.15-.15.14-.14.14-.14.15-.15.14-.14.15-.15.14-.14.14-.14.15-.15.14-.14.15-.15.14-.14L481,414.32l-.08-.07V414l.08-.07.07-.07.14-.08,1.59-.72.93-.43,1.59-.72.14-.07h1l4.89,1.44.29-.07.29-.07.29-.08.29-.07.28-.07.29-.07.29-.07.29-.08.29-.07.28-.07.29-.07.29-.07.29-.08.36-.07.36-.07.36-.07,1.73-2.67.07-.07.07-.07.07-.07.07-.07h.58l2.16.07h1.3l2.16.07h.43l.14.07.07.07.08.08.07.07.07.07,1.44,2.74Zm-5.4,3.09h.65l.65.08.65.07.65.07.64.07.65.07.58.15.57.14.58.15.58.14.57.14.51.15.5.21.5.22.44.22.43.21.43.22.43.21.36.22.36.29.36.29.29.28.29.29.21.29.22.29.22.29.14.28.14.29.08.29.07.36.07.36v.72l-.07.36-.07.29-.15.29-.14.28-.22.29-.21.29-.22.29-.29.29-.29.28-.36.29-.36.29-.36.22-.43.21-.43.22-.43.21-.51.22-.5.22-.5.21-.51.15-.57.14-.58.14-.58.15-.57.14-.58.07-.65.08-.64.07-.65.07-.65.07h-2.59l-.65-.07-.65-.07-.65-.07-.64-.08-.65-.07-.58-.14-.57-.15-.58-.14-.58-.14-.57-.15-.51-.21-.5-.22-.5-.22-.44-.21-.43-.22-.43-.21-.43-.22-.36-.29-.36-.29-.36-.28-.29-.29-.29-.29-.21-.29-.22-.29-.22-.28-.14-.29-.14-.29-.08-.29-.07-.36v-.72l.07-.36.08-.36.07-.29.14-.28.15-.29.21-.29.22-.29.29-.29.28-.28.29-.29.36-.29.36-.29.36-.21.43-.22.44-.22.43-.21.5-.22.51-.21.5-.15.5-.14.58-.15.58-.14L496,416l.58-.15.57-.07.65-.07.65-.07.65-.08.65-.07h1.94Z"/><g id="_394360480" data-name=" 394360480"><polygon class="cls-5" points="522.03 414.61 521.67 410.14 521.67 410.36 518.64 412.81 519 417.27 521.88 414.9 522.03 414.61"/><polygon class="cls-6" points="527.21 421.09 526.85 416.62 526.85 417.7 527.14 422.17 527.21 421.09"/><polygon class="cls-7" points="527.14 422.17 526.85 417.7 526.78 418.35 527.14 422.82 527.14 422.17"/><polygon class="cls-8" points="527.14 422.82 526.78 418.35 526.78 419.36 526.71 419.58 526.49 419.72 526.13 419.79 520.44 420.44 520.8 424.9 526.49 424.26 526.85 424.18 527.07 424.04 527.14 423.82 527.14 422.82"/><polygon class="cls-9" points="521.59 430.16 521.23 425.62 521.09 425.91 519.36 426.7 519.72 431.24 521.31 430.45 521.59 430.16"/><polygon class="cls-10" points="519.72 431.24 519.36 426.7 518.35 427.14 518.71 431.67 519.72 431.24"/><polygon class="cls-11" points="520.8 424.9 520.44 420.44 520.37 420.58 520.23 420.8 520.15 420.94 520.01 421.09 519.94 421.23 519.79 421.38 519.65 421.52 519.51 421.66 519.36 421.88 519.22 422.02 519.07 422.17 518.93 422.31 518.79 422.46 518.64 422.6 518.43 422.74 518.28 422.89 518.64 427.35 518.79 427.21 519 427.06 519.15 426.92 519.29 426.78 519.43 426.63 519.58 426.49 519.72 426.34 519.87 426.2 520.01 426.06 520.15 425.84 520.3 425.7 520.37 425.55 520.51 425.41 520.59 425.26 520.73 425.05 520.8 424.9"/><polygon class="cls-12" points="518.71 431.67 518.35 427.14 516.77 427.93 516.41 428 515.91 428 510.65 426.42 511.01 430.88 516.12 432.46 516.77 432.54 517.13 432.39 518.71 431.67"/><polygon class="cls-13" points="511.01 430.88 510.65 426.42 510.29 426.49 510 426.56 509.71 426.63 509.43 426.7 509.07 426.78 508.78 426.85 508.49 426.92 508.13 426.92 507.84 426.99 507.48 427.06 507.19 427.14 506.83 427.14 506.47 427.21 506.19 427.28 505.83 427.28 505.47 427.35 505.9 431.82 506.19 431.82 506.55 431.74 506.91 431.74 507.19 431.67 507.55 431.6 507.84 431.53 508.2 431.53 508.49 431.46 508.85 431.38 509.14 431.31 509.5 431.24 509.79 431.17 510.07 431.1 510.36 431.02 510.72 430.95 511.01 430.88"/><polygon class="cls-14" points="505.9 431.82 505.47 427.35 503.74 430.09 503.52 430.3 503.23 430.38 502.87 430.45 500.64 430.38 501.07 434.91 503.23 434.91 503.59 434.91 503.95 434.84 504.17 434.62 505.9 431.82"/><polygon class="cls-15" points="501.07 434.91 500.64 430.38 499.35 430.38 499.71 434.84 501.07 434.91"/><polygon class="cls-16" points="499.71 434.84 499.35 430.38 497.11 430.3 496.75 430.3 496.47 430.16 496.25 429.94 494.81 427.14 495.24 431.6 496.68 434.48 496.83 434.62 497.19 434.77 497.47 434.84 499.71 434.84"/><polygon class="cls-17" points="495.24 431.6 494.81 427.14 494.52 427.06 494.16 426.99 493.87 426.92 493.51 426.85 493.23 426.85 492.87 426.78 492.58 426.7 492.22 426.63 491.93 426.56 491.64 426.49 491.35 426.42 490.99 426.34 490.71 426.2 490.42 426.13 490.13 426.06 489.84 425.98 490.27 430.45 490.56 430.52 490.85 430.66 491.14 430.74 491.43 430.81 491.71 430.88 492 430.95 492.36 431.02 492.65 431.1 492.94 431.17 493.3 431.24 493.59 431.31 493.95 431.38 494.23 431.46 494.59 431.53 494.88 431.53 495.24 431.6"/><polygon class="cls-18" points="490.27 430.45 489.84 425.98 484.58 427.28 484.15 427.35 483.72 427.28 481.99 426.42 482.43 430.88 483.94 431.67 484.58 431.82 485.02 431.82 490.27 430.45"/><polygon class="cls-19" points="482.43 430.88 481.99 426.42 481.13 425.91 481.56 430.38 482.43 430.88"/><polygon class="cls-20" points="481.56 430.38 481.13 425.91 479.62 425.12 479.4 424.9 479.83 429.37 480.05 429.58 481.56 430.38"/><polygon class="cls-21" points="483 426.63 482.57 422.1 482.43 421.95 482.28 421.81 482.14 421.66 481.99 421.52 481.85 421.38 481.7 421.23 481.63 421.09 481.49 420.87 481.35 420.73 481.27 420.58 481.13 420.44 481.06 420.3 480.99 420.08 480.84 419.94 480.77 419.79 480.7 419.58 481.13 424.11 481.2 424.26 481.27 424.4 481.42 424.54 481.49 424.76 481.56 424.9 481.7 425.05 481.78 425.19 481.92 425.41 482.06 425.55 482.14 425.7 482.28 425.84 482.43 425.98 482.57 426.13 482.71 426.27 482.86 426.42 483 426.63"/><polygon class="cls-22" points="481.13 424.11 480.7 419.58 475.15 418.71 474.79 418.64 474.58 418.42 474.5 418.28 474.94 422.74 475.01 422.89 475.23 423.1 475.58 423.18 481.13 424.11"/><polygon class="cls-23" points="483.79 416.55 483.36 412.09 480.77 409.64 480.63 409.42 481.06 413.89 481.13 414.03 483.79 416.55"/><polygon class="cls-24" points="501.43 415.54 501.07 411.08 501.72 411.08 502.44 411.15 503.09 411.22 503.74 411.3 504.31 411.37 504.96 411.44 505.54 411.58 506.11 411.66 506.69 411.8 507.27 411.94 507.84 412.16 508.35 412.3 508.85 412.52 509.35 412.74 509.79 412.88 510.22 413.1 510.65 413.38 511.08 413.6 511.44 413.82 511.8 414.1 512.16 414.39 512.45 414.61 512.74 414.9 512.95 415.18 513.17 415.47 513.39 415.83 513.53 416.12 513.67 416.41 513.82 416.77 513.89 417.06 513.89 417.42 514.25 421.88 514.25 421.52 514.18 421.23 514.03 420.87 513.89 420.58 513.75 420.3 513.53 419.94 513.31 419.65 513.1 419.36 512.81 419.07 512.52 418.78 512.16 418.57 511.8 418.28 511.44 418.06 511.01 417.78 510.65 417.56 510.15 417.34 509.71 417.13 509.21 416.91 508.71 416.77 508.2 416.55 507.63 416.41 507.12 416.26 506.55 416.12 505.97 415.98 505.32 415.9 504.75 415.76 504.1 415.69 503.45 415.62 502.8 415.54 502.15 415.54 501.43 415.54"/><polygon class="cls-25" points="487.97 422.31 487.54 417.85 487.54 417.49 487.54 417.2 487.61 416.84 487.68 416.55 487.75 416.19 487.9 415.9 488.04 415.62 488.26 415.26 488.47 414.97 488.76 414.68 489.05 414.46 489.34 414.18 489.7 413.89 490.06 413.67 490.42 413.38 490.85 413.17 491.28 412.95 491.71 412.74 492.15 412.52 492.65 412.38 493.15 412.16 493.73 412.02 494.23 411.87 494.81 411.73 495.39 411.58 495.96 411.44 496.54 411.37 497.19 411.3 497.83 411.22 498.41 411.15 499.06 411.08 499.78 411.08 500.43 411.08 501.07 411.08 501.43 415.54 500.79 415.54 500.14 415.54 499.49 415.54 498.84 415.62 498.19 415.62 497.55 415.69 496.97 415.83 496.32 415.9 495.75 416.05 495.17 416.12 494.67 416.26 494.09 416.48 493.59 416.62 493.08 416.77 492.58 416.98 492.15 417.2 491.64 417.42 491.21 417.63 490.85 417.85 490.42 418.06 490.06 418.35 489.77 418.64 489.41 418.86 489.19 419.14 488.91 419.43 488.69 419.72 488.47 420.01 488.33 420.37 488.19 420.66 488.04 420.94 487.97 421.3 487.97 421.66 487.97 421.95 487.97 422.31"/><path class="cls-26" d="M506.47,408.06l.36.07.29.07.29.07.29.07.29.08.28.07.29.07.29.07.29.07.29.08.28.07.29.07.29.07.29.07.29.08.28.07,5.12-1.3.36-.07.5.07,1.66.87.93.43,1.51.79.22.22v.21l-3,2.45.14.14.14.15.15.14.14.15.15.14.14.14.14.15.15.14.14.15.15.14.14.14.07.15.07.14.08.15.07.14.07.14,5.62.87.36.07.21.14.07.15v2.81l-.07.14-.21.14-.36.08-5.69.64-.07.15-.08.14-.07.15-.14.14-.15.14-.14.15-.14.14-.15.15-.14.14-.15.14-.14.15-.14.14-.15.15-.14.14-.15.14-.14.15,2.81,2.59.14.22-.07.21-1.73.79-.93.44-1.59.72-.43.14h-.5l-5.26-1.58-.29.07-.29.07-.28.07-.29.07-.29.08-.29.07-.29.07-.28.07-.29.07-.36.08-.36.07-.36.07-.36.07-.36.07-.36.08-.36.07L503.81,430l-.22.14-.36.14H503l-2.24-.07h-1.36l-2.24-.07h-.28l-.36-.14-.22-.22-1.44-2.88-.36-.07-.36-.07-.36-.08-.36-.07-.29-.07-.29-.07-.28-.07-.29-.08-.29-.07-.29-.07-.29-.07-.28-.07-.29-.08-.29-.07-.29-.07-.29-.07-5.25,1.29-.36.08-.51-.08-1.65-.86-.94-.5-1.51-.8-.22-.21v-.22l3.17-2.52-.14-.14-.15-.15-.14-.14-.14-.14-.15-.15-.14-.14-.15-.15-.14-.14-.14-.14-.15-.15-.07-.14-.07-.15-.07-.14-.08-.14-.07-.15-.07-.14-5.54-.87-.36-.07-.22-.14-.07-.15.07-1.08.07-.64.07-1.08.08-.15.21-.14.36-.07,5.69-.65.07-.15.15-.14.14-.14.14-.15.15-.14.14-.15.15-.14.14-.14.14-.15.15-.14.14-.15.15-.14.14-.14.14-.15.15-.14.14-.15-2.66-2.52-.07-.21.14-.22,1.73-.79.93-.43,1.59-.72.43-.07h.5l5.12,1.51.28-.07.29-.08.29-.07.29-.07.29-.07.28-.07.29-.08.29-.07.29-.07.29-.07.28-.07.29-.08.36-.07.36-.07.36-.07.36-.07,1.73-2.67.22-.14.36-.07h.28l2.16.07H502l2.16.07h.29l.36.14.14.15L506.4,408Zm-5.4,3h.65l.65.07.65.07.65.08.64.07.65.07.58.14.57.15.58.14.58.15.57.14.51.14.5.22.5.22.44.21.43.22.43.21.43.22.36.22.36.28.36.29.29.29.29.29.21.29.22.28.22.29.14.29.14.29.08.29.07.28.07.36v.72l-.07.36-.07.29-.15.29-.14.29-.22.29-.21.28-.22.29-.29.29-.29.29-.36.29-.36.28-.36.22-.43.22-.43.21-.43.22-.51.21-.5.22-.5.22-.51.14-.57.14-.58.15-.58.14-.57.15-.58.07-.65.07-.64.07-.65.07-.65.08h-2.66l-.65-.08-.65-.07-.65-.07-.65-.07-.64-.07-.58-.15-.58-.14-.57-.15-.58-.14-.57-.14-.51-.22-.5-.22-.51-.21-.43-.22-.43-.21-.43-.22-.43-.22L490,421l-.36-.29-.36-.29-.29-.29-.29-.29-.22-.28-.21-.29L488,419l-.14-.29-.15-.29-.07-.28-.07-.29v-.72l.07-.36.07-.36.08-.29.14-.29.14-.29.22-.28.22-.29.28-.29.29-.29.29-.29.36-.28.36-.22.36-.22.43-.21.43-.22.44-.21.5-.22.5-.22.51-.14.5-.14.58-.15.57-.14.58-.15.58-.14.57-.07.65-.07.65-.08.65-.07.64-.07h1.8Z"/></g><g id="_359143304" data-name=" 359143304"><path class="cls-27" d="M587.69,449.31c42.84,0,77.62,5.55,77.62,12.46s-34.78,12.46-77.62,12.46-77.62-5.55-77.62-12.46S544.85,449.31,587.69,449.31Z"/><path class="cls-27" d="M323.09,446.14c89.06,0,161.21,7,161.21,15.56s-72.15,15.55-161.21,15.55-161.22-7-161.22-15.55S234,446.14,323.09,446.14Z"/><path class="cls-28" d="M403.66,75.84C371.9,23.28,252.24,9.45,220.41,80.74"/><rect class="cls-29" x="277.58" y="365.07" width="91.08" height="83.81" rx="4.61"/><rect class="cls-30" x="121.62" y="90.38" width="402.92" height="305.43" rx="16.7"/><path class="cls-31" d="M138.33,90.38H507.84a16.72,16.72,0,0,1,16.71,16.71v9.5H121.62v-9.5A16.72,16.72,0,0,1,138.33,90.38Z"/><path class="cls-32" d="M507.84,330.58H138.33a16.72,16.72,0,0,1-16.71-16.7v65.23a16.72,16.72,0,0,0,16.71,16.71H507.84a16.72,16.72,0,0,0,16.71-16.71V313.88A16.72,16.72,0,0,1,507.84,330.58Z"/><path class="cls-33" d="M323.09,343.83a19.37,19.37,0,1,1-19.37,19.37A19.37,19.37,0,0,1,323.09,343.83Z"/><path class="cls-34" d="M323.09,342.39a20.4,20.4,0,0,1,14.68,6.12,20.83,20.83,0,0,1,6.12,14.69,20.44,20.44,0,0,1-6.12,14.69A20.87,20.87,0,0,1,323.09,384a20.46,20.46,0,0,1-14.69-6.12,20.85,20.85,0,0,1-6.12-14.69,20.42,20.42,0,0,1,6.12-14.69A20.87,20.87,0,0,1,323.09,342.39Zm12.67,8.14A17.91,17.91,0,1,0,341,363.2,17.86,17.86,0,0,0,335.76,350.53Z"/><rect class="cls-35" x="205.29" y="442.47" width="235.59" height="19.22" rx="7.56"/><rect class="cls-36" x="366.14" y="146.33" width="138.75" height="67.68" rx="4.32"/><path class="cls-37" d="M388.9,160.87h93.17a7.71,7.71,0,0,1,7.7,7.71h0a7.7,7.7,0,0,1-7.7,7.7H388.9a7.71,7.71,0,0,1-7.71-7.7h0A7.71,7.71,0,0,1,388.9,160.87Z"/><path class="cls-37" d="M388.9,184h57.24a7.7,7.7,0,0,1,7.7,7.7h0a7.7,7.7,0,0,1-7.7,7.7H388.9a7.7,7.7,0,0,1-7.71-7.7h0A7.71,7.71,0,0,1,388.9,184Z"/><rect class="cls-38" x="143.01" y="196.95" width="137.81" height="120.17" rx="6.55"/><path class="cls-39" d="M274.7,106.73V98.59a8.17,8.17,0,0,0-8.14-8.13H207a8.17,8.17,0,0,0-8.14,8.13v8.14H121.7v22H524.62v-22H274.7Z"/><rect class="cls-30" x="191.83" y="112.34" width="302.05" height="10.73" rx="3.17"/><path class="cls-40" d="M130.68,117l2.45-1.58,2.52-1.58a1.39,1.39,0,0,1,1.58.07.64.64,0,0,1,.29.57h0V121c0,.51-.5.87-1.15.87a1.05,1.05,0,0,1-.79-.29L133.13,120l-2.52-1.59a.74.74,0,0,1-.15-1.22c.08,0,.08-.07.15-.07Z"/><rect class="cls-30" x="135.86" y="115.73" width="4.1" height="3.96" rx="1.01"/><path class="cls-40" d="M156.6,117l-2.45-1.58-2.52-1.58a1.39,1.39,0,0,0-1.58.07.64.64,0,0,0-.29.57h0V121c0,.51.51.87,1.15.87a1.09,1.09,0,0,0,.8-.29l2.44-1.58,2.52-1.59a.74.74,0,0,0,.15-1.22c-.07,0-.07-.07-.15-.07Z"/><rect class="cls-30" x="147.39" y="115.73" width="4.1" height="3.96" rx="1.01"/><path class="cls-30" d="M166.61,119.54a.66.66,0,0,1,.86.22.65.65,0,0,1-.21.86,3.25,3.25,0,0,1-2.59.36,3.46,3.46,0,0,1-2.09-1.58,3.25,3.25,0,0,1-.36-2.59,3.46,3.46,0,0,1,1.58-2.09,3.29,3.29,0,0,1,2.59-.36,3.5,3.5,0,0,1,2.09,1.58.63.63,0,1,1-1.08.65,2.17,2.17,0,0,0-4,.51,2.25,2.25,0,0,0,.22,1.65,2.2,2.2,0,0,0,1.29,1A2.27,2.27,0,0,0,166.61,119.54Z"/><path class="cls-40" d="M169.2,118l.07-.93.08-1a.48.48,0,0,0-.29-.43h-.22l-.93.5-.94.5c-.14.08-.14.29-.07.51l.21.21.87.44.86.43c.15.07.36,0,.36-.15Z"/><path class="cls-40" d="M179.14,113.86l1.58,1.58,1.59,1.58a.73.73,0,0,1-.08,1.08.78.78,0,0,1-.57.22h-6.48a.81.81,0,0,1-.87-.72.48.48,0,0,1,.29-.5l1.59-1.59,1.58-1.58a1,1,0,0,1,1.22-.07l.08.07Z"/><path class="cls-40" d="M177.05,116.3h2.81a1.45,1.45,0,0,1,1.44,1.44v2.67a1.45,1.45,0,0,1-1.44,1.44h-.43c.07-.07.07-.15.07-.29V119.9a.5.5,0,0,0-.51-.5h-1a.5.5,0,0,0-.51.5v1.66a.45.45,0,0,0,.07.29h-.43a1.45,1.45,0,0,1-1.44-1.44v-2.67a1.45,1.45,0,0,1,1.44-1.44Z"/><circle class="cls-41" cx="145.53" cy="98.88" r="3.38"/><circle class="cls-42" cx="155.54" cy="98.88" r="3.38"/><circle class="cls-43" cx="165.62" cy="98.88" r="3.38"/><path class="cls-44" d="M249.86,323.6c14.4,1.65,44.86,25.77,50,40.53l-16,4.9c-4.83-13.82-22.54-38-36.94-41.18C242.73,326.91,243,322.81,249.86,323.6Z"/><path class="cls-45" d="M264.55,326.91c15.33,8.5,33,27.43,36.86,38.52l-18.65,4.75c-3.6-10.29-13.75-27.07-24.62-36.21C258.43,332.09,261.52,328.78,264.55,326.91Z"/><path class="cls-46" d="M248.64,325.18c-2.09-.57-3.39-5.18-.44-3,.51.36,2.45,2.09,1.23,2.59a4.27,4.27,0,0,0-.87.43Z"/><path class="cls-47" d="M133.65,304.73c-13,8.21-30.82,45.36-28.87,61.85l17.56-2.73c-1.8-15.41,3.82-46.66,16.13-56.38,3.6-2.81,1.44-6.63-4.75-2.74Z"/><path class="cls-48" d="M121.26,314.74C110.61,330,102.54,356.14,104,368.53l20-4.18c-1.3-11.52.57-32.18,6.69-45.94-1.15-1.65-5.61-3.38-9.36-3.74Z"/><path class="cls-46" d="M135.52,305.67c1.73-1.51.79-6.48-1-3-.29.58-1.37,3.1,0,3C134.94,305.67,135.59,305.6,135.52,305.67Z"/><path class="cls-49" d="M30.4,410.14c-1.87-.57-3.46-1.29-4.25-.72-1.87,1.37-9.29,11.24-7.56,13.83,3.82,3.17,10.73-4.83,13-5.76C31.05,414.39,31.12,412.74,30.4,410.14Z"/><path class="cls-50" d="M26.51,409.21a.39.39,0,0,0-.29.14c-1.87,1.37-9.29,11.23-7.56,13.83.07.07.15.07.22.14h0c.07.07.14.07.21.14h.08c3.45-1.51,5.9-4.82,7.7-8,.5-.93.43-4.75-.22-6.33Z"/><path class="cls-51" d="M108.81,393.37c-13.68,13.82-42.63,23.47-77.19,24.12a6.37,6.37,0,0,1-1.22-7.35C46,407.77,68.92,397,82.1,389.7c10.51-5.77,28.22-17.72,26.71,3.6Z"/><path class="cls-49" d="M34.43,435.92c-1.94-.29-3.6-.72-4.32-.07-1.66,1.58-7.42,12.6-5.33,14.83,4.25,2.52,9.79-6.48,11.95-7.7-1-3-1.29-4.61-2.37-7.06Z"/><path class="cls-50" d="M30.4,435.7a1.08,1.08,0,0,0-.29.22c-1.66,1.58-7.42,12.6-5.33,14.83.07.07.15.07.22.15h0c.07,0,.14.07.21.07h.08c3.16-2.09,5-5.69,6.33-9.07C32,440.89,31.33,437.14,30.4,435.7Z"/><path class="cls-52" d="M109.17,407.05C97.86,422.82,70.79,436.93,36.73,443a6.37,6.37,0,0,1-2.37-7.06c15-4.75,36-19.08,47.81-28.3,9.5-7.34,25-21.88,26.93-.64Z"/><path class="cls-53" d="M121.19,357.8c0-6.55,9.65-2.45,11.74-10.37,3.81-14.18-23.19-21.1-21,3.6.15,1.8,1.59,8.06,4.32,8,1-.07,4.9.36,4.9-1.15Z"/><path class="cls-54" d="M131.42,218.11,254.61,237a6.53,6.53,0,0,1,5.47,7.49l-16.2,105.77a6.51,6.51,0,0,1-7.48,5.47L113.2,336.85a6.53,6.53,0,0,1-5.47-7.49l16.2-105.77A6.54,6.54,0,0,1,131.42,218.11Z"/><path class="cls-55" d="M152,293l-36.65,15.84-2.74,17.71c-.43,2.66,2.31,5.26,6,5.83L233,350c3.67.58,7.06-1.15,7.42-3.74l3.6-23.48-20.52-30.89-45.15,28.3L152,293.07Z"/><circle class="cls-56" cx="183.57" cy="289.28" r="11.83"/><path class="cls-57" d="M127,365.43c1.16-14.26-18.86-12-23.9-4.39C95.7,372.41,90.59,378.89,75,387.46,73.6,397.9,91.6,416.19,99.59,417.13c17.43-13,25.85-32.76,27.36-51.63Z"/><path class="cls-58" d="M119.39,330.58c-3.17,0-7.2,4-7.85,7.56-.79,4.18-7.27-1.08-6.4,5.62.21,1.73-.29,5.9-2.45,5.9-3.67,0-13.25,7.63-10.3,13.11.94,1.72,3,5,1.08,6.4-8.49,6.34-.21,15.77,14.47,7.2,5.26-3.09,13,4.11,13-13.6,0-1.88-1.8-8.07-.64-9.51,3.31-4.25.28-2.73.57-6.05.15-1.58,3.24.51,2.23-1.15-3.45-5.47,10.44-1.58,9.51-8.78s-6.12-6.7-13-6.7Z"/><path class="cls-59" d="M181.75,340.3c-6.63,13.9-41.4,36-58,36.07l.65-17.78c15.56-.07,45.87-9.36,54.08-22.68C180.88,332,184.91,333.75,181.75,340.3Z"/><path class="cls-60" d="M173.32,353.84c-13.89,12.38-38.95,23.47-51.41,23.54l1.73-20.3c11.59-.07,31.9-4.39,44.86-12.1C170.3,346,172.53,350.17,173.32,353.84Z"/><path class="cls-46" d="M178.07,337.85c-1.58-1.65-.28-6.55,1.23-3,.21.58,1.08,3.24-.29,3-.43-.08-1.08-.15-1-.08Z"/><path class="cls-49" d="M376.51,407.77c1.8-.51,3.24-1.23,4-.72,1.8,1.22,8.79,10.58,7.13,13-3.6,3-10.08-4.54-12.31-5.4C375.86,411.73,375.86,410.22,376.51,407.77Z"/><path class="cls-50" d="M380.18,406.9a.38.38,0,0,1,.29.15c1.8,1.22,8.79,10.58,7.13,13-.07.07-.14.07-.14.14h0c-.08.08-.15.08-.15.15h-.07c-3.24-1.44-5.55-4.54-7.27-7.49C379.46,412,379.53,408.34,380.18,406.9Z"/><path class="cls-61" d="M302.49,391.93c12.89,13,40.18,22.17,72.8,22.75a6,6,0,0,0,1.15-6.91c-14.76-2.23-36.36-12.46-48.75-19.3C317.76,383,301.05,371.77,302.49,391.93Z"/><path class="cls-49" d="M372.69,432.1c1.8-.28,3.46-.72,4-.07,1.58,1.51,7,11.88,5,14-4,2.38-9.28-6.12-11.3-7.27,1-2.81,1.22-4.32,2.23-6.62Z"/><path class="cls-50" d="M376.51,431.89c.07.07.22.14.29.21,1.58,1.52,7,11.88,5,14a.26.26,0,0,1-.22.08h0c-.07,0-.14.07-.22.07h-.07c-2.95-2-4.75-5.33-6-8.57-.36-.94.28-4.54,1.15-5.83Z"/><path class="cls-62" d="M302.13,404.82c10.66,14.9,36.22,28.22,68.33,33.91a5.82,5.82,0,0,0,2.23-6.63c-14.25-4.53-33.91-18-45.14-26.71C318.62,398.41,303.86,384.73,302.13,404.82Z"/><path class="cls-63" d="M290.83,358.37c0-6.19-9.07-2.3-11.09-9.79-3.6-13.39,21.89-19.87,19.8,3.39-.14,1.65-1.51,7.63-4.1,7.56-.94-.08-4.61.36-4.61-1.08Z"/><path class="cls-64" d="M285.36,365.57c-1.08-13.46,17.85-11.37,22.53-4.17,7,10.73,11.81,16.85,26.57,24.91,1.3,9.87-15.69,27.07-23.25,27.94C294.79,402,286.8,383.36,285.36,365.57Z"/><path class="cls-65" d="M292.48,332.67c3,0,6.7,3.82,7.42,7.13,1.08,5,2,11.66-.79,14.25-.87.87-5.76,1.59-7.35,0-3.67-3.52-.28-2.59-.5-5.68-.14-1.52-3.1.5-2.09-1.08,3.24-5.12-9.86-1.44-8.93-8.28S286,332.67,292.48,332.67Z"/><path class="cls-66" d="M233.66,341.89c6.26,13.1,39,33.91,54.65,34l-.58-16.78c-14.61-.07-43.27-8.78-51-21.38-2.24-3.67-6-2.09-3.1,4.1Z"/><path class="cls-67" d="M241.65,354.63c13.11,11.66,36.72,22.18,48.46,22.18l-1.66-19.16c-10.94-.07-30.09-4.1-42.26-11.44-1.66.93-3.75,4.89-4.54,8.35Z"/><path class="cls-46" d="M237.12,339.58c1.51-1.58.28-6.19-1.16-2.81-.21.58-1,3,.22,2.81.43-.07,1-.14.94-.07Z"/><path class="cls-28" d="M108,210.91c-37-1.87-62.43,45.37-39.6,75.46,16.63,22,41.83-18.86,7.92-8.85C43.86,287.09,72,338.93,96.71,343.4"/><rect class="cls-68" x="366.14" y="231" width="138.75" height="86.11" rx="5.47"/><path class="cls-46" d="M450.38,278.38l-9.93,5.76-10,5.76a4.94,4.94,0,0,1-6.77-1.8,5.28,5.28,0,0,1-.65-2.52h0v-23a5,5,0,0,1,5-5,4.77,4.77,0,0,1,2.81.87l9.72,5.61,10,5.76a5,5,0,0,1,1.8,6.77,5.16,5.16,0,0,1-1.87,1.87Z"/><polyline class="cls-69" points="434.62 62.66 587.69 9.74 699.15 60.58"/><polygon class="cls-70" points="630.89 35.66 630.89 60.58 544.49 60.58 544.49 35.66 587.69 9.74 630.89 35.66"/><rect class="cls-71" x="565.23" y="64.75" width="45" height="389.67"/><polygon class="cls-72" points="566.52 374.72 588.34 362.84 610.23 350.89 610.23 374.72 610.23 398.55 588.34 386.67 566.52 374.72"/><polygon class="cls-72" points="566.52 327.05 588.34 315.1 610.23 303.22 610.23 327.05 610.23 350.89 588.34 338.93 566.52 327.05"/><polygon class="cls-72" points="566.52 279.39 588.34 267.44 610.23 255.48 610.23 279.39 610.23 303.22 588.34 291.27 566.52 279.39"/><polygon class="cls-72" points="566.52 231.65 588.34 219.77 610.23 207.82 610.23 231.65 610.23 255.48 588.34 243.6 566.52 231.65"/><polygon class="cls-72" points="566.52 183.99 588.34 172.03 610.23 160.15 610.23 183.99 610.23 207.82 588.34 195.87 566.52 183.99"/><polygon class="cls-72" points="566.52 136.25 588.34 124.37 610.23 112.42 610.23 136.25 610.23 160.15 588.34 148.2 566.52 136.25"/><polygon class="cls-72" points="566.52 88.58 588.34 76.63 610.23 64.75 610.23 88.58 610.23 112.42 588.34 100.54 566.52 88.58"/><path class="cls-73" d="M557.6,396.1h60.26a3.12,3.12,0,0,1,3.1,3.1v27.29h19.8a3.12,3.12,0,0,1,3.09,3.09v29.09a3.11,3.11,0,0,1-3.09,3.1h-106a3.12,3.12,0,0,1-3.1-3.1V429.58a3.12,3.12,0,0,1,3.1-3.09h19.8V399.2a3.12,3.12,0,0,1,3.1-3.1Z"/><polygon class="cls-74" points="703.76 58.05 703.76 67.27 424.39 67.27 424.39 58.05 703.76 58.05"/><polyline class="cls-69" points="370.39 146.33 435.48 64.75 503.67 147.63"/><circle class="cls-75" cx="587.69" cy="9.74" r="5.04"/><circle class="cls-75" cx="435.48" cy="64.75" r="5.04"/><circle class="cls-75" cx="370.39" cy="146.33" r="5.04"/><circle class="cls-75" cx="503.67" cy="146.33" r="5.04"/><path class="cls-76" d="M403.58,271.9c.65-5.76,1.88-31-1.44-34.92-.14,21.38-17.49-4.39-17.49,16,0,11.81-14.76,22.54-18.58,8.28v50.41a5.47,5.47,0,0,0,5.47,5.47h30.17c-2.88-6.05-1.22-14.11-1.22-22.61,0-15.34,1.8-12.39,3-22.61Z"/><path class="cls-77" d="M426.84,321.08c14,6.05,54.51-.22,66.89-11l-12.1-12.89c-11.66,10.16-40.39,23.12-55.22,18.51C422.09,314.31,420.22,318.27,426.84,321.08Z"/><path class="cls-78" d="M442,325.61c18.5.15,39.17-6.84,48.53-15l-9.29-15.12c-8.71,7.56-26.71,17.64-41.4,20.3-.72,1.87.43,6.48,2.23,9.79Z"/><path class="cls-46" d="M427.92,316.83c.14-2.3-4.1-5.11-2.88-1.37.22.58,1.3,3.1,2.16,2.09C427.49,317.19,427.92,316.69,427.92,316.83Z"/><path class="cls-79" d="M400.85,273.63c3.53-1.66,9.65,4,20,26.71S442,354.13,438.5,355.78,418.42,328.93,408,306.32s-10.73-31-7.2-32.62Z"/><path class="cls-80" d="M403.15,278.6c3.53-1.66,5.33-5.33,1.87-13S391.7,252,391.13,246.27c-7.49,6.19.57,37.58,12.09,32.33Z"/><path class="cls-81" d="M388.1,262.32c1.3,1.3,1.44-2.95,2.09-3.24,1.37-.57,1.87-2.88,3.46-3.24,1.22-.36,3.53.29,4.61.8-3.46-3.68-6.77-7.06-7.13-10.3-2.23,1.87-3.1,6-2.88,10.73.14,2.52-.94,3.89-.07,5.33Z"/><path class="cls-82" d="M414.6,287.67l-12.1,5.54c1,2.59,2.16,5.55,3.6,8.79l12.82-5.91Q416.66,291.34,414.6,287.67Z"/><path class="cls-83" d="M511,405.1c1.58,1.08,3.17,1.88,3.17,2.88.14,2.31-3.1,14.19-6.12,14.4-4.83-1-2.81-11.37-3.53-13.75A60.34,60.34,0,0,1,511,405.1Z"/><path class="cls-84" d="M514.11,407.62a.68.68,0,0,1,.07.36c.14,2.31-3.1,14.19-6.12,14.4a.28.28,0,0,1-.22-.07h0c-.07,0-.14-.07-.21-.07h-.08c-.93-3.6.15-7.56,1.52-10.87C509.5,410.36,512.52,408.06,514.11,407.62Z"/><path class="cls-85" d="M475.87,333.61c-2.37,19.15,7.92,47.73,28.66,75A6.18,6.18,0,0,0,511,405.1c-7.78-13.68-13.46-38.16-15.91-52.92-2-11.73-3.6-32.9-19.3-18.57Z"/><path class="cls-83" d="M474.94,419.86c1.08,1.59,2.23,2.88,1.94,3.82-.72,2.16-7.92,12.1-10.87,11.3-4.18-2.66,1.44-11.59,1.58-14.11C470.69,420.51,472.2,420,474.94,419.86Z"/><path class="cls-84" d="M477,423.32a.66.66,0,0,1-.07.36c-.72,2.16-7.92,12.1-10.87,11.3-.07-.07-.14-.07-.22-.14h0c-.07-.07-.14-.07-.14-.14h0l-.07-.08c.43-3.67,2.81-7.05,5.25-9.64.72-.8,4.4-1.8,6.05-1.66Z"/><path class="cls-86" d="M467.67,340.52c-9.08,17.06-9.73,47.38-.08,80.35a6.34,6.34,0,0,0,7.35-1c-2.38-15.55,1.08-40.46,4.1-55.08,2.38-11.66,8.43-32-11.3-24.26Z"/><path class="cls-87" d="M470.47,297.32c-.36-6.48-7.13-1.16-9.72-8.86-4.53-13.82,19.3-23,18.51,1.66-.07,1.8-1.15,8.13-3.89,8.13-1,0-4.82.65-4.9-.86Z"/><path class="cls-88" d="M464.06,300.63c7.93-11.74,24.85-4.32,26.57,4.54,2.31,11.88,2,27.79,8.93,44.06-5.4,9-30.53,12.1-37.3,7.92.65-30.89-8.64-41,1.88-56.52Z"/><path class="cls-89" d="M421.94,331.66c14.55,4.68,54.22-5.4,65.6-17.35l-13.25-11.67c-10.66,11.17-38,26.79-53.28,23.62-4.47-.93-6,3.17.93,5.33Z"/><path class="cls-90" d="M437.42,334.76c18.44-1.59,43.49-12.17,52.06-21.1l-15.84-12.6c-7.92,8.35-24.91,20.09-39.31,24.19-.51,1.95,1,6.48,3.17,9.51Z"/><path class="cls-46" d="M422.66,327.34c-.07-2.3-4.53-4.68-3-1.08.22.58,1.59,2.95,2.38,1.87.21-.36.65-.86.65-.72Z"/><path class="cls-91" d="M468.17,281.62c-1.44-.22-4.11.72-6.55-.07-12.1-3.82-3.24-17.57,4-11.31,25.85,0,14.83,19.08,13.46,21s-2.73,2.3-6.48,1.15c-2.16-.65-2.66-4.11-2.16-6,1-3.31-1.58-4.32-2.23-2.23-.43,1.51,0-2.59-.14-2.59Z"/><path class="cls-81" d="M389.69,260.16c.36-.28.43-.93,1.29-.64s1.44.86,1.8-.72c.65-2.88,5.26-1.95,5.4-2.16-3.67-3.46-8.49.28-8.28,2.23a9.17,9.17,0,0,1-.28,1.29Z"/><path class="cls-92" d="M101.61,79.66c14.4-2.52,40.75-29.09,43.2-44.5L127.53,31C125.22,45.45,112,71.38,97.86,75.41c-4.1,1.22-3,5.4,3.82,4.25Z"/><path class="cls-93" d="M115.86,75.34c14-9.65,28.3-30.1,30.17-41.69l-19.94-3.82c-1.73,10.8-8.79,28.66-18.15,38.67C108.66,70.44,112.41,73.61,115.86,75.34Z"/><path class="cls-46" d="M99.74,75.62c-1.37-1.94-6.34-2-3,.36.51.36,3,1.88,3,.58C99.66,76.13,99.66,75.48,99.74,75.62Z"/><path class="cls-83" d="M113.06,124.15c1,1.66,2.08,2.95,1.72,3.82-.79,2.09-8.35,11.45-11.23,10.44-3.89-2.81,2-11.23,2.31-13.68C109,124.51,110.39,124.08,113.06,124.15Z"/><path class="cls-94" d="M148.41,62.74C143.51,70.94,102,77.35,101.25,91c-.72,13.39.79,17.64,4.61,33.77a6.11,6.11,0,0,0,7.2-.58c.21-9.14,1.44-23.54,3.24-28.08,1.44-6.69,19.58-3.38,27.29-11.52C148.55,79.37,148.12,72.46,148.41,62.74Z"/><path class="cls-83" d="M122.85,128.62c1,1.65,2.09,2.95,1.73,3.81-.8,2.09-8.36,11.45-11.24,10.44-3.88-2.8,2-11.23,2.31-13.68C118.74,129,120.18,128.54,122.85,128.62Z"/><path class="cls-95" d="M158.27,67.2c-4.89,8.21-46.37,14.62-47.16,28.3-.72,13.39.79,17.64,4.61,33.76a6.12,6.12,0,0,0,7.2-.57c.22-9.15,1.44-23.55,3.24-28.08,1.44-6.7,19.59-3.39,27.29-11.52C158.42,83.83,158,76.92,158.27,67.2Z"/><path class="cls-96" d="M125.87,23.21c4.75-6.27,11.16-6.12,16.56-3.39,15.56,8,17.64,37.8,16.35,52.56-5.76,8.5-31.25,10.37-37.66,5.91C123.35,48.12,114.78,37.82,125.87,23.21Z"/><path class="cls-97" d="M128.75,24.93c-2.88-5.68-6.84,1.8-12.17-4.1-9.57-10.58,8.07-28.15,17.14-5.9.65,1.58,2.23,7.7-.22,8.85C132.64,24.21,129.47,26.3,128.75,24.93Z"/><path class="cls-98" d="M125.8,10.32c-1.37.43-8.64,3.89-11.16,4.17-12.31,1.44-9.94-14.4-.94-11.66,23-10.3,22,10.66,21.46,12.82s1.22,2.59-2.52,3c-2.16.29-2.59-3.1-2.81-5-.43-3.38-2.45-2.16-2.23,0C127.74,15.14,125.87,10.25,125.8,10.32Z"/><path class="cls-99" d="M124.07,81.67c-1.94,0-25.41,1.87-25.7.72-1.37-5.33-2.45-4.61,7.41-4.61,2.38,0,15.41-1.8,16.64.36C122.92,79.08,124.07,79.44,124.07,81.67Z"/><path class="cls-100" d="M107.3,85.49C121.7,83,148.05,56.4,150.5,41l-17.28-4.18c-2.31,14.48-15.56,40.4-29.67,44.43-4.1,1.22-3,5.4,3.82,4.25Z"/><path class="cls-101" d="M121.62,81.24c14-9.65,28.3-30.1,30.17-41.69l-19.94-3.82c-1.73,10.8-8.79,28.66-18.15,38.67C114.42,76.34,118.17,79.51,121.62,81.24Z"/><path class="cls-46" d="M105.5,81.46c-1.37-1.95-6.34-2-3,.36.51.36,3,1.87,3,.57C105.42,82,105.42,81.31,105.5,81.46Z"/><path class="cls-102" d="M81.81,67.78a18.47,18.47,0,0,1,1-3.68c1.72,2,10.29,9.22,15.12,14a14.25,14.25,0,0,1,.5,4.32s-.5.15-.65,0C95.7,80.74,84.18,70.66,82.17,68.5a.82.82,0,0,1-.22-.72Z"/><path class="cls-80" d="M83.61,65.47C84.9,67,93.26,74.11,96.93,77.71a8.52,8.52,0,0,1,.36,3c0,.07-14.55-12.38-14.47-12.74Z"/><g class="cls-103"><polygon class="cls-104" points="97.29 80.68 82.81 67.94 94.12 33.93 123.14 58.49 97.29 80.68"/></g><rect class="cls-105" x="296.8" y="146.33" width="57.75" height="116.93" rx="3.67"/><rect class="cls-106" x="296.8" y="274.92" width="57.75" height="42.19" rx="2.66"/><rect class="cls-107" x="301.63" y="153.3" width="48.03" height="31.39" rx="2.02"/><rect class="cls-107" x="301.63" y="189.09" width="48.03" height="31.39" rx="2.02"/><rect class="cls-107" x="301.63" y="224.88" width="48.03" height="31.39" rx="2.02"/><path class="cls-108" d="M160.43,146.33h103a17.42,17.42,0,0,1,17.42,17.42h0a17.42,17.42,0,0,1-17.42,17.43h-103A17.42,17.42,0,0,1,143,163.75h0A17.42,17.42,0,0,1,160.43,146.33Z"/><circle class="cls-109" cx="170.8" cy="163.75" r="8.06"/><circle class="cls-109" cx="198.23" cy="163.75" r="8.06"/><circle class="cls-109" cx="225.67" cy="163.75" r="8.06"/><circle class="cls-109" cx="253.1" cy="163.75" r="8.06"/><path class="cls-110" d="M406.32,409.14h32.47l-1.29,28.65c-.15,2.59-1.95,4.68-4.25,4.68H411.94c-2.31,0-4.11-2.09-4.25-4.68l-1.3-28.65Z"/><path class="cls-81" d="M406.32,409.14c.5,4,1.66,8.42,4,9.86a3.18,3.18,0,0,0,3.31,0,6.74,6.74,0,0,0,1.44-.94c2.81-2.16,6.48-4,9.22-1.15a9.55,9.55,0,0,0,2.81,2,6,6,0,0,0,3.31.5c3.45-.5,6.41-4.25,7.77-9.36.08-.36.51-.5.58-1H406.25Z"/><path d="M406.46,412.66a17.9,17.9,0,0,0-1.87,7.35,7.09,7.09,0,0,0,.36,2.23,3.23,3.23,0,0,0,.94,1.51,4.33,4.33,0,0,0,3.17,1.08c2.95,0,6.69-1.8,10.36-4.75a40.78,40.78,0,0,0,9.36-10.66c.22-.28-.14.29,0,0l1.73.22a45.32,45.32,0,0,1-10.29,12c-3.89,3.1-7.92,5-11.16,5a5.38,5.38,0,0,1-4-1.51,5.8,5.8,0,0,1-1.44-2.3,10.22,10.22,0,0,1-.43-3c0-2.88,1.08-6.55,3.24-10.51l.15,3.24Z"/><path class="cls-111" d="M217.75,44.45a6.05,6.05,0,0,1,1.72.72l1.73-1c.08-.07.22-.07.36.07l.51.5.29.29.5.51c.14.14.14.28.07.36l-1,1.72a6.12,6.12,0,0,1,.72,1.73l2,.58c.14,0,.21.14.21.29v1.87c0,.14-.07.29-.21.29l-2,.57a6,6,0,0,1-.72,1.73l1,1.73c.07.07.07.21-.07.36l-.5.5-.29.29-.51.51c-.14.14-.28.14-.36.07l-1.73-1a6.05,6.05,0,0,1-1.72.72l-.58,1.94c0,.15-.14.22-.29.22H215c-.14,0-.29-.07-.29-.22l-.57-1.94a6,6,0,0,1-1.73-.72l-1.73,1c-.07.07-.22.07-.36-.07l-.5-.51-.29-.29-.51-.5c-.14-.15-.14-.29-.07-.36l1-1.73a6,6,0,0,1-.72-1.73l-1.94-.57c-.15,0-.22-.15-.22-.29V50.21c0-.15.07-.29.22-.29l1.94-.58a6.12,6.12,0,0,1,.72-1.73l-1-1.72c-.07-.08-.07-.22.07-.36l.51-.51.29-.29.5-.5c.14-.14.29-.14.36-.07l1.73,1a6,6,0,0,1,1.73-.72l.57-2c0-.14.15-.21.29-.21h1.87c.15,0,.29.07.29.21Zm-1.8,2.3a4.54,4.54,0,1,1-4.54,4.54A4.52,4.52,0,0,1,216,46.75Z"/><path class="cls-112" d="M113,183.63a6.91,6.91,0,1,0-6.91,6.91A6.91,6.91,0,0,0,113,183.63Z"/><path class="cls-113" d="M102,184a.92.92,0,1,1,1.3-1.3l1.8,1.8,3.67-3.67a.91.91,0,1,1,1.29,1.29l-4.32,4.32a.91.91,0,0,1-1.29,0Z"/><path class="cls-114" d="M336,75.19a6.91,6.91,0,1,0-6.91,6.91A6.91,6.91,0,0,0,336,75.19Z"/><path class="cls-113" d="M325,75.55a.91.91,0,0,1,0-1.29.92.92,0,0,1,1.3,0l1.8,1.8,3.67-3.68a.91.91,0,0,1,1.29,0,.92.92,0,0,1,0,1.3L328.77,78a.91.91,0,0,1-1.29,0Z"/><path class="cls-115" d="M423.53,28.89a6.76,6.76,0,0,1,1.73.72l1.72-1c.08-.08.22-.08.36.07l.51.5.29.29.5.5c.14.15.14.29.07.36l-1,1.73a6.12,6.12,0,0,1,.72,1.73l1.95.58c.14,0,.21.14.21.28v1.88c0,.14-.07.28-.21.28l-1.95.58a6.12,6.12,0,0,1-.72,1.73l1,1.73c.07.07.07.21-.07.36l-.5.5-.29.29-.51.5c-.14.15-.28.15-.36.07l-1.72-1a6.76,6.76,0,0,1-1.73.72L423,44.23c0,.14-.14.22-.29.22h-1.87c-.14,0-.29-.08-.29-.22l-.57-1.94a6.61,6.61,0,0,1-1.73-.72l-1.73,1c-.07.08-.21.08-.36-.07l-.5-.5-.29-.29-.5-.5c-.15-.15-.15-.29-.08-.36l1-1.73a6.42,6.42,0,0,1-.72-1.73l-1.94-.58c-.15,0-.22-.14-.22-.28V34.65c0-.14.07-.28.22-.28l1.94-.58a6.42,6.42,0,0,1,.72-1.73l-1-1.73c-.07-.07-.07-.21.08-.36l.5-.5.29-.29.5-.5c.15-.15.29-.15.36-.07l1.73,1a6.61,6.61,0,0,1,1.73-.72L420.5,27c0-.14.15-.22.29-.22h1.87c.15,0,.29.08.29.22Zm-1.8,2.31a4.54,4.54,0,1,1-4.54,4.53A4.51,4.51,0,0,1,421.73,31.2Z"/><path class="cls-116" d="M34.72,283.42a6.12,6.12,0,0,1,1.73.72l1.72-1c.08-.07.22-.07.36.07l.51.51.29.29.5.5c.14.14.14.29.07.36l-1,1.73a6,6,0,0,1,.72,1.73l2,.57c.14,0,.21.15.21.29v1.87c0,.15-.07.29-.21.29l-2,.58a6.05,6.05,0,0,1-.72,1.72l1,1.73c.07.07.07.22-.07.36l-.5.51-.29.28-.51.51c-.14.14-.28.14-.36.07l-1.72-1a6.12,6.12,0,0,1-1.73.72l-.58,1.95c0,.14-.14.21-.29.21H32c-.14,0-.29-.07-.29-.21l-.57-1.95a6,6,0,0,1-1.73-.72l-1.73,1c-.07.07-.21.07-.36-.07l-.5-.51-.29-.28-.5-.51c-.15-.14-.15-.29-.08-.36l1-1.73a6.35,6.35,0,0,1-.72-1.72l-1.94-.58c-.15,0-.22-.14-.22-.29v-1.87c0-.14.07-.29.22-.29l1.94-.57a6.29,6.29,0,0,1,.72-1.73l-1-1.73c-.07-.07-.07-.22.08-.36l.5-.5.29-.29.5-.51c.15-.14.29-.14.36-.07l1.73,1a6,6,0,0,1,1.73-.72l.57-1.94c0-.15.15-.22.29-.22h1.87c.15,0,.29.07.29.22Zm-1.8,2.3a4.54,4.54,0,1,1-4.54,4.54A4.52,4.52,0,0,1,32.92,285.72Z"/><path class="cls-117" d="M76.55,358.59a6.91,6.91,0,1,0-6.91,6.91A6.91,6.91,0,0,0,76.55,358.59Z"/><path class="cls-113" d="M65.61,359a.92.92,0,0,1,0-1.3.91.91,0,0,1,1.29,0l1.8,1.8,3.68-3.67a.91.91,0,0,1,1.29,0,.92.92,0,0,1,0,1.3l-4.32,4.32a.91.91,0,0,1-1.29,0Z"/><path class="cls-118" d="M550.4,246.63a6.92,6.92,0,1,0-6.92,6.91A6.91,6.91,0,0,0,550.4,246.63Z"/><path class="cls-113" d="M539.45,247.06a.92.92,0,0,1,1.3-1.3l1.8,1.8,3.67-3.67a.92.92,0,0,1,1.3,1.3l-4.33,4.32a.91.91,0,0,1-1.29,0Z"/></g><path class="cls-3" d="M527,498.63l-2.23-3.45-.21-.22-.44-.14h-.43l-2.81.07-1.65.07-2.81.07-.43.08-.43.14-.22.22-1.87,3.6-.43.07-.44.07-.43.07-.43.07-.43.08-.43.07-.44.07-.43.07-.43.07-.36.08-.36.07-.36.07-.36.07-.36.15-.36.14-.36.14-6.84-1.65h-.65l-.5.14-1.95,1-1.15.65-2.16,1.15-.14.29.14.21,3.75,3.1-.22.22-.22.21-.21.22-.22.21-.21.22-.22.22-.14.21-.08.07-.07.15-.14.21-.15.22-.14.22-.14.21-.15.22-.14.21v.08l-.07.14-.15.22L487.61,510l-.43.14-.29.22-.07.22v3.6l.07.21.29.22.43.14,4.54.51,2.8.28.15.22.14.22.15.21.14.22.14.21.15.22.14.22.15.21.14.22.22.21.21.22.22.22.21.21.22.22.22.21.21.22-1.8,1.73-.93.86-1.08,1v.29l.28.21,2,.94,1.22.58,1,.5,1.23.58.64.07.51-.07,6.62-2.09.36.07.36.07.36.07.43.08.44.07.43.07.43.07h.14l.29.07.43.08.44.07.43.07.43.07.43.07.43.08.44.07.43.07.43.72,1.8,3,.29.22.43.14h.43l2.88-.07,1.73-.07,2.88-.07.43-.08.43-.14.22-.22,1.3-2.66.57-1.15.43-.07.44-.08.43-.07.43-.07.43-.07.43-.07.44-.08.43-.07.43-.07.43-.07.43-.07.36-.15.36-.14.36-.15.36-.14.36-.14.15.07,6.91,1.73h.65l.5-.15,2-1.08.28-.14.87-.51.07-.07,2.09-1.15.07-.36L548,521l-.58-.43-3.46-2.73.22-.22.22-.22.21-.21.22-.22.14-.21.15-.22.14-.22.14-.21.15-.22.14-.21.15-.22.14-.22.14-.21.15-.22.14-.21.07-.22,3.61-.58,3.67-.64.43-.15.29-.21.07-.22-.14-1.37-.08-.86-.14-1.37-.07-.22-.29-.21-.43-.07-6.56-.72-.86-.08-.14-.21-.15-.22-.14-.21-.15-.22-.14-.22-.14-.21-.15-.22-.21-.21-.22-.22-.22-.22-.21-.21-.22-.22-.21-.21-.22-.22-.22-.22-.21-.14.07-.07,3.53-3.39v-.28l-.36-.22-2.09-.94-1.22-.57-2.31-1-.65-.07-.5.07L533,499.71l-.36-.07-.36-.07-.36-.07-.36-.07-.43-.08-.43-.07-.43-.07-.44-.07-.43-.07L529,499l-.43-.07-.43-.07-.44-.07-.43-.07-.43-.08-.43-.07ZM520.44,503H523l.87.08.79.07.79.07.79.14.8.15.43.07.29.07.72.15.72.21.72.22.64.21.65.22.65.22.58.28.57.29.58.29.5.29.51.29.43.36.43.36.43.36.36.36.36.36.29.36.29.36.21.43.15.43.14.43.07.43.08.44v.43l-.08.43-.07.43-.14.43-.15.44-.14.36v.07l-.22.43-.28.36-.29.36-.36.36-.36.36-.43.36-.44.36-.5.36-.5.36-.58.29-.58.29-.57.28-.65.29-.65.29-.72.22-.72.21-.72.22-.72.21-.79.15-.79.14-.79.15-.87.14-.86.07-.87.07-.86.08h-3.46l-.86-.08-.86-.07-.8-.07-.79-.14-.79-.15-.79-.14-.72-.15-.72-.21-.72-.22-.65-.21-.65-.22-.65-.22-.57-.28-.58-.29-.57-.29-.51-.29-.5-.29-.43-.36-.44-.36-.36-.36-.14-.14-.22-.29-.28-.36-.29-.36-.22-.43-.21-.43-.15-.43-.14-.44-.07-.43v-.86l.07-.43.07-.44.14-.43.15-.43.21-.43.29-.43.29-.36.36-.36.36-.36.43-.36.43-.36.44-.36.5-.36.36-.22.14-.07.58-.29.58-.29.57-.29.65-.28.65-.22.65-.22.72-.21.72-.22.72-.21.79-.15.65-.14h.14l.79-.15.79-.14.87-.07L519,503l.87-.08h.57Z"/><path class="cls-119" d="M532.18,504.83l.43.07.43.07.36.07.36.07.36.08.36.07.36.07.36.07.36.07.36.08.36.07.36.07.36.07.36.07.36.08.36.07,6.27-1.59h.86l.14.08.15.07,1.87.93,1.08.58,1.87.94.15.07.07.07.07.07v.22l-.07.07-.07.07-3.6,2.95.21.15.22.21.22.22.21.22.15.21.14.22.14.21.15.22.14.22.15.21.14.22.14.21.15.22.14.22.15.21.07.22,6.84,1.08h.14l.15.07.14.07.14.07.08.08.07.07.07.07v3.53L557,519l-.07.07-.08.07-.14.08-.14.07h-.29l-7,.79-.14.22-.14.21-.15.22-.14.21-.15.22-.14.22-.14.21-.15.22L548,522l-.15.22-.21.22-.22.21-.22.15-.21.14-.22.14-.21.15,3.45,3.17.08.07.07.07v.22l-.07.07-.08.07-.14.07-1.94.94-1.16.57-1.94.94-.15.07-.14.07h-.72l-.14-.07-6.27-1.87-.36.07-.36.07-.36.08-.36.07-.36.07-.36.07-.36.07-.36.08-.36.07-.43.07-.43.07-.43.07-.44.08-.43.07-.43.07-.43.07-2.16,3.46-.07.07-.08.07-.07.07-.14.08-.15.07h-.57l-2.74-.07h-1.65l-2.74-.08h-.43l-.15-.07-.14-.07-.14-.07-.08-.07-.07-.08-.07-.07-1.73-3.53-.43-.07-.43-.07-.43-.07-.44-.07-.43-.08-.36-.07L515,528l-.36-.07-.36-.07-.36-.08-.36-.07-.36-.07-.36-.07-.36-.07-.36-.08-.36-.14L505.32,529h-.86l-.15-.08-.14-.07-1.87-1-1.08-.57-1.87-1-.15-.07-.07-.07-.07-.08v-.21l.07-.07.07-.08,3.82-3-.22-.22-.21-.21-.15-.22-.14-.21-.15-.22-.14-.22-.14-.21-.15-.22-.14-.21-.15-.22-.14-.22-.14-.21-.15-.22-.14-.21-.07-.22-.08-.22-6.84-1.08h-.14l-.14-.07-.15-.07-.14-.07-.07-.07-.08-.08-.07-.07v-.07l.15-1.3.07-.79.14-1.29v-.08l.07-.07.08-.07.07-.07.14-.07.15-.08h.28l7-.79.14-.21.15-.22.14-.22.14-.21.15-.22.14-.21.15-.22.14-.22.14-.21.22-.22.22-.14.21-.15.22-.14.21-.14.22-.15.22-.14-3.24-3.1-.08-.07-.07-.07v-.15l.07-.07.08-.07.07-.07.14-.07,1.95-.87,1.15-.5L506,504l.15-.07.14-.07h.72l.14.07,6.05,1.8.36-.07.36-.07.36-.07.36-.08.36-.07.36-.07.36-.07.36-.07.36-.08.36-.07.36-.07.36-.07.43-.07.44-.08.43-.07.43-.07,2.09-3.24.07-.07.07-.07.07-.08.15-.07.14-.07h.58l2.66.07h1.59l2.66.07h.36l.14.08.15.07.14.07.07.07.08.07.07.08,1.73,3.31Zm-6.63,3.74h.8l.79.07.79.07.79.08.79.07.8.14.72.15.72.14.72.14.72.22.64.22.65.21.65.22.58.21.57.29.58.29.5.29.51.29.43.28.43.29.43.36.36.36.36.36.29.36.29.36.21.36.22.36.14.36.15.36.07.43.07.44v.43l-.07.43-.07.43-.15.43-.14.36-.22.36-.21.36-.29.36-.29.36-.36.36-.36.36-.43.36-.43.29-.43.29-.51.29-.5.29-.58.28-.57.29-.58.22-.65.21-.65.22-.64.22-.72.14-.72.14L531,524l-.72.14-.8.15-.79.07-.79.07-.79.07h-3.39l-.79-.07-.79-.07-.79-.07-.79-.08-.8-.14-.72-.14-.72-.15-.72-.14-.72-.22-.64-.21-.65-.22-.65-.22-.58-.21-.57-.29-.58-.29-.5-.29-.51-.28-.43-.29-.43-.29-.43-.36-.36-.36-.36-.36-.29-.36-.29-.36-.21-.36-.22-.36-.14-.36-.15-.36-.07-.43v-.87l.07-.43.07-.43.15-.36.14-.36.22-.36.21-.36.29-.36.29-.36.36-.36.36-.36.43-.29.43-.29.51-.28.5-.29.51-.29.57-.29.58-.21.57-.22.65-.22.65-.21.65-.22.72-.14.72-.15.72-.14.72-.14.72-.08.79-.07.79-.07.79-.07h2.38Z"/><g id="_365036208" data-name=" 365036208"><polygon class="cls-120" points="550.75 507.49 550.39 502.02 550.39 502.31 546.65 505.33 547.08 510.8 550.68 507.85 550.75 507.49"/><polygon class="cls-121" points="557.16 515.41 556.73 509.94 556.73 511.23 557.09 516.78 557.16 515.41"/><polygon class="cls-122" points="557.09 516.78 556.73 511.23 556.66 512.03 557.09 517.57 557.09 516.78"/><polygon class="cls-123" points="557.09 517.57 556.66 512.03 556.66 513.39 556.59 513.54 556.3 513.75 555.87 513.9 548.88 514.69 549.32 520.16 556.3 519.37 556.73 519.23 557.02 519.08 557.09 518.87 557.09 517.57"/><polygon class="cls-124" points="550.25 526.57 549.82 521.03 549.67 521.39 547.51 522.39 547.95 527.87 549.89 527 550.25 526.57"/><polygon class="cls-125" points="547.95 527.87 547.51 522.39 546.36 522.9 546.79 528.44 547.95 527.87"/><polygon class="cls-126" points="549.32 520.16 548.88 514.69 548.74 514.83 548.67 515.05 548.52 515.27 548.38 515.48 548.24 515.63 548.09 515.84 547.95 516.06 547.73 516.2 547.59 516.42 547.37 516.56 547.23 516.78 547.01 516.92 546.87 517.14 546.65 517.28 546.43 517.5 546.22 517.64 546.65 523.19 546.87 522.97 547.08 522.83 547.3 522.61 547.44 522.47 547.66 522.25 547.88 522.11 548.02 521.89 548.16 521.75 548.38 521.53 548.52 521.31 548.67 521.17 548.81 520.95 548.96 520.74 549.1 520.59 549.17 520.38 549.32 520.16"/><polygon class="cls-127" points="546.79 528.44 546.36 522.9 544.42 523.83 543.91 523.98 543.27 523.98 536.79 521.96 537.29 527.51 543.55 529.45 544.35 529.52 544.85 529.38 546.79 528.44"/><polygon class="cls-128" points="537.29 527.51 536.79 521.96 536.43 522.11 536.07 522.18 535.71 522.25 535.27 522.32 534.91 522.47 534.55 522.54 534.12 522.61 533.76 522.68 533.33 522.75 532.97 522.83 532.54 522.9 532.18 522.9 531.75 522.97 531.32 523.04 530.96 523.11 530.52 523.11 530.96 528.66 531.39 528.59 531.82 528.59 532.25 528.51 532.61 528.44 533.04 528.37 533.4 528.3 533.84 528.23 534.2 528.23 534.63 528.08 534.99 528.01 535.42 527.94 535.78 527.87 536.14 527.79 536.5 527.72 536.86 527.58 537.29 527.51"/><polygon class="cls-129" points="530.96 528.66 530.52 523.11 528.36 526.57 528.15 526.79 527.72 526.93 527.28 526.93 524.55 526.86 525.05 532.4 527.79 532.48 528.15 532.48 528.58 532.33 528.87 532.12 530.96 528.66"/><polygon class="cls-130" points="525.05 532.4 524.55 526.86 522.89 526.86 523.39 532.4 525.05 532.4"/><polygon class="cls-131" points="523.39 532.4 522.89 526.86 520.15 526.79 519.79 526.71 519.36 526.57 519.15 526.35 517.42 522.83 517.92 528.37 519.65 531.9 519.87 532.12 520.3 532.26 520.66 532.33 523.39 532.4"/><polygon class="cls-132" points="517.92 528.37 517.42 522.83 516.99 522.83 516.63 522.75 516.19 522.68 515.76 522.61 515.4 522.54 514.97 522.39 514.61 522.32 514.25 522.25 513.82 522.18 513.46 522.03 513.1 521.96 512.74 521.89 512.38 521.75 511.95 521.67 511.59 521.53 511.3 521.46 511.73 527 512.09 527.07 512.45 527.22 512.81 527.29 513.24 527.43 513.6 527.51 513.96 527.58 514.32 527.72 514.75 527.79 515.11 527.87 515.47 527.94 515.91 528.01 516.27 528.08 516.7 528.15 517.06 528.23 517.49 528.3 517.92 528.37"/><polygon class="cls-133" points="511.73 527 511.3 521.46 504.82 523.11 504.31 523.11 503.74 523.04 501.65 521.96 502.15 527.51 504.03 528.51 504.82 528.66 505.32 528.59 511.73 527"/><polygon class="cls-134" points="502.15 527.51 501.65 521.96 500.57 521.39 501.07 526.93 502.15 527.51"/><polygon class="cls-135" points="501.07 526.93 500.57 521.39 498.7 520.38 498.41 520.16 498.99 525.63 499.2 525.92 501.07 526.93"/><polygon class="cls-136" points="502.87 522.25 502.37 516.71 502.15 516.56 502.01 516.35 501.79 516.2 501.65 515.99 501.51 515.77 501.29 515.63 501.15 515.41 501 515.19 500.86 515.05 500.71 514.83 500.57 514.62 500.5 514.47 500.35 514.26 500.28 514.04 500.14 513.83 500.07 513.61 500.57 519.15 500.64 519.37 500.79 519.51 500.86 519.73 501 519.95 501.15 520.16 501.22 520.31 501.36 520.52 501.51 520.74 501.65 520.95 501.79 521.1 502.01 521.31 502.15 521.46 502.3 521.67 502.51 521.89 502.73 522.03 502.87 522.25"/><polygon class="cls-137" points="500.57 519.15 500.07 513.61 493.23 512.53 492.79 512.46 492.51 512.24 492.43 512.03 493.01 517.5 493.01 517.71 493.3 517.93 493.73 518.07 500.57 519.15"/><polygon class="cls-138" points="503.88 509.87 503.38 504.39 500.07 501.37 499.99 501.15 500.5 506.55 500.57 506.77 503.88 509.87"/><polygon class="cls-139" points="525.55 508.64 525.05 503.17 525.91 503.17 526.71 503.24 527.5 503.31 528.29 503.39 529.08 503.46 529.88 503.6 530.6 503.75 531.32 503.89 532.03 504.11 532.68 504.25 533.33 504.47 533.98 504.68 534.63 504.9 535.2 505.19 535.78 505.4 536.36 505.69 536.86 505.98 537.36 506.27 537.79 506.55 538.3 506.84 538.66 507.2 539.02 507.56 539.38 507.85 539.67 508.21 539.96 508.57 540.24 509 540.39 509.36 540.6 509.72 540.67 510.15 540.82 510.51 540.82 510.95 541.25 516.42 541.25 515.99 541.18 515.63 541.03 515.19 540.89 514.83 540.67 514.47 540.39 514.04 540.17 513.68 539.81 513.32 539.52 513.03 539.09 512.67 538.73 512.31 538.3 512.03 537.79 511.74 537.29 511.45 536.79 511.16 536.28 510.87 535.71 510.59 535.06 510.37 534.48 510.15 533.84 509.94 533.19 509.72 532.47 509.51 531.75 509.36 531.03 509.22 530.31 509.07 529.51 508.93 528.79 508.86 528 508.79 527.21 508.71 526.35 508.64 525.55 508.64"/><polygon class="cls-140" points="508.99 516.92 508.49 511.45 508.42 511.09 508.42 510.66 508.49 510.23 508.56 509.87 508.71 509.43 508.92 509.07 509.07 508.71 509.35 508.35 509.64 507.99 509.93 507.63 510.29 507.27 510.65 506.91 511.08 506.63 511.51 506.34 512.02 506.05 512.52 505.76 513.03 505.47 513.6 505.19 514.18 504.97 514.75 504.75 515.4 504.54 515.98 504.32 516.7 504.11 517.35 503.96 518.07 503.82 518.79 503.67 519.51 503.53 520.3 503.39 521.02 503.31 521.81 503.24 522.6 503.17 523.47 503.17 524.26 503.17 525.05 503.17 525.55 508.64 524.76 508.64 523.9 508.64 523.11 508.64 522.31 508.71 521.52 508.79 520.73 508.86 520.01 509 519.29 509.07 518.57 509.22 517.85 509.36 517.13 509.58 516.48 509.79 515.83 509.94 515.26 510.15 514.61 510.44 514.03 510.66 513.53 510.95 512.95 511.23 512.45 511.45 512.02 511.81 511.59 512.1 511.15 512.39 510.79 512.75 510.43 513.11 510.15 513.47 509.86 513.83 509.57 514.19 509.35 514.55 509.21 514.91 509.07 515.34 508.99 515.7 508.92 516.13 508.92 516.56 508.99 516.92"/><path class="cls-141" d="M531.67,499.43l.44.07.43.07.36.07.36.07.36.08.36.07.36.07.36.07.36.07.36.08.36.07.36.07.36.07.36.07.36.08.36.07,6.26-1.59.43-.07.58.07,2,1.08,1.08.58,1.87.94.29.21v.29l-3.75,3,.22.15.21.14.22.22.22.21.14.22.15.22.14.21.14.22.15.21.14.22.15.22.14.21.14.22.15.21.14.22.07.22,6.92,1.08.43.14.29.22.07.21v3.39l-.07.21-.29.22-.43.07-7,.79-.14.22-.15.21-.14.22-.14.22-.15.21-.14.22-.15.21-.14.22-.14.22-.15.21-.22.22-.21.21-.22.15-.21.14-.22.15-.22.14,3.46,3.17.15.21-.15.29-2.16,1-1.15.58-2,.93-.5.15h-.58l-6.48-1.95-.36.07-.36.08-.36.07-.36.07-.36.07-.36.07-.36.08-.36.07-.36.07L533,523l-.43.07-.43.08-.43.07-.44.07-.43.07-.43.07-2.16,3.46-.22.22-.43.14h-.36l-2.73-.07h-1.66l-2.74-.07-.36-.08-.43-.14-.21-.22-1.73-3.52-.43-.08-.44-.07-.43-.07-.43-.07-.43-.07-.36-.08-.36-.07-.36-.07-.36-.07-.36-.07-.36-.08-.36-.07-.36-.07-.36-.07-.36-.07-.36-.15-6.48,1.66-.51.07-.64-.07-2-1.08-1.08-.58-1.87-1-.29-.21v-.29l4-3.1-.22-.21-.21-.22-.22-.21-.14-.22-.15-.22-.14-.21-.14-.22-.15-.21-.14-.22-.15-.22-.14-.21-.14-.22-.15-.21-.14-.22-.07-.22-.08-.21-6.84-1.08-.43-.15-.29-.21-.07-.22.15-1.29.07-.8.14-1.29.07-.22.29-.21.43-.08,7-.79.14-.21.15-.22.14-.22.14-.21.15-.22.14-.21.15-.22.14-.22.14-.21.22-.22.22-.14.21-.15.22-.14.21-.14.22-.15.22-.14-3.24-3.1-.15-.21.15-.29,2.16-.94,1.15-.5,1.94-.87.51-.14h.57l6.27,1.87.36-.07.36-.07.36-.07.36-.08.36-.07.36-.07.36-.07.36-.07.36-.08.36-.07.36-.07.43-.07.43-.07.43-.08.43-.07.44-.07,2.08-3.24.22-.22.43-.14h.36l2.67.07h1.58l2.66.07.36.08.44.14.21.22,1.73,3.31Zm-6.62,3.74h.79l.79.07.8.07.79.08.79.07.79.14.72.15.72.14.72.14.72.22.65.22.65.21.65.22.57.21.58.29.57.29.51.29.5.29.43.28.44.29.43.36.36.36.36.36.29.36.28.36.22.36.22.36.14.36.14.36.08.43.07.44v.43l-.07.43-.08.43-.14.36-.14.36-.22.36-.22.36-.28.36-.29.36-.36.36-.36.36-.43.36-.44.29-.43.29-.5.29-.51.28-.57.29-.58.29-.57.22-.65.21-.65.22-.65.21-.72.15-.72.14-.72.15-.72.14-.79.14-.79.08-.79.07-.8.07h-3.38l-.79-.07-.79-.07-.8-.08-.79-.07-.79-.14-.72-.15-.72-.14-.72-.14-.72-.22-.65-.22-.65-.21-.64-.22-.58-.21-.58-.29-.57-.29-.51-.29-.5-.29-.43-.28-.43-.29-.44-.36-.36-.36-.36-.36-.28-.36-.29-.36-.22-.36-.21-.36-.15-.36-.14-.36-.07-.43v-.87l.07-.43.07-.43.14-.36.15-.36.21-.36.22-.36.29-.36.29-.36.36-.36.36-.36.43-.29.43-.29.5-.29.51-.28.5-.29.58-.29.57-.22.58-.21.65-.22.65-.21.64-.22.72-.14L518,504l.72-.14.72-.15.72-.07.8-.07.79-.07.79-.07h2.38Z"/></g><path class="cls-3" d="M94.7,479.63l-2-3-.22-.14-.43-.07h-.36l-2.59.28-1.58.15-2.6.29-.36.07-.43.14-.21.22-1.73,3.38-.36.07-.36.08-.36.07-.36.07-.36.07-.36.07-.36.15-.36.14-.36.15-.36.14-.36.14-.36.15-.36.14-.36.15-.36.14-.36.14-6.27-1.08-.57.08-.43.21-1.8,1.08-1.08.65-2,1.22-.14.29.14.22,3.46,2.59-.22.22-.22.21-.21.22-.15.21-.14.22-.14.22-.15.21-.07.07-.07.15-.15.21-.14.22-.14.22-.15.21-.14.22-.15.21h0l-.07.15-.07.21L58.62,493l-.43.14-.29.22-.07.21V497l.07.21.29.15.43.07,4.18.14,2.59.08.15.21.14.22.14.21.15.22.14.14.15.15.14.14.14.15.15.14.14.14.15.15.21.14.22.15.21.14.22.14.22.15L66.4,502l-.86.86-1,1v.29l.29.21,1.87.72,1.15.43.94.36,1.15.44h.57l.44-.15,6.12-2.37.36.07.36.07.36.07.36.07.36.08.36.07.36.07h.36l.36.07h2.8l.44.65,1.65,2.59.22.22.43.07h.36l2.66-.29,1.59-.14,2.66-.29.36-.07.43-.22.22-.21,1.22-2.52.51-1.08.43-.08.43-.07.36-.07.36-.07.36-.07.36-.15.36-.14.36-.15.36-.14.36-.14.36-.15.36-.14.36-.15.36-.14.36-.14.36-.15h.15l6.33,1.08.58-.07.5-.22,1.8-1.15.29-.14.79-.51.07-.07,1.95-1.22.07-.29-.14-.22-.51-.36-3.17-2.3.22-.22.22-.21L111,495l.14-.21.15-.22.14-.22.15-.21.14-.22.14-.21.15-.22.14-.22.15-.21.14-.22.14-.21.08-.22.07-.22,3.31-.79,3.38-.79.44-.14.28-.22.08-.22-.08-1.29-.07-.79-.07-1.3-.07-.14-.29-.15-.43-.07-6-.22h-.79l-.15-.21-.14-.22-.14-.14-.15-.15-.14-.14-.15-.14-.14-.15-.14-.14-.15-.15-.14-.14-.22-.14-.21-.15-.22-.14-.22-.15-.21-.14-.22-.14.07-.08L113,480.2v-.29l-.28-.21-1.88-.72-1.15-.43-2.09-.8H107l-.43.15-5.91,2.23-.36-.07L100,480l-.36-.08-.36-.07-.36-.07-.36-.07-.36-.07-.36-.08-.36-.07H94.91Zm-6,4.46.79-.07.79-.07h3.1l.72.07.72.07.43.07h.29l.72.07.65.15.64.14.65.15.58.14.57.22.58.21.5.22.51.21.5.22.43.29.44.29.43.28.36.29.36.29.29.29.28.36.22.36.22.36.14.36.14.36.08.36.07.43v.43l-.07.43-.08.44-.14.43-.14.36-.15.36v.07l-.21.36-.29.36-.29.36-.36.36-.36.36-.36.36-.43.36-.43.36L101,496l-.5.36-.51.29-.57.29-.58.28-.57.29-.65.29-.65.29-.65.21-.72.22-.72.22-.72.21-.72.22-.79.14-.79.15-.79.14-.8.14-.79.08-.79.07-.79.07H84.76l-.72-.07-.72-.07-.72-.08-.72-.07-.65-.14-.65-.15-.64-.14-.58-.14-.58-.22-.57-.22-.51-.21-.5-.22-.5-.21-.44-.29-.43-.29-.36-.29-.36-.29-.07-.07-.22-.21-.28-.36-.29-.36-.22-.36-.21-.36-.15-.36-.14-.36-.07-.36v-.87l.07-.43.07-.43.14-.36.15-.36.21-.36.22-.36.29-.36.29-.36.36-.36.36-.36.43-.36.43-.36.43-.36.29-.22.14-.14.51-.29.5-.29.58-.29.57-.28.58-.29.65-.29.65-.22.64-.21.72-.22.72-.21.58-.15.14-.07.72-.14.72-.15.8-.14.79-.15.79-.14.79-.07Z"/><path class="cls-142" d="M99.45,485h1.08l.36.07.36.07.36.07.36.07.36.08.36.07.36.07.36.07.36.07.36.08.36.07.36.07.29.07,5.76-1.87L111,484h.86l.15.07,1.73.72,1,.43,1.73.72.15.07.07.08.07.07v.21l-.07.08-.07.07-3.32,2.95.22.14.14.15.15.14.14.15.15.14.14.14.14.15.15.14.14.15.15.14.14.14.14.15.15.14.14.15.07.14.08.14,6.33.51h.29l.14.07.08.07.07.07.07.08.07.07V496l-.07.07-.07.07-.07.08-.15.07-.14.07-.15.07h-.14l-6.41,1.23-.14.21-.15.22-.14.21-.14.22-.15.22-.14.21-.15.22-.14.21-.14.22-.15.22-.14.21-.15.22-.14.14-.22.15-.21.14-.22.14,3.17,2.74.07.07.07.07v.22l-.07.07-.07.07-.14.08-1.8.93-1.08.58-1.8,1-.15.07-.14.07-.15.07h-.72l-5.76-1.29-.36.14-.36.14-.36.08-.36.07-.36.07-.36.07-.36.07-.36.08-.36.07-.36.07-.36.07-.36.07-.36.08-.36.07-.36.07-.36.07-1.94,3.31-.07.08-.07.07-.08.07-.14.07-.14.07-.15.08h-.36l-2.52.14-1.51.07-2.52.15h-.5l-.15-.08-.14-.07-.07-.07-.08-.07-.07-.07-1.58-3.1h-.72l-.36-.07-.36-.07-.36-.08-.36-.07-.36-.07-.36-.07-.36-.07-.36-.08-.36-.07-.36-.07-.36-.07-.36-.07-.36-.08-.36-.07-6,1.95-.14.07h-.72l-.15-.07-.14-.08-1.73-.79-1-.5-1.72-.79-.15-.08-.07-.07-.07-.07v-.22l.07-.07.07-.07,3.53-3-.14-.15-.15-.14-.14-.15-.15-.14L71.8,502l-.14-.15-.15-.14-.14-.15-.15-.14-.14-.14-.14-.15-.15-.14-.07-.15-.07-.14-.07-.14-.08-.22-6.33-.58h-.29l-.14-.07-.08-.07-.07-.07-.07-.07v-.15l.07-1.22.07-.72.08-1.23V496l.07-.07.07-.07.07-.07.15-.08.14-.07.14-.07h.15l6.41-1.22.14-.22.14-.22.15-.21.14-.22.15-.21.14-.22.14-.22.15-.21.14-.22.15-.14.14-.15.14-.14.22-.14.22-.15.21-.14.22-.15-3-2.59-.07-.07-.07-.07v-.22l.07-.07.07-.07.15-.07,1.8-.94,1.08-.58,1.8-.93.14-.07.15-.08h.86l5.62,1.23.36-.15.36-.07.36-.07.36-.07.36-.07.36-.08.36-.07.36-.07.36-.07.36-.07.36-.08.36-.07.36-.07.36-.07.36-.07.36-.08,1.94-3.16.07-.08.07-.07.08-.07.14-.07.14-.07.15-.08h.36l2.45-.14,1.44-.07,2.44-.15h.65l.07.08.08.07.07.07.07.07L99.66,485Zm-6.12,4h3l.72.07.72.07.65.07.65.07.64.15.65.14.65.15.58.14.57.14.58.22.5.22.51.21.5.22.43.21.43.22.44.29.36.29.36.28.28.29.29.29.29.29.22.36.21.36.15.36.14.36.07.36.07.36v.72l-.07.36-.14.36-.15.36-.21.36-.22.36-.21.36-.29.36-.29.36-.36.36-.36.36-.43.29-.43.28-.44.29-.5.29-.5.29-.51.29-.57.28-.58.22-.58.22-.64.21-.65.22-.65.21-.65.22-.72.14-.72.15-.72.14-.72.15-.72.07-.72.07-.79.07-.79.07h-3l-.72-.07-.72-.07-.72-.07-.64-.07-.65-.15-.65-.14-.65-.15-.57-.14-.58-.14-.58-.22-.5-.22-.5-.21-.51-.22-.43-.21-.43-.29L80.3,501l-.36-.29-.36-.29-.29-.28-.29-.29-.22-.29-.21-.36-.15-.36-.14-.36-.07-.36-.07-.36v-.72l.07-.36.07-.36.14-.36.15-.36.21-.36.22-.36.29-.36.29-.36.28-.36.36-.36.36-.36.44-.29.43-.29.43-.28.5-.29.51-.29.5-.29.58-.29.57-.21.58-.22.65-.21.65-.22.64-.22.65-.14.65-.14.72-.15.72-.14.72-.15.72-.07.72-.07.72-.07.79-.07Z"/><g id="_365023680" data-name=" 365023680"><polygon class="cls-143" points="116.58 486.18 116.22 481.21 116.22 481.5 112.77 484.52 113.2 489.49 116.51 486.54 116.58 486.18"/><polygon class="cls-144" points="122.49 493.09 122.13 488.12 122.06 489.27 122.42 494.31 122.49 493.09"/><polygon class="cls-145" points="122.42 494.31 122.06 489.27 122.06 490.07 122.42 495.03 122.42 494.31"/><polygon class="cls-146" points="122.42 495.03 122.06 490.07 121.98 491.22 121.98 491.43 121.7 491.65 121.27 491.79 114.86 492.95 115.22 497.99 121.7 496.83 122.06 496.69 122.34 496.47 122.42 496.26 122.42 495.03"/><polygon class="cls-147" points="116.08 503.89 115.72 498.78 115.58 499.07 113.56 500.15 113.99 505.26 115.79 504.25 116.08 503.89"/><polygon class="cls-148" points="113.99 505.26 113.56 500.15 112.48 500.79 112.91 505.83 113.99 505.26"/><polygon class="cls-149" points="115.22 497.99 114.86 492.95 114.71 493.16 114.64 493.38 114.5 493.52 114.35 493.74 114.21 493.95 114.14 494.1 113.92 494.31 113.78 494.46 113.63 494.67 113.49 494.82 113.34 495.03 113.13 495.18 112.98 495.39 112.77 495.54 112.55 495.75 112.41 495.9 112.77 500.94 112.98 500.79 113.2 500.58 113.34 500.43 113.56 500.22 113.7 500.07 113.92 499.86 114.06 499.71 114.21 499.5 114.35 499.35 114.5 499.14 114.64 498.99 114.78 498.78 114.93 498.56 115 498.42 115.14 498.2 115.22 497.99"/><polygon class="cls-150" points="112.91 505.83 112.48 500.79 110.68 501.73 110.25 501.87 109.67 501.95 103.7 500.58 104.13 505.62 109.89 506.99 110.68 506.99 111.11 506.77 112.91 505.83"/><polygon class="cls-151" points="104.13 505.62 103.7 500.58 103.34 500.65 103.05 500.79 102.69 500.87 102.33 501.01 101.97 501.08 101.61 501.23 101.25 501.3 100.89 501.37 100.53 501.51 100.17 501.59 99.81 501.66 99.45 501.73 99.02 501.8 98.66 501.87 98.3 501.95 97.94 502.02 98.37 507.13 98.73 507.06 99.09 506.99 99.45 506.91 99.88 506.77 100.24 506.7 100.6 506.63 100.96 506.55 101.32 506.48 101.68 506.34 102.04 506.27 102.4 506.19 102.76 506.05 103.12 505.98 103.48 505.83 103.77 505.76 104.13 505.62"/><polygon class="cls-152" points="98.37 507.13 97.94 502.02 95.92 505.33 95.7 505.55 95.27 505.69 94.91 505.76 92.39 505.91 92.82 510.95 95.34 510.87 95.7 510.8 96.14 510.66 96.35 510.44 98.37 507.13"/><polygon class="cls-153" points="92.82 510.95 92.39 505.91 90.88 505.98 91.31 511.09 92.82 510.95"/><polygon class="cls-154" points="91.31 511.09 90.88 505.98 88.36 506.12 88 506.12 87.64 505.98 87.42 505.83 85.84 502.67 86.27 507.78 87.86 510.87 88.07 511.09 88.5 511.16 88.86 511.16 91.31 511.09"/><polygon class="cls-155" points="86.27 507.78 85.84 502.67 85.41 502.67 85.05 502.59 84.69 502.59 84.33 502.52 83.97 502.52 83.61 502.45 83.25 502.38 82.89 502.31 82.53 502.31 82.17 502.23 81.81 502.16 81.52 502.09 81.16 502.02 80.8 501.95 80.51 501.87 80.15 501.8 80.58 506.84 80.94 506.91 81.3 506.99 81.59 507.06 81.95 507.13 82.31 507.2 82.6 507.27 82.96 507.35 83.32 507.42 83.68 507.49 84.04 507.49 84.4 507.56 84.76 507.56 85.12 507.63 85.55 507.71 85.91 507.71 86.27 507.78"/><polygon class="cls-156" points="80.58 506.84 80.15 501.8 74.17 503.75 73.74 503.82 73.17 503.82 71.3 502.95 71.8 507.99 73.45 508.79 74.25 508.93 74.68 508.79 80.58 506.84"/><polygon class="cls-157" points="71.8 507.99 71.3 502.95 70.29 502.45 70.72 507.49 71.8 507.99"/><polygon class="cls-158" points="70.72 507.49 70.29 502.45 68.56 501.66 68.34 501.44 68.78 506.55 69.06 506.77 70.72 507.49"/><polygon class="cls-159" points="72.45 503.1 71.94 498.06 71.8 497.91 71.58 497.77 71.44 497.55 71.3 497.41 71.15 497.27 71.01 497.12 70.86 496.91 70.72 496.76 70.58 496.62 70.43 496.4 70.29 496.26 70.22 496.04 70.07 495.9 70 495.75 69.93 495.54 69.78 495.39 70.29 500.36 70.36 500.58 70.5 500.72 70.58 500.94 70.65 501.08 70.79 501.3 70.94 501.44 71.01 501.66 71.15 501.8 71.3 501.95 71.44 502.16 71.58 502.31 71.73 502.45 71.94 502.59 72.09 502.81 72.23 502.95 72.45 503.1"/><polygon class="cls-160" points="70.29 500.36 69.78 495.39 63.52 494.82 63.09 494.75 62.87 494.53 62.8 494.39 63.3 499.43 63.38 499.57 63.59 499.79 63.95 499.86 70.29 500.36"/><polygon class="cls-161" points="73.31 491.65 72.88 486.61 69.86 484.02 69.71 483.8 70.22 488.84 70.29 488.99 73.31 491.65"/><polygon class="cls-162" points="93.33 488.99 92.9 484.02 93.69 483.94 94.41 483.94 95.13 483.94 95.85 483.94 96.57 484.02 97.29 484.09 97.94 484.16 98.66 484.23 99.3 484.38 99.95 484.45 100.53 484.59 101.1 484.81 101.68 484.95 102.26 485.17 102.76 485.31 103.26 485.53 103.77 485.75 104.2 486.03 104.63 486.25 105.06 486.54 105.42 486.83 105.78 487.04 106.07 487.4 106.36 487.69 106.65 487.98 106.86 488.34 107.01 488.63 107.15 488.99 107.3 489.35 107.37 489.71 107.44 490.07 107.87 495.11 107.8 494.75 107.73 494.39 107.58 494.03 107.44 493.67 107.22 493.31 107.01 493.02 106.79 492.66 106.5 492.37 106.22 492.08 105.86 491.79 105.5 491.51 105.06 491.29 104.63 491 104.2 490.79 103.7 490.57 103.19 490.35 102.69 490.14 102.11 489.92 101.54 489.78 100.96 489.63 100.31 489.49 99.74 489.35 99.09 489.27 98.37 489.13 97.72 489.06 97 488.99 96.28 488.99 95.56 488.99 94.84 488.91 94.12 488.99 93.33 488.99"/><polygon class="cls-163" points="78.06 497.77 77.56 492.8 77.56 492.44 77.56 492.01 77.63 491.65 77.7 491.29 77.78 490.93 77.99 490.57 78.14 490.21 78.35 489.85 78.64 489.49 78.93 489.13 79.22 488.77 79.58 488.48 80.01 488.12 80.37 487.83 80.8 487.55 81.3 487.26 81.74 486.97 82.31 486.68 82.82 486.39 83.39 486.11 83.97 485.89 84.54 485.67 85.12 485.46 85.77 485.24 86.42 485.02 87.06 484.88 87.78 484.67 88.5 484.52 89.15 484.45 89.87 484.31 90.66 484.16 91.38 484.09 92.1 484.02 92.9 484.02 93.33 488.99 92.54 489.06 91.82 489.13 91.1 489.2 90.3 489.27 89.58 489.42 88.94 489.56 88.22 489.71 87.57 489.85 86.85 490.07 86.2 490.21 85.62 490.43 84.98 490.64 84.4 490.93 83.82 491.15 83.25 491.36 82.74 491.65 82.24 491.94 81.74 492.23 81.3 492.51 80.87 492.8 80.44 493.16 80.08 493.45 79.72 493.81 79.36 494.17 79.07 494.46 78.86 494.82 78.64 495.18 78.42 495.54 78.28 495.9 78.14 496.33 78.06 496.69 77.99 497.05 77.99 497.41 78.06 497.77"/><path class="cls-164" d="M99,480.06h1.08l.36.07.36.07.36.07.36.08.36.07.36.07.36.07.36.07.36.08.36.07.36.07.36.07.36.07,5.76-1.87.43-.07h.57l1.88.79,1,.43,1.73.72.29.22v.29l-3.46,3,.22.15.14.14.15.14.14.15.15.14.14.15.14.14.15.14.14.15.15.14.14.15.14.14.15.14.14.15.07.14.08.15,6.33.5.36.07.29.15.07.14v3.17l-.07.14-.29.22-.43.14-6.41,1.23-.14.21-.15.22-.14.21-.14.22-.15.22-.14.21-.15.22-.14.21-.14.22-.15.22-.14.21-.15.15-.14.14-.22.14-.21.15-.22.14,3.17,2.67.14.21-.14.29-2,1.08-1.08.58-1.8.93-.43.15h-.57l-6-1.37-.36.14-.36.15-.36.07-.36.07-.36.07-.36.07-.36.08-.36.07-.36.07-.36.07-.36.07-.36.08-.36.07-.36.07-.36.07-.36.07-1.94,3.32-.22.21-.43.15-.36.07-2.52.14-1.51.07-2.52.15h-.36l-.36-.15-.22-.21-1.58-3.1h-.72l-.36-.07-.36-.07-.36-.07-.36-.08-.36-.07-.36-.07-.36-.07-.36-.07-.36-.08-.36-.07-.36-.07L81,501.3l-.36-.07-.36-.08-6,2-.43.07h-.58l-1.87-.86-1-.51L68.7,501l-.28-.22v-.28l3.6-3.17-.15-.15-.14-.14-.15-.14-.14-.15-.14-.14-.15-.15-.14-.14-.15-.14-.14-.15-.14-.14-.15-.15-.14-.14-.07-.14-.08-.15-.07-.14L70,495l-6.34-.57-.36-.08-.21-.14L63,494l.14-1.23.07-.72.15-1.22.07-.15.29-.21.43-.15,6.41-1.22.14-.22.14-.21.15-.22.14-.21.15-.22.14-.22.14-.21.15-.22.14-.14.15-.15.14-.14.14-.14.22-.15.22-.14.21-.15.22-.14-3-2.59-.14-.22.14-.29,2-1,1.08-.58,1.8-.94.43-.14H76l5.76,1.3.36-.15.36-.07.36-.07.36-.07.36-.08.36-.07.36-.07.36-.07.36-.07.36-.08.36-.07.36-.07.36-.07.36-.07.36-.08.36-.07,1.94-3.17.22-.21L90,477l.36-.07,2.44-.14,1.44-.07,2.45-.15h.36l.36.07.22.15,1.58,2.95ZM92.9,484h2.95l.72.07.72.07.65.07.64.07.65.15.65.14.65.15.57.14.58.14.58.22.5.22.5.21.51.22.43.21.43.22.43.29.36.29.36.28.29.29.29.29.29.29.21.36.22.36.14.36.15.36.07.36.07.36v.72l-.07.36-.14.36-.15.36-.21.36-.22.36-.22.36-.28.36-.29.36-.36.36-.36.36-.43.29-.44.28-.43.29-.5.29-.51.29-.5.29-.58.28-.57.22-.58.22-.65.21-.64.22-.65.21-.65.22-.72.14-.72.15-.72.14-.72.15-.72.07-.79.07-.79.07-.8.07h-3l-.72-.07-.72-.07-.72-.07-.65-.07-.65-.15-.64-.14-.65-.15-.58-.14-.57-.14-.58-.22-.5-.22-.51-.21-.5-.22-.43-.21-.44-.29-.43-.29-.36-.29-.36-.29-.29-.28-.28-.29-.22-.29-.22-.36-.14-.36-.14-.36-.08-.36-.07-.36V492l.07-.36.08-.36.14-.36.14-.36.22-.36.22-.36.28-.36.29-.36.29-.36.36-.36.36-.29.43-.29.43-.28.44-.29.5-.29.5-.29.51-.29.57-.28.58-.22.58-.22.64-.21.65-.22.65-.21.65-.15.65-.14.72-.15.72-.14.72-.14.72-.08.72-.07.72-.07L93,484Z"/></g></g></g></g></svg>