<svg xmlns="http://www.w3.org/2000/svg" xmlns:xlink="http://www.w3.org/1999/xlink" viewBox="0 0 687.36 544.93"><defs><style>.cls-1,.cls-19{fill:#fbe1e1;}.cls-1,.cls-101,.cls-102,.cls-103,.cls-12,.cls-13,.cls-2,.cls-21,.cls-24,.cls-28,.cls-29,.cls-35,.cls-38,.cls-39,.cls-40,.cls-41,.cls-42,.cls-43,.cls-44,.cls-45,.cls-46,.cls-47,.cls-48,.cls-49,.cls-50,.cls-51,.cls-52,.cls-53,.cls-54,.cls-57,.cls-58,.cls-59,.cls-6,.cls-60,.cls-63,.cls-66,.cls-67,.cls-68,.cls-69,.cls-7,.cls-70,.cls-71,.cls-72,.cls-75,.cls-76,.cls-77,.cls-78,.cls-79,.cls-8,.cls-80,.cls-81,.cls-82,.cls-83,.cls-85,.cls-86,.cls-87,.cls-88,.cls-89,.cls-90,.cls-91,.cls-92,.cls-93,.cls-94,.cls-95,.cls-96,.cls-97,.cls-98,.cls-99{fill-rule:evenodd;}.cls-2{fill-opacity:0.3;}.cls-14,.cls-15,.cls-16,.cls-17,.cls-18,.cls-3{fill:none;}.cls-3{stroke:#6a68a3;stroke-dasharray:9.6 5.76;}.cls-14,.cls-3{stroke-miterlimit:10;}.cls-15,.cls-3{stroke-width:1.92px;}.cls-4{fill:url(#linear-gradient);}.cls-5{fill:url(#linear-gradient-2);}.cls-20,.cls-6{fill:#f3f0ff;}.cls-7{fill:url(#linear-gradient-3);}.cls-22,.cls-8{fill:#60fcfc;}.cls-9{fill:#749fdb;}.cls-10{fill:url(#linear-gradient-4);}.cls-11{fill:#ff8d29;}.cls-12{fill:url(#linear-gradient-5);}.cls-13{fill:url(#linear-gradient-6);}.cls-14{stroke:#f3f0ff;stroke-width:2px;}.cls-15{stroke:#1f1f1f;}.cls-15,.cls-16,.cls-17,.cls-18{stroke-linecap:round;stroke-linejoin:round;}.cls-16{stroke:#d1415b;}.cls-16,.cls-17,.cls-18{stroke-width:2.4px;}.cls-17{stroke:#634ec9;}.cls-18{stroke:#ff8d29;}.cls-21{fill:url(#linear-gradient-7);}.cls-23{fill:url(#linear-gradient-8);}.cls-24{fill:#b9afe0;}.cls-25{fill:#df75ff;}.cls-26{fill:#634ec9;}.cls-27{fill:#d1415b;}.cls-28{fill:url(#linear-gradient-9);}.cls-29{fill:url(#linear-gradient-10);}.cls-30{fill:url(#linear-gradient-11);}.cls-31{fill:url(#linear-gradient-12);}.cls-32{fill:url(#linear-gradient-13);}.cls-33{fill:url(#linear-gradient-14);}.cls-34{fill:url(#linear-gradient-15);}.cls-35{fill:#ffbdb0;}.cls-36{fill:url(#linear-gradient-16);}.cls-37{fill:url(#linear-gradient-17);}.cls-38{fill:url(#linear-gradient-18);}.cls-39{fill:url(#linear-gradient-19);}.cls-40{fill:url(#linear-gradient-20);}.cls-41{fill:#e03a3a;}.cls-42{fill:url(#linear-gradient-21);}.cls-43{fill:url(#linear-gradient-22);}.cls-44{fill:#dedaed;}.cls-45{fill:url(#linear-gradient-23);}.cls-46{fill:url(#linear-gradient-24);}.cls-47{fill:url(#linear-gradient-25);}.cls-48{fill:#7e67f0;}.cls-49{fill:#514491;}.cls-50{fill:url(#linear-gradient-26);}.cls-51{fill:url(#linear-gradient-27);}.cls-52{fill:url(#linear-gradient-28);}.cls-53{fill:url(#linear-gradient-29);}.cls-54{fill:#4d4d4d;}.cls-55{fill:url(#linear-gradient-30);}.cls-56{fill:url(#linear-gradient-31);}.cls-57{fill:url(#linear-gradient-32);}.cls-58{fill:url(#linear-gradient-33);}.cls-59{fill:url(#linear-gradient-34);}.cls-60{fill:url(#linear-gradient-35);}.cls-61{fill:url(#linear-gradient-36);}.cls-62{fill:url(#linear-gradient-37);}.cls-63{fill:#633e2f;}.cls-64{fill:url(#linear-gradient-38);}.cls-65{fill:url(#linear-gradient-39);}.cls-66{fill:#666;}.cls-67,.cls-97{fill:#fff;}.cls-67{fill-opacity:0.5;}.cls-104,.cls-68{fill:#333;}.cls-69{fill:url(#linear-gradient-40);}.cls-70{fill:url(#linear-gradient-41);}.cls-71{fill:url(#linear-gradient-42);}.cls-72{fill:url(#linear-gradient-43);}.cls-73{fill:url(#linear-gradient-44);}.cls-74{fill:url(#linear-gradient-45);}.cls-75{fill:url(#linear-gradient-46);}.cls-76{fill:url(#linear-gradient-47);}.cls-77{fill:#dda8fa;}.cls-78{fill:url(#linear-gradient-48);}.cls-79{fill:url(#linear-gradient-49);}.cls-80{fill:#e6e65f;}.cls-81{fill:url(#linear-gradient-50);}.cls-82,.cls-84{fill:#ffeded;}.cls-83{fill:url(#linear-gradient-51);}.cls-85{fill:url(#linear-gradient-52);}.cls-86{fill:#4f4ad9;}.cls-87{fill:url(#linear-gradient-53);}.cls-88{fill:url(#linear-gradient-54);}.cls-89{fill:url(#linear-gradient-55);}.cls-90{fill:url(#linear-gradient-56);}.cls-91{fill:url(#linear-gradient-57);}.cls-92{fill:url(#linear-gradient-58);}.cls-93{fill:url(#linear-gradient-59);}.cls-94{fill:url(#linear-gradient-60);}.cls-95{fill:url(#linear-gradient-61);}.cls-96{fill:url(#linear-gradient-62);}.cls-98{fill:url(#linear-gradient-63);}.cls-99{fill:url(#linear-gradient-64);}.cls-100{fill:#dafae2;}.cls-101{fill:url(#linear-gradient-65);}.cls-102{fill:#e6e6e6;}.cls-103{fill:#ccc;}.cls-105{fill:url(#linear-gradient-66);}.cls-106{fill:url(#linear-gradient-67);}.cls-107{fill:url(#linear-gradient-68);}</style><linearGradient id="linear-gradient" x1="5269.51" y1="-5200.85" x2="5269.51" y2="-5719.42" gradientTransform="matrix(0.07, 0, 0, -0.07, -70.39, 11.41)" gradientUnits="userSpaceOnUse"><stop offset="0" stop-color="#634ec9"/><stop offset="1" stop-color="#749fdb"/></linearGradient><linearGradient id="linear-gradient-2" x1="4439.58" y1="-4895.89" x2="6100.62" y2="-2126.04" gradientTransform="matrix(0.07, 0, 0, -0.07, -70.39, 11.41)" gradientUnits="userSpaceOnUse"><stop offset="0" stop-color="#7e67f0"/><stop offset="1" stop-color="#634ec9"/></linearGradient><linearGradient id="linear-gradient-3" x1="5107.65" y1="-5505.5" x2="5394.73" y2="-4165.87" gradientTransform="matrix(0.07, 0, 0, -0.07, -70.39, 11.41)" gradientUnits="userSpaceOnUse"><stop offset="0" stop-color="#60fcfc"/><stop offset="1" stop-color="#749fdb"/></linearGradient><linearGradient id="linear-gradient-4" x1="5510" y1="-5910.11" x2="5029.1" y2="-6082.44" xlink:href="#linear-gradient-3"/><linearGradient id="linear-gradient-5" x1="4155" y1="-4042.91" x2="3512.81" y2="-3310.36" xlink:href="#linear-gradient-2"/><linearGradient id="linear-gradient-6" x1="4720.33" y1="-2669.8" x2="3924.23" y2="-3395.13" gradientTransform="matrix(0.07, 0, 0, -0.07, -70.39, 11.41)" gradientUnits="userSpaceOnUse"><stop offset="0" stop-color="#fc6094"/><stop offset="1" stop-color="#d1415b"/></linearGradient><linearGradient id="linear-gradient-7" x1="3448.75" y1="-5894.64" x2="3056.43" y2="-6635.04" gradientTransform="matrix(0.07, 0, 0, -0.07, -70.39, 11.41)" gradientUnits="userSpaceOnUse"><stop offset="0" stop-color="#749fdb"/><stop offset="1" stop-color="#60fcfc"/></linearGradient><linearGradient id="linear-gradient-8" x1="3623.06" y1="-5216.73" x2="2910.38" y2="-5303.45" gradientTransform="matrix(0.07, 0, 0, -0.07, -70.39, 11.41)" gradientUnits="userSpaceOnUse"><stop offset="0" stop-color="#d1415b"/><stop offset="1" stop-color="#fc6094"/></linearGradient><linearGradient id="linear-gradient-9" x1="3267.51" y1="-3828.61" x2="3267.51" y2="-3982.92" gradientTransform="matrix(0.07, 0, 0, -0.07, -70.39, 11.41)" gradientUnits="userSpaceOnUse"><stop offset="0" stop-color="#634ec9"/><stop offset="1" stop-color="#7e67f0"/></linearGradient><linearGradient id="linear-gradient-10" x1="5269.01" y1="-1694.61" x2="5269.01" y2="-2149.83" gradientTransform="matrix(0.07, 0, 0, -0.07, -70.39, 11.41)" gradientUnits="userSpaceOnUse"><stop offset="0" stop-color="#882fa3"/><stop offset="1" stop-color="#d1415b"/></linearGradient><linearGradient id="linear-gradient-11" x1="154.04" y1="140.7" x2="159.8" y2="140.7" gradientUnits="userSpaceOnUse"><stop offset="0" stop-color="#f26a57"/><stop offset="1" stop-color="#d23531"/></linearGradient><linearGradient id="linear-gradient-12" x1="162.68" y1="140.7" x2="168.44" y2="140.7" gradientUnits="userSpaceOnUse"><stop offset="0" stop-color="#ffcd32"/><stop offset="1" stop-color="#ee7c22"/></linearGradient><linearGradient id="linear-gradient-13" x1="171.32" y1="140.7" x2="177.08" y2="140.7" gradientUnits="userSpaceOnUse"><stop offset="0" stop-color="#7dc242"/><stop offset="1" stop-color="#008f4c"/></linearGradient><linearGradient id="linear-gradient-14" x1="9245.58" y1="-1296.01" x2="9078.41" y2="-1031.5" gradientTransform="matrix(0.07, 0, 0, -0.07, -70.39, 11.41)" gradientUnits="userSpaceOnUse"><stop offset="0" stop-color="#ffe1bd"/><stop offset="1" stop-color="#ffbdb0"/></linearGradient><linearGradient id="linear-gradient-15" x1="9353.57" y1="-1471.25" x2="9029.97" y2="-1083.81" gradientTransform="matrix(0.07, 0, 0, -0.07, -70.39, 11.41)" gradientUnits="userSpaceOnUse"><stop offset="0" stop-color="#0081d1"/><stop offset="1" stop-color="#dda8fa"/></linearGradient><linearGradient id="linear-gradient-16" x1="7392.82" y1="-1570.31" x2="7639.4" y2="-1391.14" xlink:href="#linear-gradient-14"/><linearGradient id="linear-gradient-17" x1="7456.23" y1="-1528.93" x2="7810.94" y2="-1280.73" gradientTransform="matrix(0.07, 0, 0, -0.07, -70.39, 11.41)" gradientUnits="userSpaceOnUse"><stop offset="0" stop-color="#f2833f"/><stop offset="1" stop-color="#e6e65f"/></linearGradient><linearGradient id="linear-gradient-18" x1="9021.98" y1="-531.08" x2="9890.47" y2="-889.53" gradientTransform="matrix(0.07, 0, 0, -0.07, -70.39, 11.41)" gradientUnits="userSpaceOnUse"><stop offset="0" stop-color="#e03a3a"/><stop offset="1" stop-color="#ffbdb0"/></linearGradient><linearGradient id="linear-gradient-19" x1="8172.93" y1="-323.04" x2="8754.85" y2="-1571.78" gradientTransform="matrix(0.07, 0, 0, -0.07, -70.39, 11.41)" gradientUnits="userSpaceOnUse"><stop offset="0" stop-color="#e6e6e6"/><stop offset="1" stop-color="#dda8fa"/></linearGradient><linearGradient id="linear-gradient-20" x1="8902.7" y1="196.37" x2="9665.51" y2="-1726.18" xlink:href="#linear-gradient-18"/><linearGradient id="linear-gradient-21" x1="7862.21" y1="-1521.61" x2="8138.29" y2="-2045.16" xlink:href="#linear-gradient-18"/><linearGradient id="linear-gradient-22" x1="8043.57" y1="-1137.29" x2="7317.38" y2="-226" xlink:href="#linear-gradient-18"/><linearGradient id="linear-gradient-23" x1="9702.01" y1="-373.81" x2="10372.23" y2="-866.23" xlink:href="#linear-gradient-18"/><linearGradient id="linear-gradient-24" x1="9357.7" y1="-135.42" x2="10191.79" y2="-7.87" xlink:href="#linear-gradient-18"/><linearGradient id="linear-gradient-25" x1="9770.29" y1="-776.83" x2="9897.84" y2="-1610.92" xlink:href="#linear-gradient-18"/><linearGradient id="linear-gradient-26" x1="6892.5" y1="-2009.85" x2="5974.25" y2="-2298.42" gradientTransform="matrix(0.07, 0, 0, -0.07, -70.39, 11.41)" gradientUnits="userSpaceOnUse"><stop offset="0" stop-color="#1a1a1a"/><stop offset="1" stop-color="#666"/></linearGradient><linearGradient id="linear-gradient-27" x1="6690.91" y1="-2247.66" x2="6015.22" y2="-2755.44" gradientTransform="matrix(0.07, 0, 0, -0.07, -70.39, 11.41)" gradientUnits="userSpaceOnUse"><stop offset="0" stop-color="#333"/><stop offset="1" stop-color="#666"/></linearGradient><linearGradient id="linear-gradient-28" x1="7418.5" y1="-1331.68" x2="7186.99" y2="-1556.27" xlink:href="#linear-gradient-14"/><linearGradient id="linear-gradient-29" x1="6613.1" y1="-2265.38" x2="7088.86" y2="-1868.92" gradientTransform="matrix(0.07, 0, 0, -0.07, -70.39, 11.41)" gradientUnits="userSpaceOnUse"><stop offset="0" stop-color="#e6e65f"/><stop offset="1" stop-color="#f2833f"/></linearGradient><linearGradient id="linear-gradient-30" x1="7763.88" y1="-1511.32" x2="8031.81" y2="-1314.43" xlink:href="#linear-gradient-14"/><linearGradient id="linear-gradient-31" x1="7551.12" y1="-1666.68" x2="8105.28" y2="-1494.48" xlink:href="#linear-gradient-17"/><linearGradient id="linear-gradient-32" x1="9953.57" y1="-2286.13" x2="10396.09" y2="-2750.34" gradientTransform="matrix(0.07, 0, 0, -0.07, -70.39, 11.41)" gradientUnits="userSpaceOnUse"><stop offset="0" stop-color="#633e2f"/><stop offset="1" stop-color="#f2833f"/></linearGradient><linearGradient id="linear-gradient-33" x1="9830.77" y1="-2457.6" x2="10154.36" y2="-3116.53" xlink:href="#linear-gradient-32"/><linearGradient id="linear-gradient-34" x1="9483.24" y1="-1214.65" x2="9650.36" y2="-1491.28" xlink:href="#linear-gradient-14"/><linearGradient id="linear-gradient-35" x1="9844.55" y1="-2408.1" x2="9608.68" y2="-1835.68" gradientTransform="matrix(0.07, 0, 0, -0.07, -70.39, 11.41)" gradientUnits="userSpaceOnUse"><stop offset="0" stop-color="#dda8fa"/><stop offset="1" stop-color="#0081d1"/></linearGradient><linearGradient id="linear-gradient-36" x1="9119.72" y1="-1386.85" x2="8890.73" y2="-1143.22" xlink:href="#linear-gradient-14"/><linearGradient id="linear-gradient-37" x1="9406.65" y1="-1635.28" x2="8872.47" y2="-1348.29" xlink:href="#linear-gradient-15"/><linearGradient id="linear-gradient-38" x1="5496.95" y1="-3761.97" x2="5144.79" y2="-3774.55" xlink:href="#linear-gradient-14"/><linearGradient id="linear-gradient-39" x1="5838.78" y1="-3726.54" x2="5264.74" y2="-3984.34" gradientTransform="matrix(0.07, 0, 0, -0.07, -70.39, 11.41)" gradientUnits="userSpaceOnUse"><stop offset="0" stop-color="#e03a3a"/><stop offset="1" stop-color="#f2833f"/></linearGradient><linearGradient id="linear-gradient-40" x1="6094.99" y1="-4420.31" x2="6212.54" y2="-5434.77" gradientTransform="matrix(0.07, 0, 0, -0.07, -70.39, 11.41)" gradientUnits="userSpaceOnUse"><stop offset="0" stop-color="#514491"/><stop offset="1" stop-color="#fc6094"/></linearGradient><linearGradient id="linear-gradient-41" x1="5802.16" y1="-4486.45" x2="6048.68" y2="-5738.09" xlink:href="#linear-gradient-40"/><linearGradient id="linear-gradient-42" x1="5674.47" y1="-3270.38" x2="5905.51" y2="-3522.91" xlink:href="#linear-gradient-14"/><linearGradient id="linear-gradient-43" x1="6070.72" y1="-4596.57" x2="5864.96" y2="-3975.6" gradientTransform="matrix(0.07, 0, 0, -0.07, -70.39, 11.41)" gradientUnits="userSpaceOnUse"><stop offset="0" stop-color="#f2833f"/><stop offset="1" stop-color="#e03a3a"/></linearGradient><linearGradient id="linear-gradient-44" x1="5431.57" y1="-3858.18" x2="5109.99" y2="-3879.67" xlink:href="#linear-gradient-14"/><linearGradient id="linear-gradient-45" x1="5790.39" y1="-3827.17" x2="5168.93" y2="-4217.42" xlink:href="#linear-gradient-39"/><linearGradient id="linear-gradient-46" x1="5711.75" y1="-3291.13" x2="6113.08" y2="-3652.87" gradientTransform="matrix(0.07, 0, 0, -0.07, -70.39, 11.41)" gradientUnits="userSpaceOnUse"><stop offset="0" stop-color="#333"/><stop offset="1" stop-color="#1a1a1a"/></linearGradient><linearGradient id="linear-gradient-47" x1="8053.46" y1="-2709.21" x2="8595.28" y2="-3799.02" gradientTransform="matrix(0.07, 0, 0, -0.07, -70.39, 11.41)" gradientUnits="userSpaceOnUse"><stop offset="0" stop-color="#333163"/><stop offset="1" stop-color="#6a68a3"/></linearGradient><linearGradient id="linear-gradient-48" x1="8209.2" y1="-3011.19" x2="8442.29" y2="-3492.3" xlink:href="#linear-gradient-47"/><linearGradient id="linear-gradient-49" x1="8515.31" y1="-2840.25" x2="8530.08" y2="-3262.17" gradientTransform="matrix(0.07, 0, 0, -0.07, -70.39, 11.41)" gradientUnits="userSpaceOnUse"><stop offset="0" stop-color="#e03a3a"/><stop offset="1" stop-color="#fc6094"/></linearGradient><linearGradient id="linear-gradient-50" x1="4664.65" y1="-1097.12" x2="5474.99" y2="-1481.31" xlink:href="#linear-gradient-49"/><linearGradient id="linear-gradient-51" x1="8809.51" y1="-2071.86" x2="8809.51" y2="-2961.16" xlink:href="#linear-gradient-49"/><linearGradient id="linear-gradient-52" x1="6131.24" y1="-601.22" x2="6497.81" y2="-1160.08" gradientTransform="matrix(0.07, 0, 0, -0.07, -70.39, 11.41)" gradientUnits="userSpaceOnUse"><stop offset="0" stop-color="#6f59da"/><stop offset="1" stop-color="#dda8fa"/></linearGradient><linearGradient id="linear-gradient-53" x1="8681.27" y1="-4135.99" x2="8553.48" y2="-4800.69" xlink:href="#linear-gradient-52"/><linearGradient id="linear-gradient-54" x1="5574.58" y1="-1429.88" x2="5857.99" y2="-1292.05" gradientTransform="matrix(0.07, 0, 0, -0.07, -70.39, 11.41)" gradientUnits="userSpaceOnUse"><stop offset="0" stop-color="#fcd361"/><stop offset="1" stop-color="#f2833f"/></linearGradient><linearGradient id="linear-gradient-55" x1="7954.22" y1="-2603.43" x2="8171.32" y2="-2382.08" xlink:href="#linear-gradient-54"/><linearGradient id="linear-gradient-56" x1="7850.27" y1="-4384.89" x2="8067.37" y2="-4163.53" xlink:href="#linear-gradient-54"/><linearGradient id="linear-gradient-57" x1="6746.67" y1="-1492.84" x2="7030.08" y2="-1355" xlink:href="#linear-gradient-54"/><linearGradient id="linear-gradient-58" x1="5184.07" y1="-461.39" x2="5467.48" y2="-323.55" xlink:href="#linear-gradient-54"/><linearGradient id="linear-gradient-59" x1="1311.06" y1="-2340.65" x2="2191.95" y2="-2321.6" xlink:href="#linear-gradient-49"/><linearGradient id="linear-gradient-60" x1="2444.19" y1="-2729.83" x2="2727.6" y2="-2592" xlink:href="#linear-gradient-54"/><linearGradient id="linear-gradient-61" x1="3326.21" y1="-408.16" x2="3692.77" y2="-967.02" xlink:href="#linear-gradient-52"/><linearGradient id="linear-gradient-62" x1="2403.54" y1="-1180.9" x2="2686.95" y2="-1043.07" xlink:href="#linear-gradient-54"/><linearGradient id="linear-gradient-63" x1="8830.09" y1="-5855.04" x2="8768" y2="-6351.05" gradientTransform="matrix(0.07, 0, 0, -0.07, -70.39, 11.41)" gradientUnits="userSpaceOnUse"><stop offset="0" stop-color="#68aed9"/><stop offset="1" stop-color="#dafae2"/></linearGradient><linearGradient id="linear-gradient-64" x1="8982.29" y1="-5645.75" x2="8818.94" y2="-6173.73" gradientTransform="matrix(0.07, 0, 0, -0.07, -70.39, 11.41)" gradientUnits="userSpaceOnUse"><stop offset="0" stop-color="#6f59da"/><stop offset="1" stop-color="#f5a393"/></linearGradient><linearGradient id="linear-gradient-65" x1="8982.92" y1="-5643.23" x2="8818.03" y2="-6176.17" xlink:href="#linear-gradient-64"/><linearGradient id="linear-gradient-66" x1="7129.18" y1="-6206.26" x2="7323.75" y2="-6634.75" gradientTransform="matrix(0.07, 0, 0, -0.07, -70.39, 11.41)" gradientUnits="userSpaceOnUse"><stop offset="0" stop-color="#f2833f"/><stop offset="1" stop-color="#fcd361"/></linearGradient><linearGradient id="linear-gradient-67" x1="7214.25" y1="-5864.14" x2="7237.81" y2="-6509.89" xlink:href="#linear-gradient-66"/><linearGradient id="linear-gradient-68" x1="7216.63" y1="-6379.88" x2="7235.46" y2="-6552.85" xlink:href="#linear-gradient-66"/></defs><g id="Layer_2" data-name="Layer 2"><g id="Layer_1-2" data-name="Layer 1"><g id="Layer_1-3" data-name="Layer_1"><g id="_372437888" data-name=" 372437888"><path class="cls-1" d="M251.17,400.63c-98,17.42-381.54,15.12-181.16,112.18,107.28,52,180.65-35.5,331.5,15.76,108.29,36.8,235.23,12.17,238.25-80.64C641.56,392.85,515.92,353.54,251.17,400.63Z"/><path class="cls-2" d="M164.84,461.54c52.85,0,95.69,7,95.69,15.55s-42.84,15.56-95.69,15.56-95.69-7-95.69-15.56S112,461.54,164.84,461.54Z"/><path class="cls-2" d="M309.06,435.84c78.12,0,141.48,7,141.48,15.55s-63.36,15.55-141.48,15.55-141.49-7-141.49-15.55S230.93,435.84,309.06,435.84Z"/><path class="cls-3" d="M106.23,264.62c-78.05-77.77,29.59-212.26,136-146.6"/><rect class="cls-4" x="270.03" y="368.66" width="77.98" height="71.79" rx="3.96"/><rect class="cls-5" x="136.54" y="133.43" width="345.03" height="261.58" rx="14.33"/><path class="cls-6" d="M481.57,147.69V380.61a14.37,14.37,0,0,1-14.33,14.33H150.8a14.37,14.37,0,0,1-14.33-14.33V147.69h345.1Z"/><path class="cls-7" d="M467.24,339.07H150.8a14.37,14.37,0,0,1-14.33-14.33v55.87a14.37,14.37,0,0,0,14.33,14.33H467.24a14.37,14.37,0,0,0,14.33-14.33V324.74A14.37,14.37,0,0,1,467.24,339.07Z"/><path class="cls-8" d="M309.06,350.44A16.56,16.56,0,1,1,292.5,367,16.57,16.57,0,0,1,309.06,350.44Z"/><path class="cls-9" d="M309.06,349.22a17.94,17.94,0,1,1-12.6,5.25A17.81,17.81,0,0,1,309.06,349.22Zm10.8,7a15.4,15.4,0,0,0-10.8-4.46,15.23,15.23,0,1,0,10.8,4.46Z"/><rect class="cls-10" x="208.18" y="434.9" width="201.75" height="16.49" rx="6.48"/><circle class="cls-11" cx="213.87" cy="243.38" r="59.4"/><path class="cls-12" d="M213.87,243.38l-51.48,29.73a59.4,59.4,0,0,0,93.46,12.24Z"/><path class="cls-13" d="M213.87,243.38l44,44a62.21,62.21,0,0,0-44-106.2Z"/><polyline class="cls-14" points="213.87 181.17 213.87 243.38 258.15 287.08"/><line class="cls-14" x1="159.99" y1="274.07" x2="213.87" y2="243.38"/><polyline class="cls-15" points="292.28 177.71 292.28 309.04 465.08 309.04"/><path class="cls-16" d="M300.06,278.51c43.27-30.67,40.25-12.45,76.1,3.1,8.5,3.67,23-2.67,27.72-16.49C422,212.63,460.4,230.92,463.5,204"/><path class="cls-17" d="M300.06,286.94c40.25-19.59,50.9,30.6,75.74-7.2,21.39-32.55,48.82-6.77,63.58-6.77,12.38,0,22.75-13.39,24.05-26.35"/><path class="cls-18" d="M300.06,265.12c19.22-17.57,40.89-29.3,64.51-26.28,31.25,4,46.15,36,66.39,45.29,11.88,5.4,28.65,1.22,33.12-13.47"/><path class="cls-19" d="M216.39,283.05H113.21a10.42,10.42,0,0,0-3.38.57,19.61,19.61,0,0,1,2.16,6.05,14.74,14.74,0,0,1,.5,1.88,2.38,2.38,0,0,1,.72-.15H216.39a2,2,0,0,1,1.51.65h0a2.25,2.25,0,0,1,.65,1.51l-.3,142.28c2.74-.65,5.92-1.68,8.65-1.18V293.56A10.57,10.57,0,0,0,216.39,283.05Z"/><rect class="cls-20" x="106.88" y="287.08" width="115.85" height="190.01" rx="6.34"/><path class="cls-21" d="M113.21,455.71H216.39a6.57,6.57,0,0,0,6.34-6.7v21.46a6.57,6.57,0,0,1-6.34,6.7H113.21a6.57,6.57,0,0,1-6.33-6.7V449A6.57,6.57,0,0,0,113.21,455.71Z"/><circle class="cls-22" cx="164.84" cy="466.37" r="6.55"/><path class="cls-9" d="M164.84,459.09a7.28,7.28,0,0,0-5.19,2.16,7.45,7.45,0,0,0-2.16,5.19,7.23,7.23,0,0,0,2.16,5.18h0a7.41,7.41,0,0,0,5.19,2.16,7.23,7.23,0,0,0,5.18-2.16h0a7.38,7.38,0,0,0,2.16-5.18,7.24,7.24,0,0,0-2.16-5.19A7.43,7.43,0,0,0,164.84,459.09Zm-4.11,3.17a5.81,5.81,0,1,1,8.21,8.21h0a5.81,5.81,0,1,1-8.21-8.21Z"/><rect class="cls-23" x="125.45" y="385.94" width="78.7" height="8.42" rx="4.18"/><path class="cls-24" d="M144.89,399.69h56.6a2.66,2.66,0,0,1,2.66,2.67h0a2.66,2.66,0,0,1-2.66,2.66h-56.6a2.66,2.66,0,0,1-2.66-2.66h0A2.66,2.66,0,0,1,144.89,399.69Z"/><rect class="cls-25" x="186.15" y="350.08" width="12.17" height="22.1" rx="0.65"/><rect class="cls-11" x="167.86" y="338.13" width="12.17" height="34.06" rx="0.65"/><rect class="cls-26" x="149.57" y="346.48" width="12.17" height="25.7" rx="0.65"/><rect class="cls-27" x="131.36" y="325.46" width="12.17" height="46.73" rx="0.65"/><polyline class="cls-15" points="125.36 312.35 125.36 378.01 207.62 378.01"/><path class="cls-24" d="M128.12,410.42h73.37a2.66,2.66,0,0,1,2.66,2.66h0a2.66,2.66,0,0,1-2.66,2.67H128.12a2.66,2.66,0,0,1-2.67-2.67h0A2.66,2.66,0,0,1,128.12,410.42Z"/><path class="cls-24" d="M128.12,421.08h73.37a2.66,2.66,0,0,1,2.66,2.66h0a2.66,2.66,0,0,1-2.66,2.66H128.12a2.66,2.66,0,0,1-2.67-2.66h0A2.66,2.66,0,0,1,128.12,421.08Z"/><path class="cls-24" d="M128.12,431.8h73.37a2.67,2.67,0,0,1,2.66,2.67h0a2.66,2.66,0,0,1-2.66,2.66H128.12a2.66,2.66,0,0,1-2.67-2.66h0A2.67,2.67,0,0,1,128.12,431.8Z"/><path class="cls-24" d="M128.12,442.53h59.76a2.67,2.67,0,0,1,2.66,2.67h0a2.66,2.66,0,0,1-2.66,2.66H128.12a2.66,2.66,0,0,1-2.67-2.66h0A2.67,2.67,0,0,1,128.12,442.53Z"/><path class="cls-28" d="M136.54,298.17H222.8v-4.75a6.39,6.39,0,0,0-6.34-6.34H113.28a4.93,4.93,0,0,0-1.8.29,6.41,6.41,0,0,0-4.53,6.05v4.75Z"/><rect class="cls-20" x="211.49" y="289.89" width="7.56" height="1.37" rx="0.65"/><rect class="cls-20" x="211.49" y="291.98" width="7.56" height="1.37" rx="0.65"/><rect class="cls-20" x="211.49" y="293.99" width="7.56" height="1.37" rx="0.65"/><path class="cls-29" d="M267.58,147.4v-7a7,7,0,0,0-7-7H209.55a7,7,0,0,0-7,7v7h-66.1v18.86h345V147.4H267.58Z"/><rect class="cls-20" x="196.59" y="152.22" width="258.7" height="9.14" rx="2.74"/><path class="cls-6" d="M144.52,156.25l2.08-1.36,2.16-1.37a1.18,1.18,0,0,1,1.37.07.63.63,0,0,1,.22.5h0v5.48c0,.43-.43.72-1,.72a1.25,1.25,0,0,1-.72-.22l-2.09-1.37-2.16-1.37a.57.57,0,0,1-.07-1,.24.24,0,0,1,.14-.08Z"/><rect class="cls-20" x="148.98" y="155.1" width="3.46" height="3.38" rx="0.86"/><path class="cls-6" d="M166.76,156.25l-2.08-1.36-2.16-1.37a1.18,1.18,0,0,0-1.37.07.63.63,0,0,0-.22.5h0v5.48c0,.43.43.72,1,.72a1.25,1.25,0,0,0,.72-.22l2.09-1.37,2.16-1.37a.57.57,0,0,0,.07-1,.24.24,0,0,0-.14-.08Z"/><rect class="cls-20" x="158.77" y="155.1" width="3.46" height="3.38" rx="0.86"/><path class="cls-20" d="M175.33,158.41a.5.5,0,0,1,.72.22.49.49,0,0,1-.21.72,2.77,2.77,0,0,1-2.23.29,3.08,3.08,0,0,1-1.8-1.37,2.7,2.7,0,0,1-.29-2.23,3,3,0,0,1,1.37-1.8,2.73,2.73,0,0,1,2.23-.29,3.08,3.08,0,0,1,1.8,1.37.53.53,0,1,1-.94.5,2,2,0,0,0-1.15-.86,1.58,1.58,0,0,0-1.37.21,2,2,0,0,0-.86,1.16,1.56,1.56,0,0,0,.21,1.36,2,2,0,0,0,1.16.87,1.57,1.57,0,0,0,1.36-.22Z"/><path class="cls-6" d="M177.49,157.05l.08-.87.07-.86c0-.15-.07-.36-.22-.36h-.14l-.79.43-.8.43c-.14.07-.14.22-.07.43l.15.15.72.36.72.36a.18.18,0,0,0,.28-.15v.08Z"/><path class="cls-6" d="M186,153.45l1.37,1.36,1.37,1.37a.55.55,0,0,1-.08.87,1,1,0,0,1-.5.14h-5.47a.67.67,0,0,1-.72-.65.52.52,0,0,1,.21-.43l1.37-1.37,1.37-1.37a.79.79,0,0,1,1-.07l.07.07Z"/><path class="cls-6" d="M184.26,155.61h2.38a1.25,1.25,0,0,1,1.22,1.22v2.3a1.26,1.26,0,0,1-1.22,1.23h-.36a.28.28,0,0,0,.07-.22v-1.37a.47.47,0,0,0-.43-.43h-.87a.47.47,0,0,0-.43.43v1.37a.28.28,0,0,0,.07.22h-.36a1.27,1.27,0,0,1-1.22-1.23v-2.3a1.26,1.26,0,0,1,1.22-1.22Z"/><circle class="cls-30" cx="156.92" cy="140.7" r="2.88"/><circle class="cls-31" cx="165.56" cy="140.7" r="2.88"/><circle class="cls-32" cx="174.2" cy="140.7" r="2.88"/><path class="cls-33" d="M575.1,93.68c2.74,14.26,29.09,42.85,44.14,46.88L623,124.21c-14.11-3.81-39.6-19.58-43.84-33.77C577.91,86.34,573.81,86.92,575.1,93.68Z"/><path class="cls-34" d="M579.57,108c9.65,14.62,29.81,30.82,41.18,33.92L624.06,123c-10.58-2.88-28-11.67-37.94-21.89C584.25,101.53,581.22,104.92,579.57,108Z"/><path class="cls-35" d="M579.06,92.32c1.88-1.08,1.88-5.91-.43-3-.36.51-1.73,2.67-.5,2.81C578.56,92.17,579.14,92.24,579.06,92.32Z"/><path class="cls-36" d="M498.06,96.85c-14.54,0-47.52,20.45-54.36,34.56l15.34,6.7c6.4-13.18,26.71-35.21,41.4-36.72C504.76,101,504.9,96.85,498.06,96.85Z"/><path class="cls-37" d="M461.84,111.32c-9.07,7.06-16.84,15.2-19.8,21.25l18,6.84a87.26,87.26,0,0,1,10.37-15.77C469.4,122,468.11,114,461.84,111.32Z"/><path class="cls-35" d="M499.07,98.58c2.16-.29,4-4.75.72-3-.5.29-2.66,1.8-1.51,2.37.36.22.93.51.79.51Z"/><path class="cls-38" d="M598,44h0a12,12,0,0,1,13.61,9.94l.79,5.11a12,12,0,0,1-9.94,13.61h0a11.93,11.93,0,0,1-13.6-9.94l-.8-5.11A12,12,0,0,1,598,44Z"/><path class="cls-39" d="M491.22,37.74,589.29,8.29l15.91,101-102.39,2.16c-24.84.5-41.83-10-45.07-30.67s10.73-36.22,33.41-43.06Z"/><path class="cls-40" d="M585.83.08h0a6.77,6.77,0,0,1,7.71,5.62L610.1,110.46a6.75,6.75,0,0,1-5.62,7.7h0a6.74,6.74,0,0,1-7.7-5.61L580.22,7.79A6.75,6.75,0,0,1,585.83.08Z"/><path class="cls-41" d="M501.23,108.41l11.84-1.87c.14,0,.38.37.53.89l4.82,16.29c.15.51.16,1,0,1l-11.84,1.87c-.14,0-.38-.38-.53-.89l-4.82-16.29C501.09,108.86,501.08,108.43,501.23,108.41Z"/><path class="cls-42" d="M483.3,95.84l12.46-1.94a7.39,7.39,0,0,1,7.92,5l15.84,53.64a5.36,5.36,0,0,1-4.32,7l-12.46,1.94a7.39,7.39,0,0,1-7.92-5L479,102.83A5.36,5.36,0,0,1,483.3,95.84Z"/><path class="cls-43" d="M520.09,111,507.71,32.77l-16.56,5c-22.68,6.84-36.72,22.39-33.41,43.06S478,112,502.81,111.47l17.28-.36Z"/><path class="cls-44" d="M490.12,62.66l.93,5.88a3.13,3.13,0,0,1-1.28.34L467,72.47a3.51,3.51,0,0,1-1.33.07l-.93-5.89a3.52,3.52,0,0,1,1.29-.33l22.73-3.59A3.23,3.23,0,0,1,490.12,62.66Z"/><path class="cls-44" d="M493.2,82.17l.93,5.89a3.42,3.42,0,0,1-1.28.33L470.11,92a3.45,3.45,0,0,1-1.32.07l-.93-5.89a3.42,3.42,0,0,1,1.28-.33l22.74-3.59A3.45,3.45,0,0,1,493.2,82.17Z"/><path class="cls-45" d="M630.26,52.14l30.24-4.75a1.34,1.34,0,0,1,1.58,1.15h0a1.34,1.34,0,0,1-1.15,1.58l-30.24,4.76a1.37,1.37,0,0,1-1.59-1.16h0A1.35,1.35,0,0,1,630.26,52.14Z"/><path class="cls-46" d="M615.06,29.39l18-24.77a1.34,1.34,0,0,1,2-.29h0a1.32,1.32,0,0,1,.29,1.94L617.3,31a1.34,1.34,0,0,1-1.95.29h0A1.32,1.32,0,0,1,615.06,29.39Z"/><path class="cls-47" d="M624.86,79l24.76,18a1.32,1.32,0,0,1,.29,1.94h0a1.32,1.32,0,0,1-1.94.29l-24.77-18a1.33,1.33,0,0,1-.29-2h0A1.33,1.33,0,0,1,624.86,79Z"/><path class="cls-48" d="M362.63,166c-1.73-.72-3.1-1.58-3.89-1.15-1.87,1.08-9.94,9.58-8.57,12.17,3.24,3.38,10.58-3.38,12.82-4-.22-2.95,0-4.46-.36-7Z"/><path class="cls-49" d="M359,164.75c-.15,0-.22.07-.29.07-1.87,1.08-9.94,9.58-8.57,12.17l.14.14h0l.15.15h0l.07.07c3.38-1.08,6.05-3.89,8.06-6.62.58-.8.94-4.47.51-6Z"/><path class="cls-50" d="M437.94,158.7C423.68,170.15,395.46,176.13,363,173a5.86,5.86,0,0,1-.36-7c14.9-.5,37.51-8.2,50.61-13.53,10.52-4.32,28.37-13.54,24.63,6.26Z"/><path class="cls-48" d="M363.56,190.6c-1.8-.43-3.31-1.08-4-.51-1.73,1.37-8.28,11-6.55,13.32,3.74,2.89,9.93-5,12-6C364.35,194.56,364.28,193.05,363.56,190.6Z"/><path class="cls-49" d="M359.82,190a.37.37,0,0,0-.29.14c-1.73,1.37-8.28,11-6.55,13.32.07.08.14.08.14.15h0c.07.07.15.07.15.14h.07c3.17-1.58,5.4-4.75,6.91-7.85.43-.93.22-4.53-.43-6Z"/><path class="cls-51" d="M436.79,171.59c-12.31,13.61-39.24,23.9-71.72,25.92a5.88,5.88,0,0,1-1.44-6.84c14.62-2.88,35.79-14,47.88-21.38,9.65-5.91,25.85-17.86,25.35,2.3Z"/><path class="cls-52" d="M453.35,126.73c.72-6.12,9.29-1.29,12.17-8.49,5.11-12.89-19.44-22.25-20.09,1.08-.07,1.65.65,7.77,3.24,7.92.93.07,4.53.86,4.68-.58Z"/><path class="cls-53" d="M458,134.51c2.59-13.25-16.42-13.32-21.89-6.7-8.21,9.87-13.68,15.41-29.24,21.75-2.37,9.65,12.53,28.65,19.88,30.45,17.71-10.29,27.79-27.93,31.25-45.43Z"/><path class="cls-54" d="M454.64,101c-2.73-.94-9.36,2.09-8.2,6.19-1.59,4.82-1.23,11.52-.94,13.54.14,1.36,4.61,2.95,6.48,1.58,4-3.1,1.44-2.45,2.09-5.54.29-1.52,3,.86,2.16-.87-1.8-3.67,3.31-2.59,6.84-3.53,1.73-.5,4.68-.86,3-3.67,5,0,3.46-6.91-1.08-4.25,3.39-3.38-3.74-7.41-5-2.73,0-3-5.32-3.67-5.32-.72Z"/><path class="cls-55" d="M512,116.87c-7.7,12.31-42.7,29.23-58.18,27.5l2.52-16.56c14.55,1.59,44-3.81,53.14-15.41,2.66-3.38,6.26-1.36,2.59,4.47Z"/><path class="cls-56" d="M476.75,141c-9.58,3.1-18.87,4.75-24.84,4.1l3.81-18.86a147.65,147.65,0,0,0,19.16.79c.5,2.88,2.88,8.64,1.8,14Z"/><path class="cls-35" d="M508.86,114.2c-1.37-1.72.43-6.19,1.51-2.66.15.58.65,3.17-.57,2.81C509.37,114.2,508.79,114.06,508.86,114.2Z"/><path class="cls-48" d="M680.59,197.37c1.87.14,3.52,0,4,.79,1.22,1.8,4.32,13,1.94,14.76-4.46,1.51-7.78-7.92-9.5-9.51C678.57,200.89,679.07,199.45,680.59,197.37Z"/><path class="cls-49" d="M684.33,197.94l.22.22c1.22,1.8,4.32,13,1.94,14.76-.07,0-.14.07-.22.07h0a.26.26,0,0,0-.21.07H686c-2.45-2.52-3.53-6.26-4-9.65C681.81,202.41,683.18,199.09,684.33,197.94Z"/><path class="cls-57" d="M617.37,155.82c7.27,16.85,29.45,35.21,59.62,47.59,2-.64,3.81-3.24,3.6-6-13-7.42-29.38-24.77-38.45-35.64-7.28-8.72-18.8-25.2-24.7-5.91Z"/><path class="cls-48" d="M668.27,218.68c1.8.43,3.46.58,3.82,1.37.86,2,2.23,13.61-.43,14.9-4.61.79-6.41-9.07-7.92-10.87,1.94-2.3,2.66-3.6,4.46-5.4Z"/><path class="cls-49" d="M671.87,219.83a.88.88,0,0,1,.22.29c.86,2,2.23,13.61-.43,14.9h-.51c-2.08-2.88-2.52-6.76-2.44-10.15C668.71,223.86,670.65,220.77,671.87,219.83Z"/><path class="cls-58" d="M612.4,167.7c4.54,17.79,23.54,39.39,51.41,56.38a5.89,5.89,0,0,0,4.46-5.4c-11.66-9.36-25.13-29.09-32.4-41.26C630,167.7,621.33,149.56,612.4,167.7Z"/><path class="cls-59" d="M617.51,120.32c.87-6.12-8.64-3.6-9.57-11.3-1.66-13.75,24.48-16.56,19.15,6.12-.36,1.66-2.59,7.35-5.11,6.84-.94-.14-4.61-.29-4.4-1.73Z"/><path class="cls-60" d="M610.89,125.08c3.89-12.89,20.73-4.11,22.53,4.25,2.67,12.52,4.9,20,15.7,32.83-2.38,9.65-24.41,19.51-31.82,17.64C606.42,162.45,605.7,142.14,610.89,125.08Z"/><path class="cls-61" d="M563.8,103.69c5.33,13.47,36.65,36.51,52.2,37.66l.58-16.78C602,123.49,574,112.84,567.11,99.73c-2-3.81-5.9-2.45-3.38,3.89Z"/><path class="cls-62" d="M570.85,116.94c12.25,12.53,35.14,24.63,46.88,25.49l-.36-19.22c-11-.8-29.74-6.13-41.4-14.26-1.73.79-4.11,4.61-5.12,8.06Z"/><path class="cls-35" d="M567.4,101.6c1.65-1.44.72-6.12-1-2.88-.29.51-1.22,3,.07,2.81.43-.07,1-.07.94,0Z"/><path class="cls-63" d="M618.23,94.55c.58-2.09-.43-4.61-4.61-5.11-8.85-1.08-6.48,12.67-2.08,14.47,3.09,1.94,8.64,2.09,5.9,5.25-1.22,1.44,2-.14,1.87,1.37-.14,3.17-3.38,1.73-.29,5.76,1.37,1.73,6.27,1.73,7.28,1,3.16-2.23,3.09-8.93,2.8-14-.21-3.38-3.31-7.63-6.33-8.06C621.11,95,619.6,94.69,618.23,94.55Z"/><path class="cls-64" d="M303.8,294.79c14.4,5.11,54.36-3.75,66.1-15.27L357,267.5c-10.94,10.87-38.81,25.63-53.93,22-4.39-1.08-6.05,3,.79,5.4Z"/><path class="cls-65" d="M319.21,298.39c18.43-1,38.66-9.36,47.45-18.08l-10.23-14.54c-8.2,8.06-25.48,19.29-40,23C315.82,290.68,317.26,295.22,319.21,298.39Z"/><path class="cls-35" d="M304.66,290.54c0-2.31-4.39-4.83-3-1.23.22.58,1.51,3,2.31,1.95C304.3,290.9,304.66,290.39,304.66,290.54Z"/><path class="cls-66" d="M284.79,262l2.39-1.07a1.27,1.27,0,0,1,1.71.34l19.86,44.13c.23.51-.16,1.18-.88,1.51L305.49,308a1.28,1.28,0,0,1-1.72-.34l-19.86-44.13C283.68,263,284.08,262.33,284.79,262Z"/><path class="cls-66" d="M290.61,278.29l4.9-2.21c1.25-.56,2.37-.76,2.51-.45l13.12,29.14c.14.31-.76,1-2,1.58l-4.91,2.21c-1.25.56-2.37.77-2.51.45L288.6,279.87C288.46,279.56,289.36,278.85,290.61,278.29Z"/><path class="cls-66" d="M264.27,213.28A28.42,28.42,0,1,1,250,250.86,28.37,28.37,0,0,1,264.27,213.28Zm2.38,5.33a22.59,22.59,0,1,1-11.31,29.88A22.6,22.6,0,0,1,266.65,218.61Z"/><path class="cls-67" d="M266.65,218.61a22.59,22.59,0,1,1-11.31,29.88A22.6,22.6,0,0,1,266.65,218.61Z"/><path class="cls-67" d="M273.92,216.66l7.2,44.5a21.76,21.76,0,0,1-9.86.07l-6.77-41.54a22.27,22.27,0,0,1,2.23-1.15A21.88,21.88,0,0,1,273.92,216.66Zm2.66-.07a27,27,0,0,1,4.25.51l6.77,41.4a23.89,23.89,0,0,1-2.3,1.22c-.51.22-1,.43-1.59.65Z"/><path class="cls-54" d="M388,376.29c1.58,1.08,3.17,1.87,3.17,2.88.14,2.31-3.1,14.19-6.12,14.4-4.83-1-2.81-11.37-3.53-13.75A60.34,60.34,0,0,1,388,376.29Z"/><path class="cls-68" d="M391.07,378.81a.68.68,0,0,1,.07.36c.14,2.31-3.1,14.19-6.12,14.4a.28.28,0,0,1-.22-.07h0c-.07,0-.14-.07-.21-.07h-.08c-.93-3.6.15-7.56,1.52-10.87C386.46,381.55,389.48,379.24,391.07,378.81Z"/><path class="cls-69" d="M352.83,304.79c-2.37,19.16,7.92,47.74,28.66,75a6.2,6.2,0,0,0,6.48-3.53c-7.78-13.68-13.46-38.16-15.91-52.92-1.95-11.74-3.6-32.9-19.3-18.58Z"/><path class="cls-54" d="M351.9,391.12c1.08,1.59,2.23,2.88,1.94,3.82-.72,2.16-7.92,12.1-10.87,11.3-4.18-2.66,1.44-11.59,1.58-14.11C347.65,391.77,349.16,391.27,351.9,391.12Z"/><path class="cls-68" d="M353.91,394.58a.66.66,0,0,1-.07.36c-.72,2.16-7.92,12.1-10.87,11.3-.07-.07-.14-.07-.22-.14h0c-.07-.07-.14-.07-.14-.14h0l-.07-.08c.43-3.67,2.81-7.05,5.25-9.64.72-.8,4.4-1.8,6-1.66Z"/><path class="cls-70" d="M344.7,311.78c-9.07,17.06-9.72,47.37-.07,80.35a6.32,6.32,0,0,0,7.34-1c-2.38-15.55,1.08-40.46,4.1-55.08,2.38-11.66,8.43-32-11.3-24.26Z"/><path class="cls-71" d="M347.43,268.5c-.36-6.48-7.12-1.15-9.72-8.85-4.53-13.83,19.3-23,18.51,1.65-.07,1.8-1.15,8.14-3.89,8.14-1,0-4.82.65-4.9-.86Z"/><path class="cls-72" d="M341,271.82c7.92-11.74,24.84-4.32,26.56,4.53,2.31,11.88,2,27.8,8.93,44.07-5.4,9-30.53,12.09-37.29,7.92.64-30.89-8.64-41,1.87-56.52Z"/><path class="cls-73" d="M300.56,302.35C315.1,307,354.78,297,366.15,285l-13.24-11.66c-10.66,11.16-38,26.78-53.29,23.62-4.46-.94-6,3.16.94,5.32Z"/><path class="cls-74" d="M316.11,305.44c18.44-1.58,43.49-12.17,52.06-21.1l-15.84-12.6c-7.92,8.36-24.91,20.09-39.31,24.2-.51,1.94,1,6.48,3.16,9.5Z"/><path class="cls-35" d="M301.28,298c-.07-2.31-4.54-4.68-2.95-1.08.21.57,1.58,2.95,2.37,1.87.22-.36.65-.87.65-.72Z"/><path class="cls-75" d="M365.65,258.35c1,10.73,14.76,14.91,14.69,20.09-.15,6.48,3.24,12.53-12.46,6.05-5.61-2.31-12.24,5.83-14.69-11.67-.28-1.8.65-8.28-.64-9.5-3.89-3.74-.65-2.66-1.37-5.9-.36-1.59-3.17.93-2.38-.87,2.67-5.83-10.51-.07-10.58-7.41C338.07,237,363.56,236,365.65,258.35Z"/><path class="cls-76" d="M560.49,224.94l-7,.94a15.33,15.33,0,0,0-1.94,2.3,24.12,24.12,0,0,1,2.59,4.11,29,29,0,0,1-.65,27.14,28.17,28.17,0,0,1-8,8.93c-.72.5-1.3.86-2,1.3a29,29,0,0,1-16.34,4.1c-10.8-.58-19.58-6.77-24.34-16.34-6.48-13.11-.93-30.24,11.74-37.16a29.19,29.19,0,0,1,10.15-3.45c8.07-1.08,16.27,1.51,21,5.47a12.08,12.08,0,0,0,2.3-1.94l.94-7c-8-5.33-18.72-7-28.08-5.11a31.42,31.42,0,0,0-6.56,2.09,29.85,29.85,0,0,0-5.76,3,43.63,43.63,0,0,0-5,3.75,35.83,35.83,0,0,0-4.24,4.53c-8.36,10.3-11.31,26.5-4.54,40a36.53,36.53,0,0,0,3.24,5.47,39.5,39.5,0,0,0,5.11,5.76,37.48,37.48,0,0,0,9.07,6.2c13.18,6.62,29.31,4.24,40-4.47a36.12,36.12,0,0,0,4.46-4.17c1.58-2,2.23-2.6,3.82-5,6.4-10.23,7.92-23.69,3-34.78a36.51,36.51,0,0,0-3-5.76Z"/><path class="cls-77" d="M551.63,228.18a44.76,44.76,0,0,0-3.1,3.6c-.57.65-1,1.16-1.51,1.8a17.76,17.76,0,0,0-1.51,1.88c1.08,1.08,2.09,4.6,2.45,6.48a19.6,19.6,0,0,1-21,22.82,20.47,20.47,0,0,1-12.09-5.62,19.63,19.63,0,0,1-1.59-25.84,19.23,19.23,0,0,1,10.8-7,18.92,18.92,0,0,1,8.07-.21c1.73.28,5.33,1.44,6.33,2.44a15.15,15.15,0,0,0,1.88-1.51c.64-.5,1.15-1,1.8-1.51s3.31-2.66,3.6-3.1c-4.76-4-13-6.55-21-5.47a28.64,28.64,0,0,0-10.15,3.46c-12.74,6.84-18.22,24.05-11.74,37.15,4.76,9.58,13.54,15.77,24.34,16.34a29,29,0,0,0,16.34-4.1c.72-.43,1.3-.79,2-1.3a28.13,28.13,0,0,0,8-8.92,28.6,28.6,0,0,0,.65-27.15,23.62,23.62,0,0,0-2.59-4.1Z"/><path class="cls-78" d="M545.51,235.38l-4.32,5.12-3.1.14c2.81,5.18-.14,10.8-3.24,13a10.46,10.46,0,0,1-14.61-14.61,10.8,10.8,0,0,1,5.4-3.89c2.09-.65,6-.72,7.56.65.21-.8-.07-2.31.29-3l3.45-2.95a8.43,8.43,0,0,0,1.66-1.51c-1-1-4.61-2.09-6.34-2.45a20.23,20.23,0,0,0-8.06.22A19.57,19.57,0,0,0,515,258.93a20.26,20.26,0,0,0,12.1,5.61,19.58,19.58,0,0,0,21-22.82c-.36-1.87-1.37-5.4-2.45-6.48Z"/><path class="cls-77" d="M538.17,240.71c-.94.07-3.1-.07-3.68.36a23.84,23.84,0,0,0-1.94,2c-1.44,1.44-3.38,4-4.46,2.95s.5-2.09.93-2.52l2-1.95c1.72-1.72,2.66-1.8,2.23-5.61-1.66-1.37-5.47-1.3-7.56-.65a10.47,10.47,0,1,0,9.21,18.5c3.17-2.23,6-7.84,3.24-13Z"/><path class="cls-79" d="M548.1,220.48a12.11,12.11,0,0,1-2.3,1.94,39.65,39.65,0,0,1-3.6,3.1c-.65.58-1.15,1-1.8,1.51a17.44,17.44,0,0,1-1.87,1.51c-.44.51-1.08.94-1.66,1.52L533.41,233c-.36.72-.07,2.23-.28,3,.43,3.75-.58,3.89-2.24,5.62L529,243.59c-.43.43-1.87,1.51-.94,2.52,1.08,1.08,3.1-1.51,4.47-3a23.6,23.6,0,0,1,1.94-1.94c.58-.44,2.74-.29,3.67-.36l3.1-.15,4.32-5.11a16.73,16.73,0,0,1,1.51-1.87c.51-.65.94-1.15,1.51-1.8s2.67-3.31,3.1-3.6a11.84,11.84,0,0,1,1.94-2.31c.44-.86,4.9-5.76,5.33-6.48l-4.25-4.24c-.79.43-5.68,4.89-6.48,5.32Z"/><path class="cls-80" d="M553.57,225.88l7-.94a30.58,30.58,0,0,0,3.67-.43,3.59,3.59,0,0,0,2.23-1.94L562.72,221c-.65-.28-1.23-.5-1.87-.79s-1.37-.65-2-.79C558.47,220.12,554,225.09,553.57,225.88Z"/><path class="cls-80" d="M549,213.5l-.94,7c.79-.43,5.69-4.9,6.48-5.33-.21-.86-3-6.62-3.17-7.56-.5.15-.72.51-1.08.87-1.22,1.22-.72.28-1.08,3.09a17,17,0,0,0-.21,1.87Z"/><path class="cls-81" d="M261.1,94.4l7.78,22.32a4,4,0,0,0,5,2.38l7.34-2.59c1.8-.65,1.73-.65,2.95.14l5.76,3.89c.51.36,1.52,1.3,2,0l2.3-7.34c.43-1.44.36-1.37,2.23-2l7.35-2.59a4.09,4.09,0,0,0,2.45-5L298.4,81.3a4.06,4.06,0,0,0-4.9-2.38L263.41,89.44A4,4,0,0,0,261,94.33Z"/><path class="cls-82" d="M286.81,108.08l3.31-6.19c1.08-1.94,2.23-4.53,2-6.84a5.88,5.88,0,0,0-4.9-5.54,4.73,4.73,0,0,0-4.68,3l-.5,1.59c-.08.28,0,.07-.08.14s-.07-.07-.07,0l-.65-.5c-1.87-1.3-4.39-1.66-6.26.07-2.59,2.3-2.16,7.13,2.16,9.86a30.14,30.14,0,0,0,4,2Z"/><path class="cls-83" d="M558.4,158.05l-16.85,16.64a4.09,4.09,0,0,0,0,5.54c1.8,1.87,3.67,3.67,5.47,5.54,1.37,1.37,1.3,1.3,1.08,2.74l-1,6.91c-.07.65-.5,1.87.87,1.73l7.63-1.08c1.44-.22,1.37-.29,2.81,1.15,1.8,1.87,3.67,3.67,5.47,5.55a4.09,4.09,0,0,0,5.54.07l16.85-16.63a4,4,0,0,0,0-5.48l-22.39-22.68A4,4,0,0,0,558.4,158.05Z"/><path class="cls-82" d="M554.73,178.72l4.24.21a9,9,0,0,0,4.32-.64,3.43,3.43,0,0,0,1.73-4.11,2.92,2.92,0,0,0-1.8-1.65,2.87,2.87,0,0,0-1.08-.15l-1,.15H561v-.08l.07-.5a3.1,3.1,0,0,0-1.65-3.46c-1.95-.79-4.47.72-4.83,3.75a16.89,16.89,0,0,0-.07,2.66l.14,3.75Z"/><path class="cls-84" d="M569.7,181a2.35,2.35,0,0,1,.79,2.16,4.12,4.12,0,0,1-1.36,2.38,6.71,6.71,0,0,1-1.73,1.22,3.4,3.4,0,0,1-1.66.22,2.65,2.65,0,0,1-1.44-.8,3,3,0,0,1-.65-1,3.51,3.51,0,0,1-.28-1.16v-.28c0-.08.07-.15.14-.22a.77.77,0,0,1,.36-.14.66.66,0,0,1,.36.07l.14.14c0,.07.08.15.08.22a3,3,0,0,0,.64,1.51,1.34,1.34,0,0,0,1.37.36,3.86,3.86,0,0,0,1.73-1.08,2.46,2.46,0,0,1-1,0,1.79,1.79,0,0,1-.93-.58,2,2,0,0,1-.58-1,2.19,2.19,0,0,1,.07-1.16,4.43,4.43,0,0,1,.65-1.08,2.06,2.06,0,0,1,1.15-.64,2.24,2.24,0,0,1,1.23,0,2.77,2.77,0,0,1,1.08.64Zm-2.59,2.66a1.28,1.28,0,0,0,.94.44,1.26,1.26,0,0,0,.93-.44,1.23,1.23,0,0,0,.43-.93,1.51,1.51,0,0,0-.36-.94,1,1,0,0,0-.93-.36,1.31,1.31,0,0,0-.94.43,1.27,1.27,0,0,0-.43.94,1.51,1.51,0,0,0,.36.94Z"/><path id="_1" data-name="1" class="cls-84" d="M575.68,187.14a.66.66,0,0,1,.22.43.55.55,0,0,1-.15.36.6.6,0,0,1-.43.22l-6.63,1.8a.65.65,0,0,1-.64-.14,1.14,1.14,0,0,1-.22-.44,1.08,1.08,0,0,1,.14-.43.59.59,0,0,1,.36-.14l5.91-1.66-2.16-2.23c-.29-.29-.29-.58-.07-.79s.5-.22.86.07l2.88,2.95Z"/><path class="cls-85" d="M381,51.28a18.56,18.56,0,0,1,5.76,36.21l-5.19,6.63a.67.67,0,0,1-1.15,0l-5.18-6.63A18.56,18.56,0,0,1,381,51.28Z"/><path class="cls-6" d="M381.06,60.2c0,3.24-1.15,4.18-2.52,7.13a.46.46,0,0,1-.36.36c-.15.07-.43.15-.51.29v6.91a5.17,5.17,0,0,0,.94.43,17.41,17.41,0,0,0,4,.22h2.74c1.29,0,3,.36,3.09-1,0-.72-.79-.93-.29-1.37.15-.14.36-.14.51-.21a1,1,0,0,0,.5-1.37c-.07-.22-.57-.58-.21-.94.14-.14.28-.14.5-.21a1,1,0,0,0,.29-1.73c-.07-.07-.72-.36-.29-.79a1.46,1.46,0,0,0,.58-.79,1.31,1.31,0,0,0-1.16-1.59c-.86-.07-1.87,0-2.73,0h-2.74c-.43,0-.86,0-.79-.57.29-1.23.65-1,.79-2.38A2.65,2.65,0,0,0,382,60c-.36-.22-.79,0-1.08.14Z"/><polygon class="cls-86" points="371.91 76.33 376.88 76.33 376.88 67.26 371.91 67.26 371.91 76.33"/><path class="cls-87" d="M564.16,313.94a18.55,18.55,0,0,1-21.1,29.95L534.71,345a.71.71,0,0,1-.86-.79l.93-8.35a18.54,18.54,0,0,1,29.31-22Z"/><path class="cls-6" d="M558,320.42c-2.24,2.3-3.75,2.16-6.77,3.38a.65.65,0,0,1-.51,0,.78.78,0,0,0-.57-.14l-4.83,5a7.06,7.06,0,0,0,.36.93,16.78,16.78,0,0,0,2.67,2.88c.65.65,1.29,1.23,1.94,1.87.94.94,2,2.38,3,1.44.51-.5.08-1.22.72-1.22.22,0,.29.14.51.22a1,1,0,0,0,1.29-.58c.08-.22,0-.79.44-.79.21,0,.28.14.5.21a1.07,1.07,0,0,0,1.44-1.08c0-.07-.22-.72.36-.72.29,0,.5.15.94-.14a1.2,1.2,0,0,0,.28-1.87,21.42,21.42,0,0,0-1.94-1.87l-1.94-2c-.29-.29-.65-.65-.15-.93,1-.65,1.23-.22,2.23-1.16a2.74,2.74,0,0,0,.87-2.8c-.15-.36-.58-.51-.87-.65Z"/><polygon class="cls-86" points="540.18 325.6 543.78 329.06 550.05 322.58 546.52 319.12 540.18 325.6"/><polygon class="cls-88" points="340.38 103.12 341.24 108.23 345.78 110.53 341.1 112.98 340.38 117.95 336.56 114.35 331.59 115.14 333.9 110.39 331.59 105.92 336.78 106.64 340.38 103.12"/><polygon class="cls-89" points="507.2 185.2 509.8 189.81 514.84 190.38 511.24 194.27 512.25 199.24 507.42 197.08 503.03 199.53 503.61 194.27 499.93 190.81 505.12 189.81 507.2 185.2"/><polygon class="cls-90" points="499.72 313.43 502.31 318.04 507.28 318.62 503.75 322.51 504.76 327.47 499.93 325.31 495.54 327.76 496.12 322.51 492.44 319.12 497.56 318.04 499.72 313.43"/><polygon class="cls-91" points="424.69 107.58 425.63 112.77 430.16 115 425.48 117.52 424.76 122.48 420.95 118.81 415.98 119.61 418.28 114.92 415.98 110.46 421.16 111.18 424.69 107.58"/><polygon class="cls-92" points="312.23 33.35 313.16 38.53 317.63 40.76 313.02 43.21 312.23 48.25 308.48 44.58 303.51 45.37 305.82 40.69 303.51 36.16 308.7 36.95 312.23 33.35"/><path class="cls-93" d="M21.34,185.49l17,16.48a4,4,0,0,0,5.54-.14c1.8-1.87,3.6-3.74,5.48-5.62,1.36-1.36,1.29-1.36,2.73-1.15l6.91.87c.65.07,1.95.43,1.73-.87L59.5,187.5c-.22-1.44-.29-1.37,1.08-2.81,1.8-1.87,3.6-3.74,5.47-5.61a4.11,4.11,0,0,0,0-5.55l-17-16.48a4.08,4.08,0,0,0-5.47.07L21.41,179.94a4.08,4.08,0,0,0,.07,5.47Z"/><path class="cls-82" d="M50.43,186.13l.21-7c.07-2.16-.07-5-1.22-7.06-1.66-2.73-4.75-3.6-6.84-2.73a4.83,4.83,0,0,0-2.67,3,5.09,5.09,0,0,0-.21,1.73l.21,1.66c.08.28,0,.07,0,.21h-.07l-.86-.14c-2.23-.29-4.68.5-5.62,2.88-1.29,3.24,1.3,7.34,6.34,7.85.72.07,3.67.14,4.46.07l6.19-.43Z"/><polygon class="cls-94" points="114.94 196.72 115.88 201.9 120.34 204.13 115.73 206.58 114.94 211.55 111.2 207.95 106.23 208.74 108.53 203.99 106.23 199.53 111.41 200.25 114.94 196.72"/><path class="cls-95" d="M179,37.38a18.57,18.57,0,0,1,5.76,36.22l-5.18,6.62a.67.67,0,0,1-1.15,0l-5.19-6.62A18.57,18.57,0,0,1,179,37.38Z"/><path class="cls-6" d="M179.09,46.31c0,3.24-1.15,4.17-2.52,7.13a.47.47,0,0,1-.36.36c-.14.07-.43.14-.5.28V61a7.1,7.1,0,0,0,.94.43,17.43,17.43,0,0,0,4,.21h2.73c1.3,0,3,.36,3.1-1,0-.72-.79-.94-.29-1.37.14-.15.36-.15.5-.22a1,1,0,0,0,.51-1.37c-.07-.21-.58-.57-.22-.93.15-.15.29-.15.51-.22a1,1,0,0,0,.28-1.73c-.07-.07-.72-.36-.28-.79a1.41,1.41,0,0,0,.57-.79,1.3,1.3,0,0,0-1.15-1.58c-.86-.08-1.87,0-2.74,0H181.4c-.43,0-.87,0-.79-.58.28-1.22.64-1,.79-2.38A2.68,2.68,0,0,0,180,46.09a1.15,1.15,0,0,0-1.08.15Z"/><polygon class="cls-86" points="169.95 62.44 174.84 62.44 174.84 53.36 169.95 53.36 169.95 62.44"/><polygon class="cls-96" points="112.06 85.19 112.92 90.37 117.46 92.6 112.78 95.05 112.06 100.02 108.24 96.42 103.28 97.21 105.58 92.53 103.28 88 108.46 88.79 112.06 85.19"/><path class="cls-97" d="M222.73,404.66l4.17-.43V293.56a10.57,10.57,0,0,0-10.51-10.51H113.21a10.42,10.42,0,0,0-3.38.57,21.52,21.52,0,0,1,1.58,3.75,7.44,7.44,0,0,1,1.8-.29H216.39a6.39,6.39,0,0,1,6.34,6.34V404.66Z"/></g><path class="cls-2" d="M607.5,432l-12.09,22.82a.7.7,0,0,1-.29.36h.07l-.14.08a2.91,2.91,0,0,1-2.16,1.08l-77.55-2.74a.91.91,0,0,1-.93-1.22l-.08-.08h.08a.59.59,0,0,1,.14-.36l12.1-22.82-.29-.15,1.08-.72.14.08c2.16-.94,9.29-4,17.64-7.28l1.51-2.88,5.55.22c9.72-3.53,19.58-6.55,24.55-6.41s11.38,3.82,17,7.85l3.53.14-.93,1.8a133.62,133.62,0,0,1,10.87,9.36l.21-.07.15.36h0l.14.36-.43.07Z"/><g id="_372465776" data-name=" 372465776"><path class="cls-98" d="M532.48,428.64l80.28,2.66-16.27,22.11a4,4,0,0,1-2.74,1.51l-77-2.59c-.86,0-1.08-.8-.43-1.59l16.27-22.1Z"/><path class="cls-99" d="M532.48,428.64l80.28,2.66s-16.06-18.07-27.5-18.43S532.48,428.64,532.48,428.64Z"/><polygon class="cls-100" points="533.13 428.28 596.13 453.84 594.9 454.49 531.83 428.93 533.13 428.28"/><polygon class="cls-100" points="612.83 431.66 516.06 451.89 515.85 451.1 612.62 430.94 612.83 431.66"/><polygon class="cls-101" points="611.18 431.23 534.06 428.64 564.45 440.95 611.18 431.23"/><polygon class="cls-102" points="554.08 418.7 604.41 420.36 593.75 434.83 564.45 440.95 543.85 432.6 554.08 418.7"/><polygon class="cls-103" points="560.05 439.22 571.22 439.58 566.46 440.59 563.22 440.44 560.05 439.22"/><polygon class="cls-103" points="549.69 434.97 587.13 436.27 582.3 437.28 552.85 436.27 549.69 434.97"/><path class="cls-103" d="M567,421.36l30.89,1c.57,0,.86.29.64.58h0a1.81,1.81,0,0,1-1.51.5l-30.89-1c-.57,0-.86-.28-.65-.57h0A1.85,1.85,0,0,1,567,421.36Z"/><path class="cls-103" d="M554.94,424.53l40.4,1.37c.57,0,.86.29.64.58h0a1.85,1.85,0,0,1-1.51.5l-40.39-1.37c-.58,0-.87-.29-.65-.57h0A1.83,1.83,0,0,1,554.94,424.53Z"/><path class="cls-103" d="M552.35,428l40.39,1.37c.58,0,.87.28.65.57h0a1.82,1.82,0,0,1-1.51.51l-40.39-1.37c-.58,0-.87-.29-.65-.58h0A1.81,1.81,0,0,1,552.35,428Z"/><path class="cls-103" d="M549.83,431.44l40.39,1.37c.58,0,.87.29.65.58h0a1.81,1.81,0,0,1-1.51.5L549,432.52c-.58,0-.87-.28-.65-.57h0A1.82,1.82,0,0,1,549.83,431.44Z"/></g><path class="cls-2" d="M449.46,492.57c34.27,0,62.07,5.48,62.07,12.24s-27.8,12.24-62.07,12.24-62.07-5.47-62.07-12.24S415.19,492.57,449.46,492.57Z"/><g id="_372464408" data-name=" 372464408"><rect class="cls-104" x="410.22" y="495.53" width="7.13" height="11.74" rx="1.01"/><rect class="cls-104" x="482.44" y="495.53" width="7.13" height="11.74" rx="1.01"/><rect class="cls-105" x="402.15" y="448.87" width="95.55" height="49.68" rx="6.77"/><rect class="cls-106" x="418.86" y="430.08" width="62.07" height="53.57" rx="7.27"/><rect class="cls-107" x="418.86" y="470.33" width="62.07" height="13.32" rx="1.8"/></g></g></g></g></svg>