<svg xmlns="http://www.w3.org/2000/svg" xmlns:xlink="http://www.w3.org/1999/xlink" viewBox="0 0 713.28 547.76"><defs><style>.cls-1{fill:url(#linear-gradient);}.cls-2{fill:#cac5e2;}.cls-11,.cls-13,.cls-15,.cls-16,.cls-17,.cls-18,.cls-19,.cls-2,.cls-20,.cls-21,.cls-22,.cls-3,.cls-33,.cls-34,.cls-35,.cls-36,.cls-37,.cls-4,.cls-41,.cls-42,.cls-44,.cls-45,.cls-46,.cls-48,.cls-49,.cls-5,.cls-50,.cls-51,.cls-52,.cls-53,.cls-54,.cls-57,.cls-6,.cls-60,.cls-62,.cls-64,.cls-65,.cls-68,.cls-7,.cls-72,.cls-73,.cls-74,.cls-75,.cls-78,.cls-79,.cls-8,.cls-80,.cls-81,.cls-9{fill-rule:evenodd;}.cls-3{fill:#b9afe0;}.cls-4{fill:#fbe1e1;}.cls-5{fill:#f3f0ff;}.cls-6,.cls-66{fill:#af9d9d;}.cls-7{fill:url(#linear-gradient-2);}.cls-8{fill:#dafae2;}.cls-9{fill-opacity:0.3;}.cls-10,.cls-28,.cls-43{fill:none;}.cls-10{stroke:#7e67f0;stroke-miterlimit:10;stroke-dasharray:9.6 5.76;}.cls-10,.cls-28{stroke-width:1.92px;}.cls-11{fill:url(#linear-gradient-3);}.cls-12{fill:#60fcfc;}.cls-13{fill:#ddd4e9;}.cls-14{fill:#749fdb;}.cls-15{fill:url(#linear-gradient-4);}.cls-16{fill:url(#linear-gradient-5);}.cls-17{fill:#ffbdb0;}.cls-18{fill:#fed3a6;}.cls-19{fill:url(#linear-gradient-6);}.cls-20{fill:url(#linear-gradient-7);}.cls-21{fill:#d9d1ff;}.cls-22,.cls-23{fill:#7e67f0;}.cls-24{fill:#fbfaff;}.cls-25,.cls-33{fill:#514491;}.cls-26{fill:url(#linear-gradient-8);}.cls-27{fill:#6a68a3;}.cls-28{stroke:#848484;}.cls-28,.cls-43{stroke-linecap:round;stroke-linejoin:round;}.cls-29{fill:url(#linear-gradient-9);}.cls-30{fill:url(#linear-gradient-10);}.cls-31{fill:url(#linear-gradient-11);}.cls-32{fill:url(#linear-gradient-12);}.cls-34{fill:url(#linear-gradient-13);}.cls-35{fill:url(#linear-gradient-14);}.cls-36{fill:url(#linear-gradient-15);}.cls-37{fill:url(#linear-gradient-16);}.cls-38{fill:url(#linear-gradient-17);}.cls-39{fill:url(#linear-gradient-18);}.cls-40,.cls-50{fill:#333;}.cls-41{fill:url(#linear-gradient-19);}.cls-42{fill:url(#linear-gradient-20);}.cls-43{stroke:#e4f5fd;stroke-width:3.84px;}.cls-44{fill:url(#linear-gradient-21);}.cls-45{fill:#a68ef5;}.cls-46{fill:#dedaed;}.cls-47{mask:url(#mask);}.cls-48{fill:url(#linear-gradient-22);}.cls-49{fill:#4d4d4d;}.cls-51{fill:url(#linear-gradient-23);}.cls-52{fill:url(#linear-gradient-24);}.cls-53{fill:url(#linear-gradient-25);}.cls-54{fill:url(#linear-gradient-26);}.cls-55{fill:url(#linear-gradient-27);}.cls-56{fill:url(#linear-gradient-28);}.cls-57{fill:url(#linear-gradient-29);}.cls-58{fill:#f2833f;}.cls-59{fill:url(#linear-gradient-30);}.cls-60{fill:url(#linear-gradient-31);}.cls-61{fill:#e6e6e6;}.cls-62{fill:url(#linear-gradient-32);}.cls-63{fill:url(#linear-gradient-33);}.cls-64{fill:url(#linear-gradient-34);}.cls-65{fill:url(#linear-gradient-35);}.cls-67{fill:url(#linear-gradient-36);}.cls-68{fill:#f5e0a6;}.cls-69{fill:url(#linear-gradient-37);}.cls-70{fill:url(#linear-gradient-38);}.cls-71{fill:url(#linear-gradient-39);}.cls-72{fill:url(#linear-gradient-40);}.cls-73{fill:url(#linear-gradient-41);}.cls-74{fill:url(#linear-gradient-42);}.cls-75{fill:url(#linear-gradient-43);}.cls-76{fill:url(#linear-gradient-44);}.cls-77{fill:url(#linear-gradient-45);}.cls-78{fill:url(#linear-gradient-46);}.cls-79{fill:url(#linear-gradient-47);}.cls-80{fill:#f9ff00;}.cls-81{fill:#fff;}</style><linearGradient id="linear-gradient" x1="5830.15" y1="-4999.52" x2="5559.74" y2="-4716.56" gradientTransform="matrix(0.07, 0, 0, -0.07, -68.95, 4.92)" gradientUnits="userSpaceOnUse"><stop offset="0" stop-color="#fff"/><stop offset="0.12" stop-color="#fff" stop-opacity="0.5"/><stop offset="1" stop-color="#fff" stop-opacity="0"/></linearGradient><linearGradient id="linear-gradient-2" x1="7920.22" y1="-6427.8" x2="6393.18" y2="-6687.35" gradientTransform="matrix(0.07, 0, 0, -0.07, -68.95, 4.92)" gradientUnits="userSpaceOnUse"><stop offset="0" stop-color="#4aa2d9"/><stop offset="1" stop-color="#a68ef5"/></linearGradient><linearGradient id="linear-gradient-3" x1="7514.66" y1="-4396.34" x2="7722.11" y2="-5366.67" gradientTransform="matrix(0.07, 0, 0, -0.07, -68.95, 4.92)" gradientUnits="userSpaceOnUse"><stop offset="0.08" stop-color="#749fdb"/><stop offset="0.7" stop-color="#66e1f2"/><stop offset="1" stop-color="#60fcfc"/></linearGradient><linearGradient id="linear-gradient-4" x1="7388.14" y1="-886.45" x2="5762.96" y2="-1438.52" gradientTransform="matrix(0.07, 0, 0, -0.07, -68.95, 4.92)" gradientUnits="userSpaceOnUse"><stop offset="0" stop-color="#f2833f"/><stop offset="1" stop-color="#ffc957"/></linearGradient><linearGradient id="linear-gradient-5" x1="7408.59" y1="-1879.99" x2="5742.33" y2="-2607.56" gradientTransform="matrix(0.07, 0, 0, -0.07, -68.95, 4.92)" gradientUnits="userSpaceOnUse"><stop offset="0" stop-color="#fc6094"/><stop offset="1" stop-color="#e03a3a"/></linearGradient><linearGradient id="linear-gradient-6" x1="7213.87" y1="91.55" x2="7204.73" y2="-322.26" gradientTransform="matrix(0.07, 0, 0, -0.07, -68.95, 4.92)" gradientUnits="userSpaceOnUse"><stop offset="0" stop-color="#634ec9"/><stop offset="1" stop-color="#7e67f0"/></linearGradient><linearGradient id="linear-gradient-7" x1="8291.92" y1="-713.56" x2="7905.6" y2="-2627.17" gradientTransform="matrix(0.07, 0, 0, -0.07, -68.95, 4.92)" gradientUnits="userSpaceOnUse"><stop offset="0.01" stop-color="#8475ef"/><stop offset="1" stop-color="#634ec9"/></linearGradient><linearGradient id="linear-gradient-8" x1="4160.07" y1="-6616.13" x2="4160.07" y2="-4856.57" gradientTransform="matrix(0.07, 0, 0, -0.07, -68.95, 4.92)" gradientUnits="userSpaceOnUse"><stop offset="0" stop-color="#514491"/><stop offset="1" stop-color="#6a68a3"/></linearGradient><linearGradient id="linear-gradient-9" x1="5356.7" y1="-4800.64" x2="5727.93" y2="-4990.39" gradientTransform="matrix(0.07, 0, 0, -0.07, -68.95, 4.92)" gradientUnits="userSpaceOnUse"><stop offset="0" stop-color="#ffe1bd"/><stop offset="1" stop-color="#ffbdb0"/></linearGradient><linearGradient id="linear-gradient-10" x1="5361.3" y1="-5130.86" x2="4882.84" y2="-4490.79" gradientTransform="matrix(0.07, 0, 0, -0.07, -68.95, 4.92)" gradientUnits="userSpaceOnUse"><stop offset="0" stop-color="#a68ef5"/><stop offset="1" stop-color="#514491"/></linearGradient><linearGradient id="linear-gradient-11" x1="2993.9" y1="-3582.39" x2="3412.31" y2="-3591.19" xlink:href="#linear-gradient-9"/><linearGradient id="linear-gradient-12" x1="2672.2" y1="-3574.58" x2="3368.77" y2="-3810.25" gradientTransform="matrix(0.07, 0, 0, -0.07, -68.95, 4.92)" gradientUnits="userSpaceOnUse"><stop offset="0" stop-color="#514491"/><stop offset="1" stop-color="#fc6094"/></linearGradient><linearGradient id="linear-gradient-13" x1="2321.81" y1="-4040.81" x2="1947.65" y2="-5479.25" gradientTransform="matrix(0.07, 0, 0, -0.07, -68.95, 4.92)" gradientUnits="userSpaceOnUse"><stop offset="0" stop-color="#1a1a1a"/><stop offset="1" stop-color="#b3b3b3"/></linearGradient><linearGradient id="linear-gradient-14" x1="2538.38" y1="-4194.03" x2="2429.19" y2="-5552.7" xlink:href="#linear-gradient-13"/><linearGradient id="linear-gradient-15" x1="2659.6" y1="-2990.14" x2="2421.72" y2="-3329.03" xlink:href="#linear-gradient-9"/><linearGradient id="linear-gradient-16" x1="2050.78" y1="-4585.91" x2="2550.4" y2="-3735.88" gradientTransform="matrix(0.07, 0, 0, -0.07, -68.95, 4.92)" gradientUnits="userSpaceOnUse"><stop offset="0" stop-color="#fc6094"/><stop offset="1" stop-color="#514491"/></linearGradient><linearGradient id="linear-gradient-17" x1="2853.94" y1="-3945.56" x2="3149.4" y2="-4193.14" xlink:href="#linear-gradient-9"/><linearGradient id="linear-gradient-18" x1="2589.45" y1="-3713.02" x2="3009.12" y2="-4326.48" xlink:href="#linear-gradient-12"/><linearGradient id="linear-gradient-19" x1="108.96" y1="219.43" x2="113.48" y2="241.18" gradientUnits="userSpaceOnUse"><stop offset="0" stop-color="#633e2f"/><stop offset="1" stop-color="#98643e"/></linearGradient><linearGradient id="linear-gradient-20" x1="4701.37" y1="-3360.82" x2="5500.36" y2="-3554.49" gradientTransform="matrix(0.07, 0, 0, -0.07, -68.95, 4.92)" gradientUnits="userSpaceOnUse"><stop offset="0" stop-color="#514491"/><stop offset="1" stop-color="#dda8fa"/></linearGradient><linearGradient id="linear-gradient-21" x1="5329.88" y1="-5129.52" x2="5714.74" y2="-5154.69" gradientTransform="matrix(0.07, 0, 0, -0.07, -68.95, 4.92)" gradientUnits="userSpaceOnUse"><stop offset="0" stop-color="#a68ef5"/><stop offset="1" stop-color="#dda8fa"/></linearGradient><mask id="mask" x="301.22" y="310.38" width="59.8" height="66.41" maskUnits="userSpaceOnUse"><g id="id0"><rect class="cls-1" x="321.2" y="332.65" width="39.82" height="44.14"/></g></mask><linearGradient id="linear-gradient-22" x1="301.22" y1="343.44" x2="360.8" y2="343.44" gradientUnits="userSpaceOnUse"><stop offset="0" stop-color="#ede685" stop-opacity="0.57"/><stop offset="1" stop-color="#f2f0ab"/></linearGradient><linearGradient id="linear-gradient-23" x1="4714.45" y1="-5472.35" x2="4475.86" y2="-6633.9" gradientTransform="matrix(0.07, 0, 0, -0.07, -68.95, 4.92)" gradientUnits="userSpaceOnUse"><stop offset="0" stop-color="#914527"/><stop offset="1" stop-color="#f2833f"/></linearGradient><linearGradient id="linear-gradient-24" x1="4848.88" y1="-5425.5" x2="4133.22" y2="-5703.03" xlink:href="#linear-gradient-23"/><linearGradient id="linear-gradient-25" x1="5187.1" y1="-4058.63" x2="4818.94" y2="-4240.02" xlink:href="#linear-gradient-9"/><linearGradient id="linear-gradient-26" x1="4916.37" y1="-4614.05" x2="4797.23" y2="-5340.22" gradientTransform="matrix(0.07, 0, 0, -0.07, -68.95, 4.92)" gradientUnits="userSpaceOnUse"><stop offset="0" stop-color="#514491"/><stop offset="1" stop-color="#a68ef5"/></linearGradient><linearGradient id="linear-gradient-27" x1="5318.13" y1="-4890" x2="5671.44" y2="-5105.64" xlink:href="#linear-gradient-9"/><linearGradient id="linear-gradient-28" x1="5286.81" y1="-5200.17" x2="4855.99" y2="-4522.78" xlink:href="#linear-gradient-10"/><linearGradient id="linear-gradient-29" x1="5207.65" y1="-3917.36" x2="4599.41" y2="-4210.05" gradientTransform="matrix(0.07, 0, 0, -0.07, -68.95, 4.92)" gradientUnits="userSpaceOnUse"><stop offset="0"/><stop offset="1" stop-color="#666"/></linearGradient><linearGradient id="linear-gradient-30" x1="2048.2" y1="-1490.91" x2="3372.46" y2="-1346.17" gradientTransform="matrix(0.07, 0, 0, -0.07, -68.95, 4.92)" gradientUnits="userSpaceOnUse"><stop offset="0" stop-color="#7e67f0"/><stop offset="1" stop-color="#ffbdb0"/></linearGradient><linearGradient id="linear-gradient-31" x1="4645.11" y1="-1492.24" x2="4784.96" y2="-1688.4" xlink:href="#linear-gradient-30"/><linearGradient id="linear-gradient-32" x1="7403.26" y1="474.14" x2="7543.11" y2="277.98" xlink:href="#linear-gradient-30"/><linearGradient id="linear-gradient-33" x1="10114.76" y1="-3246.63" x2="10232.4" y2="-4570.48" xlink:href="#linear-gradient-30"/><linearGradient id="linear-gradient-34" x1="10275.58" y1="-1427.95" x2="10417.14" y2="-1823.05" xlink:href="#linear-gradient-30"/><linearGradient id="linear-gradient-35" x1="3918.48" y1="-193.21" x2="4269.33" y2="-482.48" xlink:href="#linear-gradient-30"/><linearGradient id="linear-gradient-36" x1="8721.41" y1="-5473.79" x2="9551.35" y2="-6325.87" gradientTransform="matrix(0.07, 0, 0, -0.07, -68.95, 4.92)" gradientUnits="userSpaceOnUse"><stop offset="0" stop-color="#f2833f"/><stop offset="1" stop-color="#e6e65f"/></linearGradient><linearGradient id="linear-gradient-37" x1="2609.74" y1="-5360.13" x2="3439.68" y2="-6212.21" xlink:href="#linear-gradient-36"/><linearGradient id="linear-gradient-38" x1="6145.31" y1="-3729.97" x2="5804.53" y2="-3493.33" xlink:href="#linear-gradient-9"/><linearGradient id="linear-gradient-39" x1="6489.73" y1="-3946.32" x2="5623.42" y2="-3848.06" xlink:href="#linear-gradient-36"/><linearGradient id="linear-gradient-40" x1="6640.51" y1="-4822.73" x2="6391.58" y2="-6008.7" xlink:href="#linear-gradient-12"/><linearGradient id="linear-gradient-41" x1="6325.54" y1="-4789.83" x2="6554.45" y2="-6275.4" xlink:href="#linear-gradient-12"/><linearGradient id="linear-gradient-42" x1="6370.13" y1="-3343.96" x2="6604.19" y2="-3671.91" xlink:href="#linear-gradient-9"/><linearGradient id="linear-gradient-43" x1="6662.74" y1="-5091" x2="6467.24" y2="-4201.54" gradientTransform="matrix(0.07, 0, 0, -0.07, -68.95, 4.92)" gradientUnits="userSpaceOnUse"><stop offset="0" stop-color="#e6e65f"/><stop offset="1" stop-color="#f2833f"/></linearGradient><linearGradient id="linear-gradient-44" x1="5924.26" y1="-3789.89" x2="5554.95" y2="-3596.32" xlink:href="#linear-gradient-9"/><linearGradient id="linear-gradient-45" x1="6298.01" y1="-3971.23" x2="5413.97" y2="-3981.16" xlink:href="#linear-gradient-36"/><linearGradient id="linear-gradient-46" x1="6452.77" y1="-3304.95" x2="6589.43" y2="-3567.8" gradientTransform="matrix(0.07, 0, 0, -0.07, -68.95, 4.92)" gradientUnits="userSpaceOnUse"><stop offset="0" stop-color="#e03a3a"/><stop offset="1" stop-color="#fc6094"/></linearGradient><linearGradient id="linear-gradient-47" x1="5718.18" y1="-2755.88" x2="6517.17" y2="-2949.54" xlink:href="#linear-gradient-20"/></defs><g id="Layer_2" data-name="Layer 2"><g id="Layer_1-2" data-name="Layer 1"><path class="cls-2" d="M396.55,220.93H547a5.4,5.4,0,0,1,5.4,5.4h0a5.4,5.4,0,0,1-5.4,5.4H396.55a5.4,5.4,0,0,1-5.4-5.4h0A5.4,5.4,0,0,1,396.55,220.93Z"/><path class="cls-2" d="M352.77,242.46H547a5.4,5.4,0,0,1,5.4,5.4h0a5.4,5.4,0,0,1-5.4,5.4H352.77a5.4,5.4,0,0,1-5.4-5.4h0A5.4,5.4,0,0,1,352.77,242.46Z"/><path class="cls-2" d="M352.77,264.06H547a5.4,5.4,0,0,1,5.4,5.4h0a5.4,5.4,0,0,1-5.4,5.4H352.77a5.4,5.4,0,0,1-5.4-5.4h0A5.4,5.4,0,0,1,352.77,264.06Z"/><path class="cls-2" d="M352.77,285.59H547a5.4,5.4,0,0,1,5.4,5.4h0a5.4,5.4,0,0,1-5.4,5.4H352.77a5.4,5.4,0,0,1-5.4-5.4h0A5.4,5.4,0,0,1,352.77,285.59Z"/><path class="cls-2" d="M352.77,307.12H511.46a5.4,5.4,0,0,1,5.4,5.4h0a5.4,5.4,0,0,1-5.4,5.4H352.77a5.4,5.4,0,0,1-5.4-5.4h0A5.4,5.4,0,0,1,352.77,307.12Z"/><path class="cls-3" d="M396.55,221H547a5.4,5.4,0,0,1,5.4,5.4h0a5.4,5.4,0,0,1-5.4,5.4H396.55a5.4,5.4,0,0,1-5.4-5.4h0A5.39,5.39,0,0,1,396.55,221Z"/><path class="cls-3" d="M352.77,242.49H547a5.4,5.4,0,0,1,5.4,5.4h0a5.4,5.4,0,0,1-5.4,5.4H352.77a5.4,5.4,0,0,1-5.4-5.4h0A5.4,5.4,0,0,1,352.77,242.49Z"/><path class="cls-3" d="M352.77,264.1H547a5.4,5.4,0,0,1,5.4,5.4h0a5.4,5.4,0,0,1-5.4,5.4H352.77a5.4,5.4,0,0,1-5.4-5.4h0A5.4,5.4,0,0,1,352.77,264.1Z"/><path class="cls-3" d="M352.77,285.62H547a5.4,5.4,0,0,1,5.4,5.4h0a5.4,5.4,0,0,1-5.4,5.4H352.77a5.4,5.4,0,0,1-5.4-5.4h0A5.4,5.4,0,0,1,352.77,285.62Z"/><path class="cls-3" d="M352.77,307.15H511.46a5.4,5.4,0,0,1,5.4,5.4h0a5.4,5.4,0,0,1-5.4,5.4H352.77a5.4,5.4,0,0,1-5.4-5.4h0A5.4,5.4,0,0,1,352.77,307.15Z"/><g id="Layer_1-3" data-name="Layer_1"><path class="cls-4" d="M233.79,362.89C-139.47,416.75,18.14,565.21,135.43,545.2c194.12-33.12,426.61,45,504.45-34.78C800.44,345.9,711.59,294,233.72,362.89Z"/><path class="cls-5" d="M330.06,0H569.82a14.71,14.71,0,0,1,14.69,14.73V330.09a14.71,14.71,0,0,1-14.69,14.72H330.06a14.7,14.7,0,0,1-14.69-14.72V14.73A14.7,14.7,0,0,1,330.06,0Z"/><polygon class="cls-6" points="531.73 480.04 368.14 485.15 353.67 471.97 516.97 466.71 531.73 480.04"/><g id="_395861184" data-name=" 395861184"><polygon class="cls-7" points="534.76 480.18 368.14 485.15 358.28 473.92 524.89 468.88 534.76 480.18"/><path class="cls-8" d="M524.68,479.33l-2.46.08a.91.91,0,0,1-.36-.29l-4.57-5.23c-.14-.16-.2-.29-.14-.29l2.46-.07a.8.8,0,0,1,.36.28l4.57,5.23C524.68,479.2,524.74,479.33,524.68,479.33Z"/><path class="cls-8" d="M508.46,479.82l-2.46.08a.49.49,0,0,1-.27-.19l-2.94-3.36c-.09-.1-.11-.19-.05-.19l2.46-.07a.54.54,0,0,1,.28.18l2.93,3.36C508.5,479.74,508.52,479.82,508.46,479.82Z"/><path class="cls-8" d="M492.24,480.31l-2.46.07a.85.85,0,0,1-.36-.28l-4.57-5.23c-.14-.16-.2-.29-.14-.29l2.47-.08a.91.91,0,0,1,.36.29L492.1,480C492.24,480.18,492.3,480.31,492.24,480.31Z"/><path class="cls-8" d="M476,480.8l-2.46.07a.52.52,0,0,1-.27-.18l-2.94-3.37c-.09-.1-.11-.18-.05-.18l2.47-.08a.52.52,0,0,1,.27.18l2.93,3.37C476.06,480.71,476.08,480.79,476,480.8Z"/><path class="cls-8" d="M459.81,481.28l-2.47.08a.91.91,0,0,1-.36-.29l-4.57-5.23c-.13-.16-.2-.29-.14-.29l2.47-.07c.06,0,.22.12.36.28l4.56,5.23C459.8,481.15,459.87,481.28,459.81,481.28Z"/><path class="cls-8" d="M443.59,481.77l-2.47.07c-.06,0-.18-.07-.27-.18l-2.93-3.36c-.09-.1-.12-.19-.06-.19l2.47-.07a.52.52,0,0,1,.27.18l2.93,3.36C443.62,481.68,443.65,481.77,443.59,481.77Z"/><path class="cls-8" d="M427.37,482.26l-2.47.07a.85.85,0,0,1-.36-.28L420,476.81c-.14-.15-.21-.28-.15-.29l2.47-.07a1,1,0,0,1,.36.28l4.57,5.24C427.36,482.13,427.43,482.26,427.37,482.26Z"/><path class="cls-8" d="M411.15,482.74l-2.47.08a.52.52,0,0,1-.27-.18l-2.93-3.37c-.09-.1-.12-.18-.05-.18l2.46-.08a.52.52,0,0,1,.27.18l2.94,3.37C411.19,482.66,411.21,482.74,411.15,482.74Z"/><path class="cls-8" d="M394.93,483.23l-2.47.08a.91.91,0,0,1-.36-.29l-4.56-5.23c-.14-.16-.2-.29-.14-.29l2.46-.08a.91.91,0,0,1,.36.29l4.57,5.23C394.93,483.1,395,483.23,394.93,483.23Z"/><path class="cls-8" d="M378.71,483.72l-2.46.07a.51.51,0,0,1-.28-.18L373,480.25c-.09-.1-.11-.19-.05-.19l2.46-.07c.06,0,.18.08.27.18l2.94,3.36C378.75,483.63,378.77,483.72,378.71,483.72Z"/></g><path class="cls-9" d="M230.55,490.76c46.44,0,84,4.32,84,9.58s-37.65,9.58-84,9.58-84-4.32-84-9.58S184.18,490.76,230.55,490.76Z"/><path class="cls-9" d="M449.94,373.19c92.45,0,167.47,8.28,167.47,18.43s-74.95,18.43-167.47,18.43-167.48-8.28-167.48-18.43S357.42,373.19,449.94,373.19Z"/><path class="cls-10" d="M613.6,83c49.18,53.93,65.09,147.31-5.76,212"/><path class="cls-11" d="M565.71,0H334.08a18.78,18.78,0,0,0-6,1A13.6,13.6,0,0,1,330,.86H569.75a13.8,13.8,0,0,1,2,.15A18.47,18.47,0,0,0,565.71,0Zm4,344.81H330a14.68,14.68,0,0,1-14.62-13.3v41.38a18.69,18.69,0,0,0,18.72,18.72H565.71a18.68,18.68,0,0,0,18.72-18.72V330.13A14.68,14.68,0,0,1,569.75,344.81Z"/><circle class="cls-12" cx="449.94" cy="365.48" r="13.18"/><path class="cls-5" d="M328.05,1a18.69,18.69,0,0,0-12.69,17.73V331.51a12.5,12.5,0,0,1-.07-1.38V15.55A14.69,14.69,0,0,1,328.05,1Z"/><path class="cls-13" d="M396.58,220.47H547.07a5.4,5.4,0,0,1,5.4,5.4h0a5.4,5.4,0,0,1-5.4,5.4H396.58a5.4,5.4,0,0,1-5.4-5.4h0A5.4,5.4,0,0,1,396.58,220.47Z"/><path class="cls-13" d="M352.81,242H547.07a5.4,5.4,0,0,1,5.4,5.4h0a5.4,5.4,0,0,1-5.4,5.4H352.81a5.4,5.4,0,0,1-5.4-5.4h0A5.4,5.4,0,0,1,352.81,242Z"/><path class="cls-13" d="M352.81,263.6H547.07a5.4,5.4,0,0,1,5.4,5.4h0a5.4,5.4,0,0,1-5.4,5.4H352.81a5.4,5.4,0,0,1-5.4-5.4h0A5.4,5.4,0,0,1,352.81,263.6Z"/><path class="cls-13" d="M352.81,285.13H547.07a5.4,5.4,0,0,1,5.4,5.4h0a5.4,5.4,0,0,1-5.4,5.4H352.81a5.4,5.4,0,0,1-5.4-5.4h0A5.4,5.4,0,0,1,352.81,285.13Z"/><path class="cls-13" d="M352.81,306.66H511.5a5.4,5.4,0,0,1,5.4,5.4h0a5.4,5.4,0,0,1-5.4,5.4H352.81a5.4,5.4,0,0,1-5.4-5.4h0A5.4,5.4,0,0,1,352.81,306.66Z"/><path class="cls-5" d="M584.43,15.55v3.17A18.65,18.65,0,0,0,571.79,1,14.67,14.67,0,0,1,584.43,15.55Z"/><path class="cls-14" d="M449.94,350.79a14.67,14.67,0,0,0-10.37,25.06h0a14.61,14.61,0,0,0,20.74,0h0a14.69,14.69,0,0,0-10.37-25.06Zm-8.28,6.41a11.69,11.69,0,0,1,8.28-3.38,11.81,11.81,0,0,1,8.28,3.38,11.69,11.69,0,0,1,3.38,8.28,11.81,11.81,0,0,1-3.38,8.28h0a11.7,11.7,0,0,1-8.28,3.39,11.82,11.82,0,0,1-8.28-3.39,11.7,11.7,0,0,1-3.39-8.28A11.82,11.82,0,0,1,441.66,357.2Z"/><path class="cls-15" d="M353.38,51.45H455.63c3.31,0,6,1.83,6,4v66.24c0,2.22-2.66,4.05-6,4.05H353.38c-3.31,0-6-1.83-6-4.05V55.5C347.41,53.28,350.07,51.45,353.38,51.45Z"/><path class="cls-16" d="M353.38,132.81H455.63c3.31,0,6,1.66,6,3.67v60c0,2-2.66,3.67-6,3.67H353.38c-3.31,0-6-1.65-6-3.67v-60C347.41,134.47,350.07,132.81,353.38,132.81Z"/><path class="cls-17" d="M415.45,164.28l-8.42-5.4-8.43-5.48a4.76,4.76,0,0,0-5.47.29,2.5,2.5,0,0,0-.94,1.87h0v21.75c0,1.58,1.73,2.88,3.89,2.88a5,5,0,0,0,2.81-.87L407.1,174l8.42-5.48a2.44,2.44,0,0,0,.43-4.1,1.42,1.42,0,0,0-.43-.29Z"/><path class="cls-18" d="M362.85,61.1h84.47c2.11,0,3.82,2,3.82,4.5v.09c0,2.49-1.71,4.5-3.82,4.5H362.85c-2.11,0-3.82-2-3.82-4.5V65.6C359,63.12,360.74,61.1,362.85,61.1Z"/><path class="cls-18" d="M363.14,75.73H447.6c2.12,0,3.83,2,3.83,4.43v32.59c0,2.45-1.71,4.43-3.83,4.43H363.14c-2.11,0-3.83-2-3.83-4.43V80.16C359.31,77.71,361,75.73,363.14,75.73Z"/><path class="cls-19" d="M372.46,26.42H584.51V14.69A14.75,14.75,0,0,0,569.82,0H330.13a14.75,14.75,0,0,0-14.69,14.69V26.42h57Z"/><path class="cls-20" d="M479.67,51.45h68.77c2.23,0,4,3.67,4,8.14V192c0,4.46-1.8,8.13-4,8.13H479.67c-2.23,0-4-3.67-4-8.13V59.59C475.64,55.12,477.44,51.45,479.67,51.45Z"/><path class="cls-21" d="M488.64,151.75h50.83c1.66,0,2.95.93,2.95,2.09v33.69c0,1.15-1.36,2.09-2.95,2.09H488.64c-1.66,0-2.95-.94-2.95-2.09V153.84C485.69,152.68,487.06,151.75,488.64,151.75Z"/><path class="cls-22" d="M502.05,170.15l-13.4,8.23v6.94c0,1,1.21,1.88,2.69,1.88h45.89c1.48,0,2.69-.81,2.69-1.88v-9.17L530,165.57l-16,13.41-12-8.76Z"/><circle class="cls-23" cx="514.72" cy="169.41" r="3.03"/><path class="cls-21" d="M488.64,106.81h50.83c1.66,0,2.95.93,2.95,2.08v33.7c0,1.15-1.36,2.09-2.95,2.09H488.64c-1.66,0-2.95-.94-2.95-2.09v-33.7C485.69,107.74,487.06,106.81,488.64,106.81Z"/><path class="cls-22" d="M502.05,125.21l-13.4,8.22v6.94c0,1,1.21,1.89,2.69,1.89h45.89c1.48,0,2.69-.81,2.69-1.89v-9.16L530,120.63l-16,13.41-12-8.76Z"/><circle class="cls-23" cx="514.72" cy="124.47" r="3.03"/><path class="cls-21" d="M488.64,61.86h50.83c1.66,0,2.95.94,2.95,2.09v33.7c0,1.15-1.36,2.09-2.95,2.09H488.64c-1.66,0-2.95-.94-2.95-2.09V64C485.69,62.8,487.06,61.86,488.64,61.86Z"/><path class="cls-22" d="M502.05,80.27l-13.4,8.22v6.94c0,1,1.21,1.89,2.69,1.89h45.89c1.48,0,2.69-.81,2.69-1.89V86.27L530,75.69l-16,13.41-12-8.76Z"/><circle class="cls-23" cx="514.72" cy="79.53" r="3.03"/><path class="cls-21" d="M556.72,8h12.53a1.37,1.37,0,0,1,1.36,1.37h0a1.36,1.36,0,0,1-1.36,1.37H556.72a1.37,1.37,0,0,1-1.37-1.37h0A1.37,1.37,0,0,1,556.72,8Z"/><path class="cls-21" d="M556.72,12.09h12.53a1.36,1.36,0,0,1,1.36,1.37h0a1.36,1.36,0,0,1-1.36,1.36H556.72a1.36,1.36,0,0,1-1.37-1.36h0A1.37,1.37,0,0,1,556.72,12.09Z"/><path class="cls-21" d="M556.72,16.19h12.53a1.36,1.36,0,0,1,1.36,1.37h0a1.36,1.36,0,0,1-1.36,1.37H556.72a1.37,1.37,0,0,1-1.37-1.37h0A1.37,1.37,0,0,1,556.72,16.19Z"/><rect class="cls-24" x="100.42" y="162.8" width="257.91" height="173.88"/><rect class="cls-25" x="198.44" y="156.68" width="64.23" height="13.82" rx="2.38"/><rect class="cls-25" x="226.52" y="148.76" width="8.14" height="13.82" rx="1.37"/><rect class="cls-25" x="198.44" y="329.84" width="64.23" height="13.82" rx="2.38"/><rect class="cls-26" x="226.52" y="336.75" width="8.14" height="162.44" rx="1.37"/><ellipse class="cls-27" cx="230.55" cy="498.4" rx="60.63" ry="7.63"/><path class="cls-28" d="M169.82,189.62c-2.9,8.88-4.68,26.07.65,31.47,8.14,8.14,48,8.48,64.44,6.48,2.73-.52,2.7-19.87,2.12-25.2-.32-13-4.12-16.1-23.56-16.35C201.85,185.88,173.23,179.2,169.82,189.62Z"/><path class="cls-28" d="M251.69,196c-1.39,4.25-2.24,12.47.3,15.05,3.89,3.89,22.95,4.05,30.81,3.1,1.31-.25,1.29-9.5,1-12-.15-6.21-2-7.7-11.27-7.82C267,194.16,253.31,191,251.69,196Z"/><path class="cls-28" d="M251.69,222.76c-1.39,4.24-2.24,12.46.3,15.05,3.89,3.89,22.95,4.05,30.81,3.09,1.31-.25,1.29-9.5,1-12.05-.15-6.21-2-7.69-11.27-7.81C267,221,253.31,217.77,251.69,222.76Z"/><path class="cls-28" d="M251.69,250.38c-1.39,4.25-2.24,12.47.3,15.05,3.89,3.89,22.95,4.05,30.81,3.1,1.31-.25,1.29-9.5,1-12-.15-6.21-2-7.7-11.27-7.82C267,248.59,253.31,245.4,251.69,250.38Z"/><path class="cls-28" d="M237,234.64c3,1,.67,37.19-3.06,38.51-5.46,1.93-58.46,1.73-63.5.36-4.1-1.11-2.44-36.29.11-39.52C171.94,232.27,221.74,229.46,237,234.64Z"/><path class="cls-28" d="M285.64,274.39c-1,3.79-37.19.84-38.51-3.86-1.93-6.9-1.73-73.82-.36-80.18,1.11-5.18,36.29-3.09,39.52.13C288,192.2,290.82,255.08,285.64,274.39Z"/><path class="cls-28" d="M197.17,245.44c.25-2.35,11.33,4.05,13.42,5.92,2.28,1.73,1.85,3-2.91,5.64-2.72,1.41-10.07,5.25-10.5,2.41A76.7,76.7,0,0,1,197.17,245.44Z"/><path class="cls-28" d="M203.81,284.46c2.95,0,82.87.43,84.31-.94.29-.29,4.9-.79,5.62-.79"/><path class="cls-28" d="M174.65,298.06c25-.5,49.82-.86,74.73-1.22,7.49-.07,20.09-2,28.3-2h14"/><path class="cls-28" d="M174.65,310.38c30.81,1.29,61.56.21,92.37.21"/><path class="cls-29" d="M333.66,374.77C315.65,373,280,346.33,273.25,328l17.06-9.29c6.34,17.14,28.8,46.95,46.87,50.62C342.44,370.45,342.15,375.56,333.66,374.77Z"/><path class="cls-30" d="M299.38,359c-19.29-10.3-23.33-18.65-28.44-32.4l20.16-6.48c6.91,8.35,11.09,19.51,17.71,26.14-.36,2.37-5.76,10.44-9.43,12.81Z"/><path class="cls-17" d="M335.46,369.8c1.15-2.45,7.12-2.95,3.74.22-.58.5-3.1,2.52-3.46.93-.07-.5-.28-1.29-.36-1.15Z"/><path class="cls-31" d="M172.52,277.42c-17.07,6.34-64.81-3.45-79-17.06l15.12-14.62c13.25,12.75,46.73,29.81,64.66,25.2,5.25-1.37,7.27,3.39-.87,6.41Z"/><path class="cls-32" d="M154.23,282c-22-.87-52.42-12.1-63.08-22.32l18.22-15.84c9.94,9.5,30.74,22.53,48.1,26.64C158.19,272.74,156.6,278.14,154.23,282Z"/><path class="cls-17" d="M171.94,272.45c.07-2.73,5.33-5.68,3.53-1.36-.29.72-1.87,3.6-2.74,2.23C172.44,272.89,171.94,272.24,171.94,272.45Z"/><path class="cls-22" d="M62.86,367.06c-2.09,1.09-4,1.73-4.25,2.89-.51,2.66,1.44,17.2,5,18,5.9-.44,5-13,6.26-15.7-3-2.16-4.39-3.53-7.13-5.19Z"/><path class="cls-33" d="M58.82,369.59a1.12,1.12,0,0,0-.14.36c-.5,2.66,1.44,17.2,5,18H64a.52.52,0,0,0,.29-.08h.07c1.65-4.1,1-8.92-.07-13.1-.36-1.22-3.6-4.39-5.4-5.18Z"/><path class="cls-34" d="M115.27,287.94c-.07,23-16.63,55.15-45.29,84.31-2.66.22-6-1.87-7.12-5.19,11.3-14.9,21.67-43.05,26.78-60,4.11-13.61,9.22-38.31,25.56-19Z"/><path class="cls-22" d="M97.85,386c-1.58,1.73-3.17,3-3,4.11.43,2.66,7.12,15.69,10.8,15.26,5.4-2.38.43-13.9.64-16.85C102.67,387.51,101,386.65,97.85,386Z"/><path class="cls-33" d="M94.83,389.75v.43c.43,2.66,7.12,15.69,10.8,15.26.07-.07.14-.07.21-.14h0c.07-.07.15-.07.22-.15h0a.07.07,0,0,0,.07-.07c.14-4.46-2-8.78-4.46-12.31C101,391.69,96.84,389.82,94.83,389.75Z"/><path class="cls-35" d="M120.75,293.91c7.56,21.75,2.8,57.53-14.48,94.61A7.42,7.42,0,0,1,97.85,386c5.62-17.85,6.05-47.81,5.18-65.59-.72-14.19-4.1-39.24,17.79-26.5Z"/><path class="cls-36" d="M114.12,246.89c-.57-7.77,11.16-3.74,13-13.32,3.24-17.06-29.23-22.82-24.48,6.05.36,2.09,2.59,9.43,5.83,9.07C109.59,248.55,114.27,248.69,114.12,246.89Z"/><path class="cls-37" d="M117.58,247.25c-8.21-14.76-26.5.51-26.43,11.31.15,16.05,4,29.81-5.76,48.46,5.55,11.23,30.6,13.39,39.1,9.07C133.13,291.9,128.52,266.84,117.58,247.25Z"/><path class="cls-38" d="M146.74,315.8c-17.28-5.76-48.39-43.27-50.91-62.71l21-1.88c2.37,18.22,17.71,52.49,34.63,60.13C156.31,313.57,155,318.54,146.74,315.8Z"/><path class="cls-39" d="M129.6,307.88C113,293.41,96.27,265.61,94.39,251l24.12-.94c1.8,13.61,9.87,36.8,20.81,50.84C138.46,303.13,133.78,306.37,129.6,307.88Z"/><path class="cls-17" d="M149,311.12c1.73-2.16,7.63-1.3,3.67,1-.64.36-3.6,1.73-3.6.14C149.11,311.77,149.11,311,149,311.12Z"/><path class="cls-40" d="M177.2,255.75c.21-.94,2.52-5,2.8-5s.8,4.83.58,5.69l-5.33,24.34a1.69,1.69,0,0,1-3.31-.72l5.33-24.34Z"/><path class="cls-41" d="M125.5,221.69c-1.73-8.49-7.78-7.34-15.91-6.76h.07a5.75,5.75,0,0,0-1.86.48,2.42,2.42,0,0,0-.16-.63c-5.18-12.24-9.07,1.08-8,2.45a6.53,6.53,0,0,0,3.34,2.45,11.32,11.32,0,0,0-2,4.82,34.53,34.53,0,0,1-2.31,8.07c-5.32,13.6,4.9,17.85,14.84,12.09,1.65-.93,2.8-9.43,3-11.66C117.15,226.88,127.23,230.19,125.5,221.69Z"/><path class="cls-42" d="M320,236.6H274.76a5.32,5.32,0,0,0-5.33,5.33v23a5.33,5.33,0,0,0,4.7,5.3c.21,0,33.55-.13,33.76-.13l.65,9,8.07-9,3.44.16a5.32,5.32,0,0,0,5.33-5.33v-23a5.32,5.32,0,0,0-5.33-5.33Z"/><polyline class="cls-43" points="288.87 253.37 295.42 259.77 311.26 246.89"/><path class="cls-44" d="M312,377.36c2.31,0,30.1,2.23,30.46.79,1.66-6.26,2.88-5.47-8.78-5.47-2.88,0-18.22-2.09-19.66.43-.65,1.08-1.95,1.52-1.95,4.18Z"/><path class="cls-45" d="M362.1,360.87a21.84,21.84,0,0,0-1.16-4.32c-2,2.38-12.16,10.95-17.85,16.56a16.76,16.76,0,0,0-.58,5.12s.58.14.79,0c2.45-2,16.13-13.9,18.51-16.42a1.79,1.79,0,0,0,.29-.87Z"/><path class="cls-46" d="M360.8,361.45a14.11,14.11,0,0,0-.86-3.31c-1.52,1.8-11.45,10.29-15.77,14.54a14.12,14.12,0,0,0-.43,3.89c0,.07,17.2-14.69,17.13-15.12Z"/><g class="cls-47"><polygon class="cls-48" points="343.66 376.5 360.8 361.45 335.56 310.38 301.22 339.46 343.66 376.5"/></g><path class="cls-49" d="M242.07,451c-2,1.15-3.89,1.94-4.11,3-.36,2.67,2.16,17,5.77,17.64,5.83-.72,4.46-13.1,5.61-15.84C246.25,453.76,244.88,452.46,242.07,451Z"/><path class="cls-50" d="M238.18,453.54a1.22,1.22,0,0,0-.14.36c-.36,2.66,2.16,17,5.76,17.64a.46.46,0,0,0,.29-.07h0a.53.53,0,0,0,.28-.07h.08c-.36-2.6-1.16-9.51-2.45-13.61-.36-1.23-1.95-3.67-3.82-4.32Z"/><path class="cls-51" d="M290.89,370.23c3.6,25.2-12.24,57.24-41.55,85.54-2.66.36-6.05-1.58-7.27-4.82,10.58-15.27,18.07-47.16,22.46-64.3C268.06,373,273.82,351.73,290.89,370.23Z"/><path class="cls-49" d="M234.87,409.4c-2.31-.29-4.25-.86-5-.07-2,1.87-8.64,14.83-6.19,17.5,5,3,11.52-7.64,14-9.15C236.45,414.15,236.16,412.28,234.87,409.4Z"/><path class="cls-50" d="M230.12,409.11c-.15.08-.22.15-.36.22-1.95,1.87-8.64,14.83-6.2,17.5.08.07.15.07.22.14h0c.07.07.14.07.22.14h.07c1.15-1.08,4.75-9.14,6.26-13.17a5.52,5.52,0,0,0-.29-4.83Z"/><path class="cls-52" d="M301.18,382.33c0,10.73,1.51,28.22-15.05,36-13.82,6.48-35.13,2.95-49.61.36-2.08-2.45-3-7.56-1.65-9.22,10.66,1.08,28.37-1.36,34.2-4.32,5.62-2.44,6.05-16.12,7.49-23.9C279.08,367.35,298.88,357.27,301.18,382.33Z"/><path class="cls-53" d="M284.91,317.1c3.17-7.06,8.35,1.8,14.54-5.62,11-13.32-11.44-33.63-21.09-6.19-.72,2-2.23,9.43.79,10.65,1.08.44,5,2.81,5.83,1.16Z"/><path class="cls-54" d="M292.18,318.82c-10.94-12.74-29.81-1.65-30.6,9.08-1,14.25,1.51,33-4.32,53.06,7.63,9.79,37.59,10,44.93,4.11-5.11-36.29,4.46-49.33-10.08-66.17Z"/><path class="cls-55" d="M328.9,382.4c-17.85-3.09-50.9-32.76-56.23-51.55L290,323.29c5,17.57,25.2,49,42.91,54,5.19,1.44,4.54,6.55-3.88,5.11Z"/><path class="cls-56" d="M295.13,362.6c-18.43-11.74-21.88-20.38-25.92-34.49l20.6-5c6.26,8.79,9.57,20.31,15.69,27.36C304.93,352.81,299,360.51,295.13,362.6Z"/><path class="cls-17" d="M331,377.58c1.37-2.38,7.35-2.45,3.75.5-.58.43-3.32,2.23-3.46.65C331.21,378.23,331.14,377.43,331,377.58Z"/><path class="cls-57" d="M291.82,299.6c1.73.43,4.18,2.59,7.2,2.74,15,1,11.16-18,.51-14.19l-.15-.07c-.65-.86-.86-9.22-7.05-4.11a2.32,2.32,0,0,0-1,1.81c-4.32-4-9.29-2.53-9.43.64-8.79,3.82-6.7,17.21-6.2,19,.72,2.74,2.09,3.75,6.63,4.11,2.66.21,4.75-3.39,4.89-5.69.29-4.11,3.6-4.11,3.39-1.44C290.45,304.28,291.75,299.6,291.82,299.6Z"/><path class="cls-58" d="M107.64,215.57c.07-.14.22-.28.36-.21s.29.21.22.36a6.71,6.71,0,0,1-2,3.31,4.41,4.41,0,0,1-3.16,1,.33.33,0,0,1-.29-.36.32.32,0,0,1,.36-.29,3.62,3.62,0,0,0,2.73-.86A6.83,6.83,0,0,0,107.64,215.57Z"/><path class="cls-10" d="M310.18,68.83c-26.13-38.3-92.38-28-105.19,17.5-9.36,33.19,50.47,27.5,14.83,1.22-34.13-25.12-64.51,42.05-50.33,70.06"/><path class="cls-59" d="M139,113.11c.79.72,2.88,6.12,2.45,6.56s-6.12-1-6.91-1.66l-21-19.08c-.79-.72-.43-2.38.8-3.74s2.88-1.8,3.67-1.08l21,19.08Z"/><path class="cls-60" d="M278.72,119.38a8.21,8.21,0,1,0-8.21,8.21A8.2,8.2,0,0,0,278.72,119.38Z"/><path class="cls-61" d="M265.83,119.88a1.07,1.07,0,0,1,1.51-1.51l2.09,2.09,4.39-4.39a1.07,1.07,0,1,1,1.51,1.51l-5.11,5.11a1,1,0,0,1-1.51,0l-2.88-2.88Z"/><path class="cls-62" d="M618.49,175.83a8.21,8.21,0,1,0-8.2,8.21A8.2,8.2,0,0,0,618.49,175.83Z"/><path class="cls-61" d="M605.53,176.33a1,1,0,0,1,0-1.51,1.06,1.06,0,0,1,1.52,0l2.08,2.09,4.4-4.39a1,1,0,0,1,1.51,0,1,1,0,0,1,0,1.51l-5.11,5.11a1.06,1.06,0,0,1-1.52,0l-2.88-2.88Z"/><path class="cls-63" d="M657.23,299c-.72.8-6.19,2.74-6.55,2.38s1.08-6.12,1.8-6.84L672,274c.72-.8,2.38-.44,3.67.86s1.8,2.88,1,3.67l-19.51,20.6Z"/><path class="cls-64" d="M683.66,117.72l-4.83-4.25L674,109.23a3.3,3.3,0,0,0-3.53-.36,1.62,1.62,0,0,0-.79,1.08h0l-1.08,6.91-1.08,6.91c-.15,1,.79,2,2.16,2.23a3.13,3.13,0,0,0,1.87-.28l5.69-2.6,5.83-2.66a1.52,1.52,0,0,0,.65-2.52l-.22-.22Z"/><path class="cls-65" d="M230.55,21.1l-6.84-1.3-6.91-1.3a3.48,3.48,0,0,0-3.46,1.66,1.83,1.83,0,0,0-.14,1.51h0l2.88,7.06L219,35.78c.43,1,1.87,1.44,3.31.87a3.57,3.57,0,0,0,1.58-1.3l3.89-5.61,4-5.76a1.68,1.68,0,0,0-.79-2.74.66.66,0,0,0-.36-.07Z"/><path class="cls-66" d="M608.85,430.43c.14,0,.36.07.64.07H610c.14,0,.21.07.36.07h.07c.14,0,.29.07.43.07h.07l.22.07h0l.22.08h0l.21.07h0l.22.07h.07l.22.07h.14l.22.07h0l.28.08h0l.29.07.15.07.14.07.14.07.15.08h.14l.29.07.22.07h.07l.29.07h.07l.29.07h0l.28.08h0l.29.07h0l.29.07h.07l.29.07h.07l.22.07h.07l.22.08.14.07.22.07.14.07.14.07.29.08.22.07.14.07h0a3,3,0,0,1,.79.29h0c.36.14.72.21,1.08.36h0l.36.14h0l.15.07h0l.29.15h0l.21.07H621a11.09,11.09,0,0,1,2.6,1.22h0l-.08.08h-1.8l-.21.07-.22.07h0l-.21.07-.22.07-.22.08h0l-.21.07-.22.07-.21.07-.22.07-.22.08h0l-.21.07-.22.07h0l-.21.07h0l-.22.07-.22.08-.21.07-.22.07h0l-.21.07-.22.07h0l-.22.08h0l-.21.07-.22.07h0c-.14,0-.29.07-.43.07l-.22.07h-1.87l-59.83-4.53c-2.23-.15-5.19-2.23-6.48-4.61s-.51-4.18,1.73-4l59.83,4.53Z"/><g id="_367671488" data-name=" 367671488"><path class="cls-67" d="M613.81,422.65c2.24.14,12.39,6.19,12.24,7.42s-11.08,6.12-13.24,6l-58-4.25c-2.23-.14-3.74-3.24-3.45-7s2.3-6.55,4.53-6.41l58,4.25Z"/><path class="cls-68" d="M626.05,430.07c.15-1.08-8.56-6.41-11.66-7.28l-.72-.07c-2.23-.14-4.25,2.74-4.54,6.41-.28,3.31,1,6.19,2.88,6.84l.72.07c2.24.15,13.18-4.82,13.25-6Z"/><path class="cls-50" d="M626.05,430.07c.08-.51-1.72-1.88-4-3.32a5.44,5.44,0,0,0-.43,6.2C624,431.79,626,430.57,626.05,430.07Z"/></g><path class="cls-66" d="M168.84,422.22c.15,0,.36.07.65.07H170c.14,0,.21.07.36.07h.07c.14,0,.29.07.43.07h.07l.22.08h0l.21.07h0l.22.07h0l.22.07h.07l.21.07h.15l.21.08h0l.29.07h0l.29.07.14.07.15.07.14.08.15.07h.14l.29.07.21.07h.08l.28.07h.08l.28.08h0l.29.07h0l.29.07h0l.29.07h.07l.29.07h.07l.22.08h.07l.21.07.15.07.21.07.15.07.14.08.29.07.22.07.14.07h0a3.6,3.6,0,0,1,.79.29h0c.36.14.72.22,1.08.36h0l.36.14h0l.15.08h0l.28.14h0l.22.07H181a10.59,10.59,0,0,1,2.59,1.23h0l-.07.07h-1.8l-.21.07-.22.07h0l-.22.07-.21.08-.22.07h0l-.21.07-.22.07-.22.07-.21.08-.22.07h0l-.21.07-.22.07h0l-.22.07h0l-.21.08-.22.07-.21.07-.22.07h0l-.22.07-.21.08h0l-.22.07h0l-.21.07-.22.07h0c-.14,0-.29.07-.43.07l-.22.08h-1.87l-59.83-4.54c-2.24-.14-5.19-2.23-6.48-4.61s-.51-4.17,1.72-4L169.71,420Z"/><g id="_367669832" data-name=" 367669832"><path class="cls-69" d="M173.74,414.44c2.23.15,12.38,6.19,12.24,7.42s-11.09,6.12-13.25,6l-58-4.24c-2.23-.15-3.75-3.24-3.46-7s2.31-6.55,4.54-6.41l58,4.25Z"/><path class="cls-68" d="M186,421.86c.14-1.08-8.57-6.41-11.66-7.27l-.72-.08c-2.24-.14-4.25,2.74-4.54,6.41-.29,3.31,1,6.19,2.88,6.84l.72.07c2.23.15,13.18-4.82,13.25-6Z"/><path class="cls-50" d="M186,421.86c.07-.51-1.73-1.87-4-3.31a5.43,5.43,0,0,0-.43,6.19C184,423.59,185.91,422.36,186,421.86Z"/></g><path class="cls-70" d="M344.24,270.08c10,15.05,54.14,35.06,73.44,32.4L414,281.89c-18.07,2.52-55-3.32-66.75-17.43-3.45-4.17-7.84-1.51-3.09,5.62Z"/><path class="cls-71" d="M356.34,284.41C374.55,296.58,399.61,303,414.08,301l.58-21c-13.54,1.87-37.88.22-54.22-6.69C358.5,274.69,356.62,279.94,356.34,284.41Z"/><path class="cls-17" d="M348.13,266.62c1.58-2.16-.72-7.7-1.95-3.24-.21.72-.72,4,.8,3.46C347.48,266.69,348.2,266.48,348.13,266.62Z"/><path class="cls-49" d="M413.65,411.92c1.37,1.87,2.81,3.31,2.52,4.39-.72,2.6-8.78,14.76-12.31,13.9-5-2.95,1.08-13.82,1.15-16.7,3.67-.65,5.4-1.3,8.57-1.59Z"/><path class="cls-50" d="M416.17,415.88v.43c-.72,2.6-8.78,14.76-12.31,13.9-.08-.07-.15-.07-.22-.14h0c-.07-.08-.14-.08-.22-.15h0a.07.07,0,0,1-.07-.07c.36-4.39,3-8.42,5.76-11.66C409.91,417.25,414.23,415.81,416.17,415.88Z"/><path class="cls-72" d="M401,318.46c-9.87,20.6-9,56.53,4,95.05,2.3,1.36,6.19.93,8.57-1.59-3.67-18.21-.79-47.88,2-65.38,2.24-14,8.36-38.3-14.69-28.08Z"/><path class="cls-49" d="M389,416.75c1.23,1.94,2.52,3.52,2.16,4.6-.93,2.52-10,14-13.46,12.82-4.75-3.38,2.23-13.68,2.59-16.56,3.67-.29,5.55-.79,8.71-.79Z"/><path class="cls-50" d="M391.26,420.92a.81.81,0,0,1-.08.43c-.93,2.52-10,14-13.46,12.82-.07-.07-.14-.07-.22-.14h0c-.07-.08-.14-.15-.21-.15h0l-.07-.07c.72-4.32,3.67-8.14,6.69-11.16.94-.86,5.33-1.94,7.27-1.66Z"/><path class="cls-73" d="M384.42,322.57c-11.6,19.73-13.83,55.58-4,95,2.16,1.58,6.12,1.44,8.72-.79-2.09-18.51,3.31-47.81,7.56-64.95,3.38-13.68,11.59-37.44-12.24-29.23Z"/><path class="cls-74" d="M397.45,272.38c.5-7.7-8.21-2.37-10.15-11.81-3.39-16.92,26-24.19,21.53,4.54-.29,2.09-2.52,9.36-5.69,9C402,274,397.38,274.18,397.45,272.38Z"/><path class="cls-75" d="M390.32,274.25c11.88-11.88,29.81.58,29.81,11.31-.07,14.33-.94,35.93-1.58,58.39-8.36,9.22-36.29,1.95-43.28-4.46C383.05,303.7,374.55,290,390.32,274.25Z"/><path class="cls-76" d="M328,278c11.81,13.68,58.1,28.08,76.9,23l-6.2-20c-17.64,4.69-54.93,3.53-68.4-9.07-3.88-3.67-7.92-.5-2.37,6Z"/><path class="cls-77" d="M341.86,290.74c19.59,9.8,51.41,14.62,65.6,10.88l-8.28-22.54c-13.18,3.53-37.52,4.89-54.65.07-1.73,1.66-2.95,7.13-2.74,11.59Z"/><path class="cls-17" d="M331.5,274.11c1.29-2.38-1.73-7.56-2.31-2.95-.07.72-.21,4,1.23,3.31C330.92,274.25,331.64,274,331.5,274.11Z"/><path class="cls-78" d="M397,253.66c-1.73-.43-4.9.29-7.71-1-13.68-6.19-1.29-21.16,6.27-12.67,2.88-2.88,7.7-1.44,7.77,1.59,19.66,6.12,6,22.68,5.12,25-2.38,5.62-10.23-5-9.44-6.91,1.66-3.75-1.22-5.33-2.3-2.88-.79,1.65.36-3,.21-3.1Z"/><path class="cls-79" d="M347.91,193.25h45.22a5.32,5.32,0,0,1,5.33,5.33v23a5.32,5.32,0,0,1-5.33,5.33l-.65,9-8.06-9H347.84a5.32,5.32,0,0,1-5.33-5.33v-23a5.32,5.32,0,0,1,5.33-5.33Z"/><path class="cls-80" d="M370.49,200.13a7.57,7.57,0,0,1,5.11,1.7c2.29,2.06,2.16,5.32,1.31,7.28-.64,1.49-1.5,1.76-2.24,2.76a6.47,6.47,0,0,0-.75,1.44c-.7,1.52-.69,1.77-1.09,2.11a3.4,3.4,0,0,1-2.34.5c-1.09,0-1.87,0-2.45-.51-.4-.36-.45-.58-1-2.1-.85-2.4-2.11-2.17-3-4.2s-.95-5.28,1.31-7.28A7.71,7.71,0,0,1,370.49,200.13Z"/><path class="cls-50" d="M368.2,216.15h4.57c.11,0,.21.2.21.45h0c0,.25-.1.45-.21.45H368.2c-.11,0-.21-.2-.21-.45h0C368,216.35,368.09,216.15,368.2,216.15Z"/><path class="cls-50" d="M368.2,217.42h4.57c.11,0,.21.2.21.45h0c0,.25-.1.45-.21.45H368.2c-.11,0-.21-.2-.21-.45h0C368,217.62,368.09,217.42,368.2,217.42Z"/><path class="cls-50" d="M368.2,218.67h4.57c.11,0,.21.2.21.45h0c0,.25-.1.45-.21.45H368.2c-.11,0-.21-.2-.21-.45h0C368,218.87,368.09,218.67,368.2,218.67Z"/></g></g><g id="Layer_2-2" data-name="Layer 2"><path class="cls-81" d="M366.79,202.68a4.68,4.68,0,0,1,1.92-.93,3.15,3.15,0,0,1,1.55-.05c.07,0,.69.17.68.34s-.87.12-2,.56a4.56,4.56,0,0,0-1.63,1,6.22,6.22,0,0,0-1.51,3.27c-.09.89.13,1.45,0,1.5s-.51-.52-.68-1.18a3.79,3.79,0,0,1,.08-1.95A4.94,4.94,0,0,1,366.79,202.68Z"/></g></g></svg>