<svg xmlns="http://www.w3.org/2000/svg" xmlns:xlink="http://www.w3.org/1999/xlink" viewBox="0 0 262.88 234.61"><defs><style>.cls-1,.cls-18{fill:#d5e2f5;}.cls-1,.cls-10,.cls-11,.cls-12,.cls-13,.cls-14,.cls-16,.cls-19,.cls-22,.cls-23,.cls-24,.cls-25,.cls-26,.cls-28,.cls-29,.cls-4,.cls-5,.cls-6{fill-rule:evenodd;}.cls-2{fill:url(#linear-gradient);}.cls-3{fill:#f3f0ff;}.cls-4{fill:#7861e6;}.cls-5{fill:url(#linear-gradient-2);}.cls-20,.cls-6{fill:#60fcfc;}.cls-7{fill:#749fdb;}.cls-8{fill:url(#linear-gradient-3);}.cls-9{fill:url(#linear-gradient-4);}.cls-10{fill:url(#linear-gradient-5);}.cls-11{fill:url(#linear-gradient-6);}.cls-12{fill:url(#linear-gradient-7);}.cls-13{fill:url(#linear-gradient-8);}.cls-14{fill:url(#linear-gradient-9);}.cls-15{fill:none;stroke:#ffabc7;stroke-miterlimit:10;stroke-width:1.92px;stroke-dasharray:9.6 5.76;}.cls-16,.cls-17{fill:#ffabc7;}.cls-19{fill:url(#linear-gradient-10);}.cls-21{fill:url(#linear-gradient-11);}.cls-22{fill:url(#linear-gradient-12);}.cls-23{fill:url(#linear-gradient-13);}.cls-24{fill:url(#linear-gradient-14);}.cls-25{fill:url(#linear-gradient-15);}.cls-26{fill:#634ec9;}.cls-27{fill:#d1415b;}.cls-28{fill:url(#linear-gradient-16);}.cls-29,.cls-30{fill:#ff8d29;}.cls-31{fill:#882fa3;}</style><linearGradient id="linear-gradient" x1="3775.18" y1="-3877.93" x2="3775.18" y2="-4180.13" gradientTransform="matrix(0.07, 0, 0, -0.07, -158.97, -108.12)" gradientUnits="userSpaceOnUse"><stop offset="0" stop-color="#634ec9"/><stop offset="1" stop-color="#749fdb"/></linearGradient><linearGradient id="linear-gradient-2" x1="3681.91" y1="-4055.62" x2="3849.2" y2="-3274.95" gradientTransform="matrix(0.07, 0, 0, -0.07, -158.97, -108.12)" gradientUnits="userSpaceOnUse"><stop offset="0" stop-color="#60fcfc"/><stop offset="1" stop-color="#749fdb"/></linearGradient><linearGradient id="linear-gradient-3" x1="3915.45" y1="-4290.75" x2="3635.2" y2="-4391.18" xlink:href="#linear-gradient-2"/><linearGradient id="linear-gradient-4" x1="3806.05" y1="-2012.84" x2="2777.16" y2="-3516.4" gradientTransform="matrix(0.07, 0, 0, -0.07, -158.97, -108.12)" gradientUnits="userSpaceOnUse"><stop offset="0" stop-color="#d1415b"/><stop offset="1" stop-color="#fc6094"/></linearGradient><linearGradient id="linear-gradient-5" x1="4752.89" y1="-2334.9" x2="4372.92" y2="-2445.28" xlink:href="#linear-gradient-4"/><linearGradient id="linear-gradient-6" x1="4562.16" y1="-2497.4" x2="4314.84" y2="-2604.79" xlink:href="#linear-gradient-4"/><linearGradient id="linear-gradient-7" x1="4737.47" y1="-2767.39" x2="4388.3" y2="-2868.81" xlink:href="#linear-gradient-4"/><linearGradient id="linear-gradient-8" x1="4910.67" y1="-2878.07" x2="4530.7" y2="-2988.45" xlink:href="#linear-gradient-4"/><linearGradient id="linear-gradient-9" x1="4953.54" y1="-3025.62" x2="4573.57" y2="-3136" xlink:href="#linear-gradient-4"/><linearGradient id="linear-gradient-10" x1="5207.46" y1="-3879.79" x2="4978.83" y2="-4311.24" gradientTransform="matrix(0.07, 0, 0, -0.07, -158.97, -108.12)" gradientUnits="userSpaceOnUse"><stop offset="0" stop-color="#749fdb"/><stop offset="1" stop-color="#60fcfc"/></linearGradient><linearGradient id="linear-gradient-11" x1="5186.04" y1="-2765.89" x2="5016.22" y2="-3451.54" gradientTransform="matrix(0.07, 0, 0, -0.07, -158.97, -108.12)" gradientUnits="userSpaceOnUse"><stop offset="0" stop-color="#d1415b"/><stop offset="0.78" stop-color="#e65077"/><stop offset="1" stop-color="#fc6094"/></linearGradient><linearGradient id="linear-gradient-12" x1="5309.07" y1="-3484.21" x2="4893.77" y2="-3534.76" xlink:href="#linear-gradient-4"/><linearGradient id="linear-gradient-13" x1="5135.02" y1="-3587.16" x2="4857.2" y2="-3637.7" xlink:href="#linear-gradient-4"/><linearGradient id="linear-gradient-14" x1="5296.93" y1="-3758.69" x2="4906.06" y2="-3806.25" xlink:href="#linear-gradient-4"/><linearGradient id="linear-gradient-15" x1="5354.05" y1="-3853.73" x2="4938.75" y2="-3904.28" xlink:href="#linear-gradient-4"/><linearGradient id="linear-gradient-16" x1="3775.68" y1="-1834.57" x2="3775.68" y2="-2099.84" gradientTransform="matrix(0.07, 0, 0, -0.07, -158.97, -108.12)" gradientUnits="userSpaceOnUse"><stop offset="0" stop-color="#882fa3"/><stop offset="1" stop-color="#d1415b"/></linearGradient></defs><g id="Layer_2" data-name="Layer 2"><g id="Layer_1-2" data-name="Layer 1"><g id="Layer_1-3" data-name="Layer_1"><path class="cls-1" d="M110.14,28.07c11.67-38.95,84.53-36,127.3.43,45.93,39.09,22,122.25-11.38,141.26-25.2,14.33-53.49,3.53-88.7,49.39C101.86,265.45-23.7,200,3.94,124.83,28.42,58.38,85.73,109.5,110.07,28.07Z"/><rect class="cls-2" x="90.13" y="161.05" width="45.43" height="41.83" rx="2.3"/><rect class="cls-3" x="12.37" y="23.96" width="201.09" height="152.42" rx="8.35"/><path class="cls-4" d="M20.65,24H205a8.36,8.36,0,0,1,8.35,8.35v4.76H12.29V32.31A8.37,8.37,0,0,1,20.65,24Z"/><path class="cls-5" d="M205.11,143.84H20.72a8.35,8.35,0,0,1-8.35-8.35V168a8.36,8.36,0,0,0,8.35,8.36H205.11a8.36,8.36,0,0,0,8.35-8.36V135.49A8.35,8.35,0,0,1,205.11,143.84Z"/><path class="cls-6" d="M112.88,150.47a9.65,9.65,0,1,1-9.65,9.64A9.65,9.65,0,0,1,112.88,150.47Z"/><path class="cls-7" d="M112.88,149.75a10.31,10.31,0,1,1-7.35,3A10.33,10.33,0,0,1,112.88,149.75Zm6.33,4.1a8.91,8.91,0,0,0-6.33-2.59,9.2,9.2,0,0,0-6.34,2.59,8.93,8.93,0,0,0-2.59,6.34,9.18,9.18,0,0,0,2.59,6.33,8.91,8.91,0,0,0,6.34,2.59,9.12,9.12,0,0,0,6.33-2.59,8.88,8.88,0,0,0,2.6-6.33A9.17,9.17,0,0,0,119.21,153.85Z"/><rect class="cls-8" x="54.05" y="199.64" width="117.57" height="9.58" rx="3.82"/><rect class="cls-9" x="29.07" y="48.23" width="97.92" height="85.39" rx="4.68"/><g id="_670565312" data-name=" 670565312"><path class="cls-10" d="M146.36,60.11H192.8A3.87,3.87,0,0,1,196.69,64h0a3.87,3.87,0,0,1-3.89,3.85H146.36A3.87,3.87,0,0,1,142.47,64h0A3.87,3.87,0,0,1,146.36,60.11Z"/><path class="cls-11" d="M146.36,71.7h28.51a3.87,3.87,0,0,1,3.89,3.85h0a3.87,3.87,0,0,1-3.89,3.85H146.36a3.87,3.87,0,0,1-3.89-3.85h0A3.87,3.87,0,0,1,146.36,71.7Z"/><path class="cls-12" d="M146.36,90.92H192.8a3.88,3.88,0,0,1,3.89,3.85h0a3.88,3.88,0,0,1-3.89,3.86H146.36a3.88,3.88,0,0,1-3.89-3.86h0A3.87,3.87,0,0,1,146.36,90.92Z"/><path class="cls-13" d="M146.36,102.51H192.8a3.88,3.88,0,0,1,3.89,3.86h0a3.88,3.88,0,0,1-3.89,3.85H146.36a3.87,3.87,0,0,1-3.89-3.85h0A3.88,3.88,0,0,1,146.36,102.51Z"/><path class="cls-14" d="M146.36,114H192.8a3.88,3.88,0,0,1,3.89,3.86h0a3.88,3.88,0,0,1-3.89,3.85H146.36a3.87,3.87,0,0,1-3.89-3.85h0A3.88,3.88,0,0,1,146.36,114Z"/></g><path class="cls-15" d="M170.62,15.68c34.49-32.32,83-8.71,67.47,60.19"/><path class="cls-15" d="M9.34,182.07C5,190.64,8,210.23,26.77,210.23c13.75,0,5.11-22.32-1.16-5.84-6,15.77,16.64,21.39,25.78,12.89"/><path class="cls-16" d="M56.29,98.63l-24,15.12v12.74c0,1.87,2.16,3.46,4.82,3.46h82.3c2.66,0,4.82-1.52,4.82-3.46V109.64L106.4,90.13l-28.66,24.7Z"/><circle class="cls-17" cx="78.03" cy="92.65" r="8.42"/><g id="_670723000" data-name=" 670723000"><path class="cls-18" d="M178.25,82.21h60.12a6.17,6.17,0,0,1,2,.36,13.61,13.61,0,0,0-1.3,3.53,6.14,6.14,0,0,0-.28,1.08,1,1,0,0,0-.44-.07H178.25a1.17,1.17,0,0,0-.86.36h0a1.28,1.28,0,0,0-.36.86v93.1a12.05,12.05,0,0,0-4.82-.15V88.33a6.11,6.11,0,0,1,6.12-6.12Z"/><rect class="cls-3" x="174.58" y="84.51" width="67.54" height="110.74" rx="3.67"/><path class="cls-19" d="M238.37,182.79H178.25a3.83,3.83,0,0,1-3.67-3.88v12.52a3.79,3.79,0,0,0,3.67,3.89h60.12a3.83,3.83,0,0,0,3.67-3.89V178.91A3.77,3.77,0,0,1,238.37,182.79Z"/><circle class="cls-20" cx="208.35" cy="189.06" r="3.82"/><path class="cls-7" d="M208.35,184.81a4.56,4.56,0,0,1,3,1.22,4.12,4.12,0,0,1,1.23,3,4.57,4.57,0,0,1-1.23,3h0a4.13,4.13,0,0,1-3,1.23,4.57,4.57,0,0,1-3-1.23h0a4.09,4.09,0,0,1-1.23-3,4.61,4.61,0,0,1,1.23-3A4.12,4.12,0,0,1,208.35,184.81Zm2.38,1.87a3.47,3.47,0,0,0-2.38-1,3.15,3.15,0,0,0-2.38,1,3.46,3.46,0,0,0-1,2.38,3.16,3.16,0,0,0,1,2.37h0a3.43,3.43,0,0,0,2.38,1,3.15,3.15,0,0,0,2.38-1,3.44,3.44,0,0,0,1-2.37A3.18,3.18,0,0,0,210.73,186.68Z"/><rect class="cls-21" x="183.37" y="93.95" width="49.9" height="43.49" rx="2.38"/><path class="cls-22" d="M187.83,142.11h41a2.45,2.45,0,0,1,2.45,2.45h0A2.45,2.45,0,0,1,228.8,147h-41a2.45,2.45,0,0,1-2.45-2.45h0A2.45,2.45,0,0,1,187.83,142.11Z"/><path class="cls-23" d="M187.83,149.53h25.78a2.45,2.45,0,0,1,2.44,2.45h0a2.45,2.45,0,0,1-2.44,2.45H187.83a2.45,2.45,0,0,1-2.45-2.45h0A2.45,2.45,0,0,1,187.83,149.53Z"/><path class="cls-24" d="M187.83,161.77h41a2.45,2.45,0,0,1,2.45,2.45h0a2.45,2.45,0,0,1-2.45,2.45h-41a2.45,2.45,0,0,1-2.45-2.45h0A2.45,2.45,0,0,1,187.83,161.77Z"/><path class="cls-25" d="M187.83,169.11h41a2.45,2.45,0,0,1,2.45,2.45h0A2.45,2.45,0,0,1,228.8,174h-41a2.45,2.45,0,0,1-2.45-2.45h0A2.45,2.45,0,0,1,187.83,169.11Z"/><path class="cls-26" d="M213.39,84.51H178.25a3.69,3.69,0,0,0-3.67,3.68v3.6h67.54v-3.6a3.72,3.72,0,0,0-2.67-3.53,5.73,5.73,0,0,0-1.08-.15Z"/><circle class="cls-27" cx="231.97" cy="89.05" r="0.86"/><circle class="cls-27" cx="234.63" cy="89.05" r="0.86"/><circle class="cls-27" cx="237.29" cy="89.05" r="0.86"/><path class="cls-16" d="M197.33,120l-12.09,7.56V134c0,.93,1.08,1.73,2.45,1.73h41.4c1.36,0,2.44-.8,2.44-1.73v-8.5l-8.92-9.79-14.4,12.46L197.41,120Z"/><circle class="cls-17" cx="208.28" cy="116.99" r="4.25"/></g><g id="_670732720" data-name=" 670732720"><path class="cls-28" d="M88.69,32.1v-4a4,4,0,0,0-4-4H54.92a4,4,0,0,0-4,4v4H12.37v11h201v-11H88.69Z"/><rect class="cls-3" x="47.36" y="34.91" width="150.77" height="5.33" rx="1.58"/><path class="cls-29" d="M15.82,37.28l1.23-.79,1.22-.79a.64.64,0,0,1,.79.07.58.58,0,0,1,.15.29h0v3.17c0,.21-.29.43-.58.43a.93.93,0,0,1-.43-.15L17,38.72l-1.22-.79a.34.34,0,0,1-.07-.58.07.07,0,0,0,.07-.07Z"/><rect class="cls-30" x="18.41" y="36.56" width="2.02" height="2.02" rx="0.5"/><path class="cls-29" d="M28.78,37.28l-1.22-.79-1.23-.79a.64.64,0,0,0-.79.07.56.56,0,0,0-.14.29h0v3.17c0,.21.29.43.57.43a1,1,0,0,0,.44-.15l1.22-.79,1.22-.79a.35.35,0,0,0,.08-.58s-.08,0-.08-.07Z"/><rect class="cls-30" x="24.17" y="36.56" width="2.02" height="2.02" rx="0.5"/><path class="cls-30" d="M33.75,38.51a.34.34,0,0,1,.43.14.35.35,0,0,1-.14.43,1.66,1.66,0,0,1-1.3.15,1.61,1.61,0,0,1-1-.8,1.68,1.68,0,0,1-.14-1.29,1.6,1.6,0,0,1,.79-1,1.62,1.62,0,0,1,1.3-.14,1.6,1.6,0,0,1,1,.79.34.34,0,0,1-.15.43.35.35,0,0,1-.43-.14.91.91,0,0,0-.65-.51,1,1,0,0,0-.79.07.91.91,0,0,0-.5.65.93.93,0,0,0,.07.79.91.91,0,0,0,.65.51,1,1,0,0,0,.79-.07Z"/><path class="cls-29" d="M35.05,37.79v-1c0-.07-.08-.22-.15-.22h-.07l-.43.29-.43.29a.12.12,0,0,0,0,.21.07.07,0,0,0,.07.08l.43.21.43.22c.07.07.15,0,.22-.07h-.07Z"/><path class="cls-29" d="M40,35.63l.8.79.79.79a.31.31,0,0,1-.07.5.42.42,0,0,1-.29.08H38.07a.4.4,0,0,1-.43-.36.52.52,0,0,1,.14-.29l.79-.79.8-.8a.57.57,0,0,1,.57-.07l.07.07Z"/><path class="cls-29" d="M39,36.85h1.36a.72.72,0,0,1,.72.72v1.37a.72.72,0,0,1-.72.72h-.21v-.94a.32.32,0,0,0-.29-.29h-.5a.31.31,0,0,0-.29.29v.94h-.22a.72.72,0,0,1-.72-.72V37.57a.72.72,0,0,1,.72-.72Z"/><circle class="cls-31" cx="24.25" cy="28.21" r="1.66"/><circle class="cls-31" cx="29.29" cy="28.21" r="1.66"/><circle class="cls-31" cx="34.25" cy="28.21" r="1.66"/></g></g></g></g></svg>