<svg xmlns="http://www.w3.org/2000/svg" xmlns:xlink="http://www.w3.org/1999/xlink" viewBox="0 0 221.68 239.95"><defs><style>.cls-1{fill:#d5e2f5;}.cls-1,.cls-2,.cls-6{fill-rule:evenodd;}.cls-2{fill:url(#linear-gradient);}.cls-3{fill:url(#linear-gradient-2);}.cls-4{fill:url(#linear-gradient-3);}.cls-5{fill:url(#linear-gradient-4);}.cls-6{fill:#ffabc7;}.cls-7{fill:none;stroke:#ffabc7;stroke-miterlimit:10;stroke-width:1.92px;stroke-dasharray:9.6 5.76;}.cls-8{fill:#d1415b;}</style><linearGradient id="linear-gradient" x1="4356.95" y1="-6500.59" x2="3449.75" y2="-8314.99" gradientTransform="matrix(0.07, 0, 0, -0.07, -179.8, -416.69)" gradientUnits="userSpaceOnUse"><stop offset="0" stop-color="#634ec9"/><stop offset="1" stop-color="#7e67f0"/></linearGradient><linearGradient id="linear-gradient-2" x1="4614.78" y1="-6171.32" x2="3172.24" y2="-8604.91" gradientTransform="matrix(0.07, 0, 0, -0.07, -179.8, -416.69)" gradientUnits="userSpaceOnUse"><stop offset="0" stop-color="#749fdb"/><stop offset="1" stop-color="#60fcfc"/></linearGradient><linearGradient id="linear-gradient-3" x1="4091.48" y1="-6822.54" x2="4030.2" y2="-7136.11" gradientTransform="matrix(0.07, 0, 0, -0.07, -179.8, -416.69)" gradientUnits="userSpaceOnUse"><stop offset="0" stop-color="#ffabc7"/><stop offset="1" stop-color="#d1415b"/></linearGradient><linearGradient id="linear-gradient-4" x1="4316.43" y1="-7286.14" x2="3754.84" y2="-7828.74" gradientTransform="matrix(0.07, 0, 0, -0.07, -179.8, -416.69)" gradientUnits="userSpaceOnUse"><stop offset="0" stop-color="#d1415b"/><stop offset="1" stop-color="#fc6094"/></linearGradient></defs><g id="Layer_2" data-name="Layer 2"><g id="Layer_1-2" data-name="Layer 1"><g id="Layer_1-3" data-name="Layer_1"><path class="cls-1" d="M44.85,168.12c-69.77-6.63-59.76-168.91,41.4-149C151.7,32,121.82,69.7,193.17,88c49.39,12.68,33.05,137.81-36.93,137.88C94.39,225.93,118.72,175.17,44.85,168.12Z"/><g id="_327940208" data-name=" 327940208"><path class="cls-2" d="M179.2,51.55c-17.42-9.79-39.09-16-68.4-18.86-29.37,2.88-51,9.07-68.4,18.86,0,47.38-1.44,90.36,8.21,108.36,12.75,23.76,45.22,45.5,60.19,50.26,15-4.83,47.52-26.5,60.19-50.26C180.64,141.91,179.2,98.93,179.2,51.55Z"/><path class="cls-3" d="M174,54.65A133.08,133.08,0,0,0,148,44.5a215.62,215.62,0,0,0-37.3-6.63A216.9,216.9,0,0,0,73.44,44.5,126.37,126.37,0,0,0,47.52,54.65l-.08,13.46c-.14,40-.28,74.66,7.64,89.42,5.18,9.72,14.11,19.23,23.68,27.22,11.6,9.65,23.91,17,31.9,20,8-3,20.38-10.3,31.9-20,9.57-8,18.5-17.5,23.68-27.22,7.92-14.76,7.78-49.46,7.63-89.42l-.07-13.39ZM150.84,34.49A135.3,135.3,0,0,1,181.72,47l2.67,1.51V68c.14,41.33.28,77.25-8.86,94.32-5.9,11.09-15.77,21.6-26.21,30.31-13.39,11.16-28,19.58-37,22.46h-3.17c-9-2.88-23.62-11.3-37-22.46-10.44-8.71-20.3-19.3-26.21-30.31-9.14-17.07-9-53-8.85-94.32V48.53L39.74,47A136.52,136.52,0,0,1,70.63,34.49a225.55,225.55,0,0,1,39.6-7h1A235.12,235.12,0,0,1,150.84,34.49Z"/><path class="cls-4" d="M110.8,70.63h0a20.9,20.9,0,0,1,20.81,20.81v8.93H122V91.44a10.75,10.75,0,0,0-3.31-7.85,11.18,11.18,0,0,0-7.85-3.31h0A10.73,10.73,0,0,0,103,83.59a11.18,11.18,0,0,0-3.32,7.85v8.93H90V91.44a20.9,20.9,0,0,1,20.8-20.81Z"/><rect class="cls-5" x="79.92" y="99.36" width="61.7" height="56.16" rx="5.18"/><path class="cls-6" d="M113.9,127.08l1.3,8.35c.07.29-.22.5-.51.5h-7.77c-.29,0-.58-.21-.51-.5l1.3-8.35a4.67,4.67,0,0,1-1.51-3.46,4.61,4.61,0,1,1,9.21,0A4.67,4.67,0,0,1,113.9,127.08Z"/></g><path class="cls-7" d="M149.76,208.94c-20.38,42.34-69,31.61-82.23,17.86-30.24-31.47,22.32-26.93,3.39-11.09-6.77,5.62-21.17,7.49-32.84-9.72-7.56-11.09-7-27.65,1.23-43.13"/><path class="cls-8" d="M1.44,55.3A7.65,7.65,0,0,0,2.3,59a6.9,6.9,0,0,0,2.38,2.59,6.19,6.19,0,0,0,3.45.94A6.37,6.37,0,0,0,14,59a7.75,7.75,0,0,0,.87-3.75,7.57,7.57,0,0,0-.87-3.6,6.14,6.14,0,0,0-2.37-2.52,7,7,0,0,0-3.46-.93,6.26,6.26,0,0,0-3.45.93A6.23,6.23,0,0,0,2.3,51.62a7.56,7.56,0,0,0-.86,3.6Zm2.88-.08A4.45,4.45,0,0,1,4.82,53a4.76,4.76,0,0,1,1.37-1.58,3.6,3.6,0,0,1,1.94-.58,4.1,4.1,0,0,1,2,.58A3.71,3.71,0,0,1,11.52,53,4.74,4.74,0,0,1,12,55.3a4.91,4.91,0,0,1-.5,2.3,4.24,4.24,0,0,1-1.37,1.58,3.72,3.72,0,0,1-2,.58,4,4,0,0,1-2-.58,3.91,3.91,0,0,1-1.37-1.65,5.22,5.22,0,0,1-.51-2.38Z"/><polygon class="cls-8" points="22.89 142.06 22.89 128.45 20.8 128.45 15.84 130.68 16.99 132.98 19.72 131.9 19.72 142.06 22.89 142.06"/><path class="cls-8" d="M71.13,7.13A7.62,7.62,0,0,0,72,10.8a6.8,6.8,0,0,0,2.37,2.59,6.22,6.22,0,0,0,3.46.94,6.4,6.4,0,0,0,5.83-3.53,7.71,7.71,0,0,0,.86-3.74,7.54,7.54,0,0,0-.86-3.6A6.17,6.17,0,0,0,81.28.94,6.82,6.82,0,0,0,77.83,0a6.22,6.22,0,0,0-3.46.94A6.08,6.08,0,0,0,72,3.46a7.54,7.54,0,0,0-.87,3.6ZM74,7.06a4.47,4.47,0,0,1,.51-2.24,5,5,0,0,1,1.36-1.58,3.66,3.66,0,0,1,2-.58,4,4,0,0,1,2,.58,3.7,3.7,0,0,1,1.37,1.58,4.74,4.74,0,0,1,.51,2.31,4.92,4.92,0,0,1-.51,2.3A4.19,4.19,0,0,1,79.84,11a3.65,3.65,0,0,1-2,.57,4.09,4.09,0,0,1-2-.57,4,4,0,0,1-1.37-1.66A5.21,5.21,0,0,1,73.94,7Z"/><polygon class="cls-8" points="38.23 38.88 38.23 25.27 36.14 25.27 31.24 27.43 32.4 29.81 35.13 28.73 35.13 38.88 38.23 38.88"/><polygon class="cls-8" points="177.91 194.9 177.91 181.29 175.82 181.29 170.85 183.45 172.07 185.83 174.81 184.75 174.81 194.9 177.91 194.9"/><polygon class="cls-8" points="120.45 19.08 120.45 5.54 118.36 5.54 113.39 7.7 114.62 10.01 117.36 9 117.36 19.08 120.45 19.08"/><path class="cls-8" d="M43.7,187.49a7.76,7.76,0,0,0,.86,3.67,6.9,6.9,0,0,0,2.38,2.59,6.22,6.22,0,0,0,3.46.94,6.4,6.4,0,0,0,5.83-3.53,7.86,7.86,0,0,0,.86-3.75,7.68,7.68,0,0,0-.86-3.6,6.23,6.23,0,0,0-2.38-2.52,6.94,6.94,0,0,0-3.45-.93,6.3,6.3,0,0,0-3.46.93,6.23,6.23,0,0,0-2.38,2.52,7.68,7.68,0,0,0-.86,3.6Zm2.88-.08a4.45,4.45,0,0,1,.5-2.23,4.87,4.87,0,0,1,1.37-1.58A3.66,3.66,0,0,1,50.4,183a4.06,4.06,0,0,1,2,.58,3.64,3.64,0,0,1,1.37,1.58,4.74,4.74,0,0,1,.5,2.31,4.91,4.91,0,0,1-.5,2.3,4.16,4.16,0,0,1-1.37,1.58,3.66,3.66,0,0,1-2,.58,4.1,4.1,0,0,1-2-.58A3.91,3.91,0,0,1,47,189.72a5.21,5.21,0,0,1-.5-2.38Z"/><path class="cls-8" d="M199.79,148.53a7.66,7.66,0,0,0,.87,3.68A6.88,6.88,0,0,0,203,154.8a6.22,6.22,0,0,0,3.46.93,6.34,6.34,0,0,0,5.83-3.52,7.75,7.75,0,0,0,.87-3.75,7.57,7.57,0,0,0-.87-3.6,6.2,6.2,0,0,0-2.37-2.52,7,7,0,0,0-3.46-.93,6.44,6.44,0,0,0-5.83,3.45,7.57,7.57,0,0,0-.87,3.6Zm2.88-.07a4.45,4.45,0,0,1,.51-2.23,4.76,4.76,0,0,1,1.37-1.58,3.6,3.6,0,0,1,1.94-.58,4.1,4.1,0,0,1,2,.58,3.62,3.62,0,0,1,1.36,1.58,4.73,4.73,0,0,1,.51,2.3,4.93,4.93,0,0,1-.51,2.31,4.22,4.22,0,0,1-1.36,1.58,3.72,3.72,0,0,1-2,.58,4.1,4.1,0,0,1-2-.58,4,4,0,0,1-1.36-1.65,5.25,5.25,0,0,1-.51-2.38Z"/><polygon class="cls-8" points="99.64 231.19 99.64 217.58 97.56 217.58 92.59 219.74 93.74 222.12 96.48 221.04 96.48 231.19 99.64 231.19"/><polygon class="cls-8" points="220.1 94.39 220.1 80.78 218.01 80.78 213.04 83.02 214.27 85.32 217 84.24 217 94.39 220.1 94.39"/><path class="cls-7" d="M127.8,17.28C164.44-4.18,238.17,55.73,189.07,122.9"/><path class="cls-8" d="M201.31,206.42a7.62,7.62,0,0,0,.86,3.67,6.93,6.93,0,0,0,2.38,2.6,6.26,6.26,0,0,0,3.45.93,6.46,6.46,0,0,0,3.46-.93,6.29,6.29,0,0,0,2.37-2.6,7.71,7.71,0,0,0,.87-3.74,7.54,7.54,0,0,0-.87-3.6,6.14,6.14,0,0,0-2.37-2.52,6.85,6.85,0,0,0-3.46-.94,6.51,6.51,0,0,0-5.83,3.46,7.54,7.54,0,0,0-.86,3.6Zm2.88-.07a4.45,4.45,0,0,1,.5-2.23,4.89,4.89,0,0,1,1.37-1.59A3.59,3.59,0,0,1,208,202a4.09,4.09,0,0,1,2,.57,3.73,3.73,0,0,1,1.37,1.59,4.73,4.73,0,0,1,.5,2.3,4.92,4.92,0,0,1-.5,2.31,4.32,4.32,0,0,1-1.37,1.58,3.72,3.72,0,0,1-2,.58,4,4,0,0,1-2-.58,3.94,3.94,0,0,1-1.37-1.66,5.21,5.21,0,0,1-.51-2.37Z"/><polygon class="cls-8" points="192.31 24.12 192.31 10.51 190.22 10.51 185.25 12.74 186.47 15.05 189.21 13.97 189.21 24.12 192.31 24.12"/></g></g></g></svg>