<?xml version="1.0" encoding="utf-8"?>
<!-- Generator: Adobe Illustrator 23.0.1, SVG Export Plug-In . SVG Version: 6.00 Build 0)  -->
<svg version="1.1" id="Layer_1" xmlns="http://www.w3.org/2000/svg" xmlns:xlink="http://www.w3.org/1999/xlink" x="0px" y="0px"
	 viewBox="0 0 221.7 239.9" style="enable-background:new 0 0 221.7 239.9;" xml:space="preserve">
<style type="text/css">
	.st0{fill-rule:evenodd;clip-rule:evenodd;fill:url(#SVGID_1_);}
	.st1{fill:url(#SVGID_2_);}
	.st2{fill:url(#SVGID_3_);}
	.st3{fill:url(#SVGID_4_);}
	.st4{fill-rule:evenodd;clip-rule:evenodd;fill:#FFABC7;}
</style>
<g>
	<g id="Layer_1-2">
		<g id="Layer_1-3">
			<g id="_327940208">
				
					<linearGradient id="SVGID_1_" gradientUnits="userSpaceOnUse" x1="12116.8594" y1="10849.6162" x2="11209.6592" y2="12664.0166" gradientTransform="matrix(7.000000e-02 0 0 7.000000e-02 -710.83 -715.04)">
					<stop  offset="0" style="stop-color:#634EC9"/>
					<stop  offset="1" style="stop-color:#7E67F0"/>
				</linearGradient>
				<path class="st0" d="M179.2,51.5c-17.4-9.8-39.1-16-68.4-18.9c-29.4,2.9-51,9.1-68.4,18.9c0,47.4-1.4,90.4,8.2,108.4
					c12.8,23.8,45.2,45.5,60.2,50.3c15-4.8,47.5-26.5,60.2-50.3C180.6,141.9,179.2,98.9,179.2,51.5z"/>
				
					<linearGradient id="SVGID_2_" gradientUnits="userSpaceOnUse" x1="12375.7383" y1="10537.0869" x2="10933.1982" y2="12970.6768" gradientTransform="matrix(7.000000e-02 0 0 7.000000e-02 -710.83 -715.04)">
					<stop  offset="0" style="stop-color:#749FDB"/>
					<stop  offset="1" style="stop-color:#60FCFC"/>
				</linearGradient>
				<path class="st1" d="M174,54.7c-8.3-4.3-17-7.7-26-10.2c-12.2-3.3-24.7-5.5-37.3-6.6c-12.6,1.1-25.1,3.3-37.3,6.6
					c-9,2.4-17.7,5.8-25.9,10.2l-0.1,13.5c-0.1,40-0.3,74.7,7.6,89.4c5.2,9.7,14.1,19.2,23.7,27.2c11.6,9.6,23.9,17,31.9,20
					c8-3,20.4-10.3,31.9-20c9.6-8,18.5-17.5,23.7-27.2c7.9-14.8,7.8-49.5,7.6-89.4l-0.1-13.4L174,54.7z M150.8,34.5
					c10.8,2.9,21.1,7.1,30.9,12.5l2.7,1.5V68c0.1,41.3,0.3,77.3-8.9,94.3c-5.9,11.1-15.8,21.6-26.2,30.3c-13.4,11.2-28,19.6-37,22.5
					h-3.2c-9-2.9-23.6-11.3-37-22.5c-10.4-8.7-20.3-19.3-26.2-30.3c-9.1-17.1-9-53-8.8-94.3V48.5l2.6-1.5
					c9.7-5.4,20.1-9.6,30.9-12.5c13-3.5,26.2-5.9,39.6-7h1C124.6,28.7,137.9,31,150.8,34.5z"/>
				
					<linearGradient id="SVGID_3_" gradientUnits="userSpaceOnUse" x1="11826.9736" y1="11113.8701" x2="11765.6934" y2="11427.4395" gradientTransform="matrix(7.000000e-02 0 0 7.000000e-02 -710.83 -715.04)">
					<stop  offset="0" style="stop-color:#FFABC7"/>
					<stop  offset="1" style="stop-color:#D1415B"/>
				</linearGradient>
				<path class="st2" d="M110.8,70.6L110.8,70.6c11.5,0,20.8,9.3,20.8,20.8v8.9H122v-8.9c0-3-1.2-5.8-3.3-7.8
					c-2.1-2.1-4.9-3.3-7.8-3.3l0,0c-3,0-5.8,1.2-7.8,3.3c-2.1,2.1-3.3,4.9-3.3,7.8v8.9H90v-8.9C90,80,99.3,70.7,110.8,70.6z"/>
				
					<linearGradient id="SVGID_4_" gradientUnits="userSpaceOnUse" x1="12066.1309" y1="11717.5654" x2="11504.541" y2="12260.165" gradientTransform="matrix(7.000000e-02 0 0 7.000000e-02 -710.83 -715.04)">
					<stop  offset="0" style="stop-color:#D1415B"/>
					<stop  offset="1" style="stop-color:#FC6094"/>
				</linearGradient>
				<path class="st3" d="M85.1,99.4h51.3c2.9,0,5.2,2.3,5.2,5.2v45.8c0,2.9-2.3,5.2-5.2,5.2H85.1c-2.9,0-5.2-2.3-5.2-5.2v-45.8
					C79.9,101.7,82.2,99.4,85.1,99.4z"/>
				<path class="st4" d="M113.9,127.1l1.3,8.4c0.1,0.3-0.2,0.5-0.5,0.5h-7.8c-0.3,0-0.6-0.2-0.5-0.5l1.3-8.3c-1-0.9-1.5-2.1-1.5-3.5
					c-0.1-2.5,1.8-4.7,4.4-4.8s4.7,1.8,4.8,4.4c0,0.1,0,0.3,0,0.4C115.4,124.9,114.9,126.2,113.9,127.1z"/>
			</g>
		</g>
	</g>
</g>
</svg>
