<svg xmlns="http://www.w3.org/2000/svg" xmlns:xlink="http://www.w3.org/1999/xlink" viewBox="0 0 261.2 234.19"><defs><style>.cls-1{fill:#d5e2f5;}.cls-1,.cls-19,.cls-20,.cls-22,.cls-24,.cls-5,.cls-6,.cls-7{fill-rule:evenodd;}.cls-2,.cls-25{fill:none;}.cls-2{stroke:#ffabc7;stroke-width:1.92px;stroke-dasharray:9.6 5.76;}.cls-18,.cls-2{stroke-miterlimit:10;}.cls-3{fill:url(#linear-gradient);}.cls-4{fill:url(#linear-gradient-2);}.cls-12,.cls-5{fill:#f3f0ff;}.cls-6{fill:url(#linear-gradient-3);}.cls-7{fill:#60fcfc;}.cls-8{fill:#749fdb;}.cls-9{fill:url(#linear-gradient-4);}.cls-10{fill:#882fa3;}.cls-11{fill:#b9afe0;}.cls-13{fill:#0074d9;}.cls-14{fill:#4385f4;}.cls-15{fill:#ea4437;}.cls-16{fill:#ffc405;}.cls-17{fill:#37b258;}.cls-18,.cls-23{fill:#4d4d4d;}.cls-18{stroke:#333;stroke-width:0.48px;}.cls-19{fill:url(#linear-gradient-5);}.cls-20,.cls-21{fill:#ff8d29;}.cls-22{fill:#fff;fill-opacity:0.2;}.cls-24{fill:#1f1f1f;}</style><linearGradient id="linear-gradient" x1="7811.03" y1="-3942.95" x2="7811.03" y2="-4245.16" gradientTransform="matrix(0.07, 0, 0, -0.07, -423.59, -103.63)" gradientUnits="userSpaceOnUse"><stop offset="0" stop-color="#634ec9"/><stop offset="1" stop-color="#749fdb"/></linearGradient><linearGradient id="linear-gradient-2" x1="7327.01" y1="-3764.94" x2="8294.98" y2="-2150.81" gradientTransform="matrix(0.07, 0, 0, -0.07, -423.59, -103.63)" gradientUnits="userSpaceOnUse"><stop offset="0" stop-color="#7e67f0"/><stop offset="1" stop-color="#634ec9"/></linearGradient><linearGradient id="linear-gradient-3" x1="7716.74" y1="-4120.47" x2="7884.04" y2="-3339.8" gradientTransform="matrix(0.07, 0, 0, -0.07, -423.59, -103.63)" gradientUnits="userSpaceOnUse"><stop offset="0" stop-color="#60fcfc"/><stop offset="1" stop-color="#749fdb"/></linearGradient><linearGradient id="linear-gradient-4" x1="7951.39" y1="-4356.52" x2="7671.14" y2="-4456.95" xlink:href="#linear-gradient-3"/><linearGradient id="linear-gradient-5" x1="7811.53" y1="-1899.58" x2="7811.53" y2="-2164.86" gradientTransform="matrix(0.07, 0, 0, -0.07, -423.59, -103.63)" gradientUnits="userSpaceOnUse"><stop offset="0" stop-color="#882fa3"/><stop offset="1" stop-color="#d1415b"/></linearGradient></defs><g id="Layer_2" data-name="Layer 2"><g id="Layer_1-2" data-name="Layer 1"><g id="Layer_1-3" data-name="Layer_1"><path class="cls-1" d="M188.23,47.45C289.46,6.34,293,283,150.43,226.58c-27-10.65-36.22-39.45-94.11-38.16-58.31,1.3-86-137.59-10-163.08,67.1-22.53,63.21,54.15,141.91,22.18Z"/><path class="cls-2" d="M25.15,119.3C-20.35,74,34.87,3.89,95.42,15.91"/><path class="cls-2" d="M214.22,230.18c8.78,3.89,28.22-.14,27.14-18.93-.72-13.76-22.6-3.89-5.76,1.44,16.13,5.11,20.45-17.72,11.52-26.5"/><rect class="cls-3" x="116.08" y="170.21" width="45.43" height="41.83" rx="2.3"/><rect class="cls-4" x="38.25" y="33.12" width="201.09" height="152.42" rx="8.35"/><path class="cls-5" d="M239.35,52.27v125a8.36,8.36,0,0,1-8.35,8.35H46.6a8.36,8.36,0,0,1-8.35-8.35v-125Z"/><path class="cls-6" d="M231,153H46.6a8.36,8.36,0,0,1-8.35-8.35v32.54a8.36,8.36,0,0,0,8.35,8.35H231a8.36,8.36,0,0,0,8.35-8.35V144.65A8.36,8.36,0,0,1,231,153Z"/><path class="cls-7" d="M138.84,159.62a9.65,9.65,0,1,1-9.65,9.65A9.65,9.65,0,0,1,138.84,159.62Z"/><path class="cls-8" d="M138.84,158.9a10.33,10.33,0,1,1-7.35,3A10.29,10.29,0,0,1,138.84,158.9Zm6.33,4.11a8.88,8.88,0,0,0-6.33-2.6,9.17,9.17,0,0,0-6.34,2.6,8.91,8.91,0,0,0-2.59,6.33,9.2,9.2,0,0,0,2.59,6.34,8.93,8.93,0,0,0,6.34,2.59,9.18,9.18,0,0,0,6.33-2.59,8.91,8.91,0,0,0,2.59-6.34A9.12,9.12,0,0,0,145.17,163Z"/><rect class="cls-9" x="80.01" y="208.87" width="117.57" height="9.58" rx="3.82"/><g id="_673725992" data-name=" 673725992"><circle class="cls-10" cx="52.94" cy="37.66" r="1.66"/><circle class="cls-10" cx="57.98" cy="37.66" r="1.66"/><circle class="cls-10" cx="63.02" cy="37.66" r="1.66"/></g><rect class="cls-11" x="38.25" y="52.27" width="201.09" height="15.19"/><rect class="cls-12" x="79.08" y="54.86" width="102.17" height="9.94" rx="2.95"/><rect class="cls-13" x="183.33" y="54.86" width="21.31" height="9.94" rx="2.95"/><g id="_673720424" data-name=" 673720424"><rect class="cls-14" x="50.13" y="55.8" width="4.39" height="5.9" rx="0.72"/><rect class="cls-15" x="55.46" y="58.82" width="2.81" height="2.95" rx="0.43"/><rect class="cls-16" x="59.2" y="58.82" width="2.81" height="2.95" rx="0.43"/><rect class="cls-14" x="62.88" y="58.82" width="2.81" height="5.9" rx="0.43"/><rect class="cls-17" x="66.62" y="55.8" width="2.81" height="5.9" rx="0.43"/><rect class="cls-15" x="70.36" y="58.82" width="2.81" height="2.95" rx="0.43"/></g><path class="cls-18" d="M83.61,60.91l.29-.21.07-.08-.07-.07a2.5,2.5,0,0,1-.29-.65,2.26,2.26,0,0,1-.07-.72,1.43,1.43,0,0,1,.22-.79,3.91,3.91,0,0,1,.5-.65,1.53,1.53,0,0,1,.72-.43,1.6,1.6,0,0,1,.79-.07,1.38,1.38,0,0,1,.79.22,3.23,3.23,0,0,1,.65.5,1.45,1.45,0,0,1,.43.72,1.5,1.5,0,0,1,.08.79,1.46,1.46,0,0,1-.22.79,3.65,3.65,0,0,1-.5.65h0a1.5,1.5,0,0,1-.72.43,1.53,1.53,0,0,1-.8.08,2.13,2.13,0,0,1-.64-.15,1.43,1.43,0,0,1-.58-.36l-.07-.07-.07.07-.29.22c0,.07,0,.21-.07.21l-1.23,1a.33.33,0,0,1-.36,0l-.07-.14a.33.33,0,0,1,0-.36l1.22-1c.08-.07.15-.07.29,0Zm2.88-3.17-.65-.21a2.55,2.55,0,0,0-.72.07,1.59,1.59,0,0,0-.57.36,1.06,1.06,0,0,0-.43.58l-.22.64a2.48,2.48,0,0,0,.07.72,1.55,1.55,0,0,0,.36.58h0a1.1,1.1,0,0,0,.58.43l.65.22a2.55,2.55,0,0,0,.72-.07,1.73,1.73,0,0,0,.57-.36,1.1,1.1,0,0,0,.43-.58l.22-.65a2.55,2.55,0,0,0-.07-.72,1.59,1.59,0,0,0-.36-.57A1.18,1.18,0,0,0,86.49,57.74Z"/><g id="_673717256" data-name=" 673717256"><path class="cls-14" d="M77.56,82.3a3.54,3.54,0,0,0,2.6-1,4.16,4.16,0,0,0,.93-2.81,5.36,5.36,0,0,0-.36-1.94,2.94,2.94,0,0,0-1.15-1.3,3.83,3.83,0,0,0-1.94-.5H74.76V82.3h2.8ZM77.64,76a1.65,1.65,0,0,1,1.44.65,3.47,3.47,0,0,1,.5,1.87,2.73,2.73,0,0,1-.5,1.94,1.85,1.85,0,0,1-1.52.65H76.12V76Z"/><path id="_1" data-name="1" class="cls-14" d="M82.68,76.18a.83.83,0,0,0,.57-.22.81.81,0,0,0-1.15-1.15.8.8,0,0,0,.58,1.37Zm.72,6.12V76.9H82v5.4Z"/><path id="_2" data-name="2" class="cls-14" d="M86.06,78.62a2.76,2.76,0,0,1,.72-.43,1.22,1.22,0,0,1,.72-.14.66.66,0,0,1,.58.29,1.3,1.3,0,0,1,.21.79v3.31h1.44V79.06a2.45,2.45,0,0,0-.43-1.59,1.69,1.69,0,0,0-1.44-.57,2.9,2.9,0,0,0-1,.21,4.08,4.08,0,0,0-1.08.58l-.21-.58h-.94v5.4h1.44V78.62Z"/><polygon id="_3" data-name="3" class="cls-14" points="92.68 82.3 92.68 77.33 96.14 82.3 97.58 82.3 97.58 74.81 96.14 74.81 96.14 79.85 92.68 74.81 91.24 74.81 91.24 82.3 92.68 82.3"/><path id="_4" data-name="4" class="cls-14" d="M104,79.63a3.18,3.18,0,0,0-.29-1.44,1.87,1.87,0,0,0-.79-1,2.61,2.61,0,0,0-1.37-.36,3.1,3.1,0,0,0-1.44.36,2.19,2.19,0,0,0-.94,1,3.43,3.43,0,0,0-.36,1.51,2.85,2.85,0,0,0,.8,2.09,3.12,3.12,0,0,0,2.3.72,5.75,5.75,0,0,0,1.15-.14,3.56,3.56,0,0,0,.87-.51l-.44-1a4.29,4.29,0,0,1-.79.36,2.59,2.59,0,0,1-.79.14,1.81,1.81,0,0,1-1.15-.29,1.73,1.73,0,0,1-.51-.86h3.6v-.43Zm-3.6-.5a1.87,1.87,0,0,1,.36-.79.9.9,0,0,1,.72-.29.92.92,0,0,1,.72.29,1.17,1.17,0,0,1,.36.79h-2.16Z"/><path id="_5" data-name="5" class="cls-14" d="M106.51,77V75.46l-1.44.28V77h-.72v1.08h.72v2.52a1.89,1.89,0,0,0,.57,1.44,2.22,2.22,0,0,0,1.59.5,1.8,1.8,0,0,0,.57-.07,3.78,3.78,0,0,0,.51-.21l-.43-1a1.76,1.76,0,0,1-.58.14.66.66,0,0,1-.58-.29,1.09,1.09,0,0,1-.21-.72v-2.3H108L107.52,77h-1Z"/><path id="_6" data-name="6" class="cls-14" d="M110.76,77V75.46l-1.44.28V77h-.72v1.08h.72v2.52a1.89,1.89,0,0,0,.57,1.44,2.22,2.22,0,0,0,1.59.5,1.8,1.8,0,0,0,.57-.07,3.78,3.78,0,0,0,.51-.21l-.44-1a1.7,1.7,0,0,1-.57.14.66.66,0,0,1-.58-.29,1.09,1.09,0,0,1-.21-.72v-2.3h1.44L111.76,77h-1Z"/><path id="_7" data-name="7" class="cls-14" d="M113,81.94a5.25,5.25,0,0,0,.86.43,6.12,6.12,0,0,0,.94.14,2.64,2.64,0,0,0,1.65-.43,1.54,1.54,0,0,0,.58-1.22,1.27,1.27,0,0,0-.5-1.08,5.36,5.36,0,0,0-1.3-.72,3.47,3.47,0,0,1-.65-.29.31.31,0,0,1-.21-.29c0-.14.07-.22.21-.36A1.08,1.08,0,0,1,115,78a2,2,0,0,1,.65.07,4.15,4.15,0,0,1,.72.29l.43-.94a5.52,5.52,0,0,0-.93-.43,5.19,5.19,0,0,0-.94-.15,2.34,2.34,0,0,0-1.51.44,1.53,1.53,0,0,0-.58,1.22,1.18,1.18,0,0,0,.51,1,3.73,3.73,0,0,0,1.29.65c.65.21.94.43.94.72a.37.37,0,0,1-.29.36,1.7,1.7,0,0,1-.57.14,4.47,4.47,0,0,1-1.44-.36l-.44,1Z"/><path id="_8" data-name="8" class="cls-14" d="M118.68,76.18a.83.83,0,0,0,.57-.22.81.81,0,0,0-1.15-1.15.8.8,0,0,0,.58,1.37Zm.72,6.12V76.9H118v5.4Z"/><path id="_9" data-name="9" class="cls-14" d="M125.66,74.52v7.85h-.72l-.36-.51a2.32,2.32,0,0,1-1.58.65,2.45,2.45,0,0,1-2-.79,2.85,2.85,0,0,1-.72-2.09,3.43,3.43,0,0,1,.36-1.51,2.19,2.19,0,0,1,.94-1,3.33,3.33,0,0,1,1.44-.36,1.8,1.8,0,0,1,.57.07,2.62,2.62,0,0,1,.58.29V74.59l1.44-.14Zm-3.89,5.11a1.83,1.83,0,0,0,.36,1.15,1.08,1.08,0,0,0,.94.44,1.72,1.72,0,0,0,.57-.15,2.29,2.29,0,0,0,.58-.36v-2.3a2.29,2.29,0,0,0-.58-.36,1.42,1.42,0,0,0-.57-.07,1.17,1.17,0,0,0-.94.43,2,2,0,0,0-.36,1.15Z"/><path id="_10" data-name="10" class="cls-14" d="M131.78,79.63a3.18,3.18,0,0,0-.29-1.44,1.87,1.87,0,0,0-.79-1,2.61,2.61,0,0,0-1.37-.36,3.13,3.13,0,0,0-1.44.36,2.12,2.12,0,0,0-.93,1,3.3,3.3,0,0,0-.36,1.51,2.84,2.84,0,0,0,.79,2.09,3.12,3.12,0,0,0,2.3.72,5.75,5.75,0,0,0,1.15-.14,3.56,3.56,0,0,0,.87-.51l-.43-1a4.7,4.7,0,0,1-.8.36,2.59,2.59,0,0,1-.79.14,1.81,1.81,0,0,1-1.15-.29,1.64,1.64,0,0,1-.5-.86h3.6v-.43Zm-3.6-.5a2,2,0,0,1,.36-.79,1,1,0,0,1,1.44,0c.22.14.29.43.36.79h-2.16Z"/><path id="_11" data-name="11" class="cls-14" d="M133.22,82.3a.85.85,0,0,0,.58-.22.89.89,0,0,0,0-1.15.87.87,0,0,0-1.16,0,.89.89,0,0,0,0,1.15A.85.85,0,0,0,133.22,82.3Z"/><path id="_12" data-name="12" class="cls-14" d="M136.39,78.62a2.76,2.76,0,0,1,.72-.43,1.2,1.2,0,0,1,.72-.14.64.64,0,0,1,.57.29,1.24,1.24,0,0,1,.22.79v3.31h1.44V79.06a2.45,2.45,0,0,0-.43-1.59,1.69,1.69,0,0,0-1.44-.57,2.9,2.9,0,0,0-1,.21,4.08,4.08,0,0,0-1.08.58l-.22-.58H135v5.4h1.44V78.62Z"/><path id="_13" data-name="13" class="cls-14" d="M146.61,79.63a3.27,3.27,0,0,1-.36,1.51,2.15,2.15,0,0,1-1,1,3.35,3.35,0,0,1-3,0,2.24,2.24,0,0,1-1-1,3.35,3.35,0,0,1,0-3,2.35,2.35,0,0,1,1-1,3.35,3.35,0,0,1,3,0,2.24,2.24,0,0,1,1,1A3.3,3.3,0,0,1,146.61,79.63Zm-2.88,1.59a1.32,1.32,0,0,0,1-.44,1.56,1.56,0,0,0,.36-1.15,2,2,0,0,0-.36-1.15,1.4,1.4,0,0,0-2,0,1.62,1.62,0,0,0-.36,1.15,2,2,0,0,0,.36,1.15A1.32,1.32,0,0,0,143.73,81.22Z"/><rect class="cls-11" x="73.75" y="86.69" width="13.32" height="4.1" rx="1.51"/><rect class="cls-17" x="89.01" y="86.69" width="114.91" height="4.1" rx="1.51"/><rect class="cls-11" x="73.75" y="94.9" width="130.17" height="4.1" rx="1.51"/><rect class="cls-11" x="73.75" y="103.18" width="104.54" height="4.1" rx="1.51"/></g><g id="_673743008" data-name=" 673743008"><path class="cls-19" d="M114.64,41.26v-4a4,4,0,0,0-4-4H80.88a4,4,0,0,0-4,4v4H38.32v11h201v-11H114.64Z"/><rect class="cls-12" x="73.32" y="44.06" width="150.77" height="5.33" rx="1.58"/><path class="cls-20" d="M41.78,46.44,43,45.65l1.23-.79a.64.64,0,0,1,.79.07.52.52,0,0,1,.14.29h0v3.16c0,.22-.28.44-.57.44a1,1,0,0,1-.43-.15l-1.23-.79-1.22-.79c-.22-.15-.29-.43-.07-.58a.07.07,0,0,0,.07-.07Z"/><rect class="cls-21" x="44.37" y="45.79" width="2.02" height="2.02" rx="0.5"/><path class="cls-20" d="M54.74,46.44l-1.22-.79-1.23-.79a.64.64,0,0,0-.79.07.52.52,0,0,0-.14.29h0v3.16c0,.22.28.44.57.44a1,1,0,0,0,.43-.15l1.23-.79,1.22-.79c.22-.15.29-.43.07-.58a.07.07,0,0,1-.07-.07Z"/><rect class="cls-21" x="50.13" y="45.79" width="2.02" height="2.02" rx="0.5"/><path class="cls-21" d="M59.71,47.66a.34.34,0,0,1,.43.15.35.35,0,0,1-.14.43,1.62,1.62,0,0,1-1.3.14,1.6,1.6,0,0,1-1-.79,1.63,1.63,0,0,1-.14-1.29,1.55,1.55,0,0,1,.79-1,1.66,1.66,0,0,1,1.3-.15,1.57,1.57,0,0,1,1,.8.34.34,0,0,1-.14.43.34.34,0,0,1-.43-.15.94.94,0,0,0-.65-.5,1,1,0,0,0-.79.07,1,1,0,0,0-.51.65,1,1,0,0,0,.08.79.93.93,0,0,0,.64.51,1,1,0,0,0,.8-.08Z"/><path class="cls-20" d="M61,46.94v-1c0-.08-.07-.22-.14-.22h-.07l-.43.29-.44.29a.13.13,0,0,0,0,.21c0,.07.08.07.08.07l.43.22.43.22c.07.07.14,0,.22-.08H61Z"/><path class="cls-20" d="M66,44.86l.79.79.8.79a.31.31,0,0,1-.08.5.38.38,0,0,1-.28.08H64a.4.4,0,0,1-.43-.36.52.52,0,0,1,.14-.29l.79-.79.79-.8a.59.59,0,0,1,.58-.07l.07.07Z"/><path class="cls-20" d="M65,46.08h1.37a.72.72,0,0,1,.72.72v1.37a.72.72,0,0,1-.72.72h-.21V48a.32.32,0,0,0-.29-.29h-.51A.31.31,0,0,0,65,48v.94h-.22a.72.72,0,0,1-.72-.72V46.8a.72.72,0,0,1,.72-.72Z"/></g><g id="_673741976" data-name=" 673741976"><rect class="cls-11" x="73.75" y="129.45" width="13.32" height="4.1" rx="1.51"/><rect class="cls-17" x="89.01" y="129.45" width="114.91" height="4.1" rx="1.51"/><rect class="cls-11" x="73.75" y="137.73" width="130.17" height="4.1" rx="1.51"/><rect class="cls-11" x="73.75" y="145.94" width="104.54" height="4.1" rx="1.51"/><rect class="cls-14" x="73.75" y="118.73" width="130.17" height="6.62" rx="2.38"/></g><g id="_673739792" data-name=" 673739792"><polygon class="cls-22" points="137.97 43.85 121.77 38.38 97 112.17 113.28 117.58 137.97 43.85"/><polygon class="cls-22" points="115.51 36.29 107.37 33.55 82.68 107.35 90.74 110.09 115.51 36.29"/><path class="cls-23" d="M42.21,130.68l31.11-26.86L75,102.31l-1.29-1.94a43.69,43.69,0,0,1-7.06-27.15,43.6,43.6,0,1,1,72,36.15h0A43.51,43.51,0,0,1,81.24,109l-1.73-1.51L77.78,109l-31.1,26.85-4.4-5.11Zm84.53-87.05a36.43,36.43,0,0,0-13.9-3.81,35.59,35.59,0,0,0-14.25,1.8,37.07,37.07,0,0,0-12.46,7.05A38,38,0,0,0,77.28,60a36.26,36.26,0,0,0-3.82,13.89,35.82,35.82,0,0,0,1.8,14.26,37.05,37.05,0,0,0,7.06,12.45h0a37.87,37.87,0,0,0,11.3,8.86,36.44,36.44,0,0,0,13.9,3.82,35.77,35.77,0,0,0,14.25-1.8,37.27,37.27,0,0,0,12.46-7.06,38.12,38.12,0,0,0,8.85-11.3,36.36,36.36,0,0,0,3.82-13.9,35.82,35.82,0,0,0-1.8-14.26A37.05,37.05,0,0,0,138,52.49,37.87,37.87,0,0,0,126.74,43.63Z"/><path class="cls-24" d="M70,111.24h0c-2.29-2.65-11.27,1.35-20.07,9h0c-8.8,7.59-14.07,15.89-11.79,18.54h0c2.29,2.66,11.28-1.35,20.08-8.94h0C67,122.2,72.25,113.89,70,111.24Z"/></g><path class="cls-25" d="M18.17,4.25A4.25,4.25,0,1,1,13.92,0"/></g></g></g></svg>